<svg width="27" height="36" viewBox="0 0 27 36" fill="none" xmlns="http://www.w3.org/2000/svg">
<path d="M13.8998 17.0008C15.1331 15.7341 16.1331 14.4674 16.8998 13.2008C17.6998 11.9008 18.0998 10.7674 18.0998 9.80078C18.0998 8.43411 17.5998 7.38411 16.5998 6.65078C15.5998 5.91745 14.2165 5.55078 12.4498 5.55078C10.9165 5.55078 9.28314 5.93411 7.54981 6.70078C5.81647 7.46745 4.18314 8.51745 2.64981 9.85078L-0.000195302 5.05078C2.03314 3.48411 4.18314 2.25078 6.44981 1.35078C8.71647 0.45078 11.0331 0.000779748 13.3998 0.000779748C15.7331 0.000779748 17.7665 0.367447 19.4998 1.10078C21.2331 1.83411 22.5998 2.86745 23.5998 4.20078C24.5998 5.53411 25.0998 7.08411 25.0998 8.85078C25.0998 10.6174 24.4665 12.4841 23.1998 14.4508C21.9665 16.3841 20.3831 18.3508 18.4498 20.3508L7.3998 31.8008L6.49981 29.7508H26.5998V35.3008H0.699805V30.7008L13.8998 17.0008Z" fill="#1A3A5C"/>
</svg>
