<svg width="27" height="36" viewBox="0 0 27 36" fill="none" xmlns="http://www.w3.org/2000/svg">
<path d="M16.2502 14.65C19.4169 14.9167 21.9669 15.8833 23.9002 17.55C25.8669 19.1833 26.8502 21.3667 26.8502 24.1C26.8502 26.3 26.2835 28.25 25.1502 29.95C24.0169 31.6167 22.4169 32.9333 20.3502 33.9C18.2835 34.8333 15.8169 35.3 12.9502 35.3C10.5502 35.3 8.18353 34.95 5.8502 34.25C3.5502 33.5167 1.6002 32.5667 0.000195356 31.4L2.6502 26.45C4.0502 27.5833 5.6002 28.4667 7.3002 29.1C9.0002 29.7333 10.7335 30.05 12.5002 30.05C14.1335 30.05 15.5335 29.8167 16.7002 29.35C17.8669 28.85 18.7502 28.1667 19.3502 27.3C19.9835 26.4 20.3002 25.3833 20.3002 24.25C20.3002 22.4167 19.6002 21.0333 18.2002 20.1C16.8002 19.1667 14.8669 18.7 12.4002 18.7H7.1002V14.85L18.9002 3.25L19.8002 5.45H1.7502L1.7002 -2.38419e-06H25.1002V3.9L12.1502 16.5L11.3502 14.15L16.2502 14.65Z" fill="#1A3A5C"/>
</svg>
