<svg width="57" height="55" viewBox="0 0 57 55" fill="none" xmlns="http://www.w3.org/2000/svg">
<path d="M35.7231 21.9301V43.304C35.7231 44.5749 36.7755 45.6147 38.0618 45.6147H48.4691V49.1963C48.4691 51.7381 46.3643 53.8177 43.7917 53.8177H15.1423C12.5697 53.8177 10.4648 51.7381 10.4648 49.1963V42.9574H23.4448V37.7584H10.4648V9.10577C10.4648 6.564 12.5697 4.48438 15.1423 4.48438H20.9891V5.63972C20.9891 6.9106 22.0415 7.95042 23.3278 7.95042H35.7231C37.0094 7.95042 38.0618 6.9106 38.0618 5.63972V4.48438H43.9086C46.4812 4.48438 48.5861 6.564 48.5861 9.10577V19.5039H38.1787C36.7755 19.6194 35.7231 20.6592 35.7231 21.9301Z" fill="#E4E7E7"/>
<path d="M37.1349 4.60075C37.1349 4.12443 37.525 3.7383 38.0062 3.73828H43.8151C46.8522 3.73828 49.3334 6.19436 49.3334 9.2006V19.5503C49.3334 20.0266 48.9433 20.4127 48.4621 20.4127H38.1663C37.1736 20.5071 36.554 21.2194 36.554 21.9652V43.2395C36.554 44.0281 37.2095 44.6769 38.0062 44.6769H48.346C48.8272 44.6769 49.2173 45.0631 49.2173 45.5394V49.1042C49.2173 52.1105 46.736 54.5666 43.6989 54.5666H15.2357C12.1986 54.5666 9.71729 52.1105 9.71729 49.1042V42.8946C9.71729 42.4182 10.1074 42.0321 10.5886 42.0321H22.6128V38.5822H10.5886C10.1074 38.5822 9.71732 38.196 9.71729 37.7197V9.2006C9.71729 6.19436 12.1986 3.73828 15.2357 3.73828H21.0445C21.5257 3.73828 21.9158 4.12442 21.9158 4.60075V5.75072C21.9158 6.53934 22.5713 7.18817 23.368 7.18817H35.6827C36.4794 7.18817 37.1349 6.53934 37.1349 5.75072V4.60075ZM38.8776 5.75072C38.8776 7.492 37.4419 8.91311 35.6827 8.91311H23.368C21.6089 8.91311 20.1732 7.492 20.1732 5.75072V5.46322H15.2357C13.161 5.46322 11.4599 7.14702 11.4599 9.2006V36.8573H23.4842C23.9654 36.8573 24.3555 37.2434 24.3555 37.7197V42.8946C24.3555 43.3709 23.9654 43.757 23.4842 43.757H11.4599V49.1042C11.4599 51.1578 13.161 52.8416 15.2357 52.8416H43.6989C45.7736 52.8416 47.4747 51.1578 47.4747 49.1042V46.4019H38.0062C36.2471 46.4018 34.8114 44.9807 34.8114 43.2395V21.9652C34.8114 20.1882 36.2712 18.8375 38.0501 18.6907C38.0741 18.6888 38.0983 18.6878 38.1224 18.6878H47.5908V9.2006C47.5908 7.14702 45.8897 5.46322 43.8151 5.46322H38.8776V5.75072Z" fill="#324D5B"/>
<path d="M35.6483 8.22279H23.2843C21.989 8.22279 20.9292 7.11996 20.9292 5.77206V3.19878C20.9292 1.85088 21.989 0.748047 23.2843 0.748047H35.7661C37.0613 0.748047 38.1211 1.85088 38.1211 3.19878V5.77206C38.0034 7.11996 36.9436 8.22279 35.6483 8.22279Z" fill="#72D6C3"/>
<path d="M37.1275 3.24562C37.1275 2.43624 36.4726 1.77034 35.6766 1.77034H23.3735C22.5775 1.77034 21.9227 2.43624 21.9227 3.24562V5.72407C21.9227 6.53346 22.5775 7.19936 23.3735 7.19936H35.5606C36.3339 7.19936 37.0343 6.54796 37.1275 5.67566V3.24562ZM38.8685 5.72407C38.8685 5.7508 38.8673 5.77755 38.865 5.80418C38.7122 7.51248 37.3315 8.9697 35.5606 8.9697H23.3735C21.616 8.9697 20.1816 7.51119 20.1816 5.72407V3.24562C20.1816 1.45851 21.616 0 23.3735 0H35.6766C37.4342 0 38.8685 1.45851 38.8685 3.24562V5.72407Z" fill="#324D5B"/>
<path d="M52.4322 45.5972H38.1158C36.8855 45.5972 35.8789 44.546 35.8789 43.2613V21.7714C35.8789 20.4867 36.8855 19.4355 38.1158 19.4355H52.3203C53.5507 19.4355 54.5573 20.4867 54.5573 21.7714V43.2613C54.6691 44.546 53.6625 45.5972 52.4322 45.5972Z" fill="#56CCED"/>
<path d="M54.2656 21.8697C54.2656 21.0762 53.5939 20.4233 52.7775 20.4233H37.6578C36.8413 20.4233 36.1696 21.0762 36.1696 21.8697V43.1618C36.1696 43.9554 36.8413 44.6083 37.6578 44.6083H52.8966C53.7308 44.6083 54.3365 43.9581 54.2694 43.2404C54.267 43.2143 54.2656 43.188 54.2656 43.1618V21.8697ZM56.0514 43.1286C56.193 44.9349 54.6668 46.344 52.8966 46.3441H37.6578C35.855 46.3441 34.3838 44.914 34.3838 43.1618V21.8697C34.3838 20.1175 35.855 18.6875 37.6578 18.6875H52.7775C54.5802 18.6875 56.0514 20.1175 56.0514 21.8697V43.1286Z" fill="#324D5B"/>
<path d="M38.8687 23.1719H51.5757V27.6567H38.8687V23.1719Z" fill="#E4E7E7"/>
<path d="M51.4571 22.4238L51.5017 22.4249C51.9592 22.4467 52.3231 22.803 52.3231 23.2393V27.5882C52.3231 28.0385 51.9354 28.4036 51.4571 28.4036H38.9871C38.5088 28.4036 38.1211 28.0385 38.1211 27.5882V23.2393C38.1211 22.7889 38.5088 22.4238 38.9871 22.4238H51.4571ZM39.853 26.7728H50.5912V24.0547H39.853V26.7728Z" fill="#324D5B"/>
<path d="M40.1767 30.6465C40.6927 30.6465 41.111 30.9811 41.111 31.394C41.111 31.8068 40.6927 32.1414 40.1767 32.1414H39.0554C38.5394 32.1414 38.1211 31.8068 38.1211 31.394C38.1211 30.9811 38.5394 30.6465 39.0554 30.6465H40.1767Z" fill="#324D5B"/>
<path d="M43.914 30.6465C44.43 30.6465 44.8483 30.9811 44.8483 31.394C44.8483 31.8068 44.43 32.1414 43.914 32.1414H42.7927C42.2767 32.1414 41.8584 31.8068 41.8584 31.394C41.8584 30.9811 42.2767 30.6465 42.7927 30.6465H43.914Z" fill="#324D5B"/>
<path d="M47.6513 30.6465C48.1673 30.6465 48.5856 30.9811 48.5856 31.394C48.5856 31.8068 48.1673 32.1414 47.6513 32.1414H46.53C46.014 32.1414 45.5957 31.8068 45.5957 31.394C45.5957 30.9811 46.014 30.6465 46.53 30.6465H47.6513Z" fill="#324D5B"/>
<path d="M51.3891 30.6465C51.9051 30.6465 52.3234 30.9811 52.3234 31.394C52.3234 31.8068 51.9051 32.1414 51.3891 32.1414H50.2678C49.7518 32.1414 49.3335 31.8068 49.3335 31.394C49.3335 30.9811 49.7518 30.6465 50.2678 30.6465H51.3891Z" fill="#324D5B"/>
<path d="M40.1767 34.3848C40.6927 34.3848 41.111 34.7194 41.111 35.1322C41.111 35.5451 40.6927 35.8797 40.1767 35.8797H39.0554C38.5394 35.8797 38.1211 35.5451 38.1211 35.1322C38.1211 34.7194 38.5394 34.3848 39.0554 34.3848H40.1767Z" fill="#324D5B"/>
<path d="M43.914 34.3848C44.43 34.3848 44.8483 34.7194 44.8483 35.1322C44.8483 35.5451 44.43 35.8797 43.914 35.8797H42.7927C42.2767 35.8797 41.8584 35.5451 41.8584 35.1322C41.8584 34.7194 42.2767 34.3848 42.7927 34.3848H43.914Z" fill="#324D5B"/>
<path d="M47.6513 34.3848C48.1673 34.3848 48.5856 34.7194 48.5856 35.1322C48.5856 35.5451 48.1673 35.8797 47.6513 35.8797H46.53C46.014 35.8797 45.5957 35.5451 45.5957 35.1322C45.5957 34.7194 46.014 34.3848 46.53 34.3848H47.6513Z" fill="#324D5B"/>
<path d="M51.3891 34.3848C51.9051 34.3848 52.3234 34.7194 52.3234 35.1322C52.3234 35.5451 51.9051 35.8797 51.3891 35.8797H50.2678C49.7518 35.8797 49.3335 35.5451 49.3335 35.1322C49.3335 34.7194 49.7518 34.3848 50.2678 34.3848H51.3891Z" fill="#324D5B"/>
<path d="M40.1767 37.375C40.6927 37.375 41.111 37.7097 41.111 38.1225C41.111 38.5353 40.6927 38.8699 40.1767 38.8699H39.0554C38.5394 38.8699 38.1211 38.5353 38.1211 38.1225C38.1211 37.7097 38.5394 37.375 39.0554 37.375H40.1767Z" fill="#324D5B"/>
<path d="M43.914 37.375C44.43 37.375 44.8483 37.7097 44.8483 38.1225C44.8483 38.5353 44.43 38.8699 43.914 38.8699H42.7927C42.2767 38.8699 41.8584 38.5353 41.8584 38.1225C41.8584 37.7097 42.2767 37.375 42.7927 37.375H43.914Z" fill="#324D5B"/>
<path d="M47.6513 37.375C48.1673 37.375 48.5856 37.7097 48.5856 38.1225C48.5856 38.5353 48.1673 38.8699 47.6513 38.8699H46.53C46.014 38.8699 45.5957 38.5353 45.5957 38.1225C45.5957 37.7097 46.014 37.375 46.53 37.375H47.6513Z" fill="#324D5B"/>
<path d="M51.3891 37.375C51.9051 37.375 52.3234 37.7097 52.3234 38.1225C52.3234 38.5353 51.9051 38.8699 51.3891 38.8699H50.2678C49.7518 38.8699 49.3335 38.5353 49.3335 38.1225C49.3335 37.7097 49.7518 37.375 50.2678 37.375H51.3891Z" fill="#324D5B"/>
<path d="M40.1767 41.1113C40.6927 41.1113 41.111 41.446 41.111 41.8588C41.111 42.2716 40.6927 42.6063 40.1767 42.6063H39.0554C38.5394 42.6063 38.1211 42.2716 38.1211 41.8588C38.1211 41.446 38.5394 41.1113 39.0554 41.1113H40.1767Z" fill="#324D5B"/>
<path d="M43.914 41.1113C44.43 41.1113 44.8483 41.446 44.8483 41.8588C44.8483 42.2716 44.43 42.6063 43.914 42.6063H42.7927C42.2767 42.6063 41.8584 42.2716 41.8584 41.8588C41.8584 41.446 42.2767 41.1113 42.7927 41.1113H43.914Z" fill="#324D5B"/>
<path d="M47.6513 41.1113C48.1673 41.1113 48.5856 41.446 48.5856 41.8588C48.5856 42.2716 48.1673 42.6063 47.6513 42.6063H46.53C46.014 42.6063 45.5957 42.2716 45.5957 41.8588C45.5957 41.446 46.014 41.1113 46.53 41.1113H47.6513Z" fill="#324D5B"/>
<path d="M51.3891 41.1113C51.9051 41.1113 52.3234 41.446 52.3234 41.8588C52.3234 42.2716 51.9051 42.6063 51.3891 42.6063H50.2678C49.7518 42.6063 49.3335 42.2716 49.3335 41.8588C49.3335 41.446 49.7518 41.1113 50.2678 41.1113H51.3891Z" fill="#324D5B"/>
<path d="M41.7334 12.707C42.2155 12.707 42.6062 13.0417 42.6062 13.4545C42.6062 13.8673 42.2155 14.202 41.7334 14.202H24.0447C23.5626 14.202 23.1719 13.8673 23.1719 13.4545C23.1719 13.0417 23.5626 12.707 24.0447 12.707H41.7334Z" fill="#324D5B"/>
<path d="M19.3323 12.707C19.8014 12.7071 20.1817 13.0417 20.1817 13.4545C20.1817 13.8673 19.8014 14.202 19.3323 14.202H17.2937C16.8246 14.202 16.4443 13.8673 16.4443 13.4545C16.4443 13.0417 16.8246 12.707 17.2937 12.707H19.3323Z" fill="#324D5B"/>
<path d="M29.8099 17.1914C30.272 17.1914 30.6466 17.5261 30.6466 17.9389C30.6466 18.3517 30.272 18.6864 29.8099 18.6864H24.0086C23.5465 18.6864 23.1719 18.3517 23.1719 17.9389C23.1719 17.5261 23.5465 17.1914 24.0086 17.1914H29.8099Z" fill="#324D5B"/>
<path d="M19.3323 17.1914C19.8014 17.1914 20.1817 17.5261 20.1817 17.9389C20.1817 18.3517 19.8014 18.6863 19.3323 18.6864H17.2937C16.8246 18.6864 16.4443 18.3517 16.4443 17.9389C16.4443 17.5261 16.8246 17.1914 17.2937 17.1914H19.3323Z" fill="#324D5B"/>
<path d="M29.8099 20.9277C30.272 20.9277 30.6466 21.4297 30.6466 22.0489C30.6466 22.6682 30.272 23.1702 29.8099 23.1702H24.0086C23.5465 23.1702 23.1719 22.6682 23.1719 22.0489C23.1719 21.4297 23.5465 20.9277 24.0086 20.9277H29.8099Z" fill="#324D5B"/>
<path d="M19.3323 20.9277C19.8014 20.9278 20.1817 21.4297 20.1817 22.0489C20.1817 22.6682 19.8014 23.1701 19.3323 23.1702H17.2937C16.8246 23.1702 16.4443 22.6682 16.4443 22.0489C16.4443 21.4297 16.8246 20.9277 17.2937 20.9277H19.3323Z" fill="#324D5B"/>
<path d="M29.8099 25.4141C30.272 25.4141 30.6466 25.7487 30.6466 26.1615C30.6466 26.5744 30.272 26.909 29.8099 26.909H24.0086C23.5465 26.909 23.1719 26.5744 23.1719 26.1615C23.1719 25.7487 23.5465 25.4141 24.0086 25.4141H29.8099Z" fill="#324D5B"/>
<path d="M19.3323 25.4141C19.8014 25.4141 20.1817 25.7487 20.1817 26.1615C20.1817 26.5743 19.8014 26.909 19.3323 26.909H17.2937C16.8246 26.909 16.4443 26.5744 16.4443 26.1615C16.4443 25.7487 16.8246 25.4141 17.2937 25.4141H19.3323Z" fill="#324D5B"/>
<path d="M29.8099 29.8984C30.272 29.8984 30.6466 30.2331 30.6466 30.6459C30.6466 31.0587 30.272 31.3934 29.8099 31.3934H24.0086C23.5465 31.3934 23.1719 31.0587 23.1719 30.6459C23.1719 30.2331 23.5465 29.8984 24.0086 29.8984H29.8099Z" fill="#324D5B"/>
<path d="M19.3323 29.8984C19.8014 29.8985 20.1817 30.2331 20.1817 30.6459C20.1817 31.0587 19.8014 31.3934 19.3323 31.3934H17.2937C16.8246 31.3934 16.4443 31.0587 16.4443 30.6459C16.4443 30.2331 16.8246 29.8984 17.2937 29.8984H19.3323Z" fill="#324D5B"/>
<path d="M23.1719 42.6073L29.8991 39.9912L23.1719 37.375" fill="#FFD576"/>
<path d="M22.4995 37.125C22.6989 36.7059 23.233 36.5137 23.6924 36.6955L30.1006 39.2318C30.432 39.363 30.6465 39.6612 30.6465 39.9907C30.6465 40.3201 30.432 40.6182 30.1006 40.7493L23.6924 43.2856C23.2329 43.4675 22.6989 43.2752 22.4995 42.8562C22.3001 42.4372 22.5109 41.9501 22.9703 41.7683L27.4616 39.9905L22.9703 38.2129C22.5109 38.0311 22.3001 37.544 22.4995 37.125Z" fill="#324D5B"/>
<path d="M23.1718 37.4887V42.6073H3.41988C1.90944 42.6073 0.747559 41.4699 0.747559 39.9912C0.747559 38.5125 1.90944 37.375 3.41988 37.375H23.1718V37.4887Z" fill="#FF8080"/>
<path d="M23.0567 36.627C23.533 36.627 23.9192 36.9973 23.9192 37.4541V42.5271C23.9192 42.9839 23.533 43.3542 23.0567 43.3542H3.50743C1.53617 43.3542 2.96253e-05 41.8811 0 39.9907C0 38.1002 1.53616 36.627 3.50743 36.627H23.0567ZM1.72494 39.9907C1.72497 40.9675 2.48883 41.7 3.50743 41.7H22.1943V38.2812H3.50743C2.48881 38.2812 1.72494 39.0138 1.72494 39.9907Z" fill="#324D5B"/>
<path d="M7.47492 37.375H4.09012C2.62338 37.375 1.49512 38.5125 1.49512 39.9912C1.49512 41.4699 2.62338 42.6073 4.09012 42.6073H7.47492V37.375Z" fill="#FFD576"/>
<path d="M7.31537 36.627C7.81618 36.627 8.22222 36.9973 8.22222 37.4541V42.5271C8.22222 42.9839 7.81618 43.3542 7.31537 43.3542H3.68794C1.61523 43.3542 3.11499e-05 41.8811 0 39.9907C0 38.1002 1.61521 36.627 3.68794 36.627H7.31537ZM1.81371 39.9907C1.81374 40.9675 2.61692 41.7 3.68794 41.7H6.40851V38.2812H3.68794C2.6169 38.2812 1.81371 39.0138 1.81371 39.9907Z" fill="#324D5B"/>
</svg>
