<svg width="30" height="30" viewBox="0 0 30 30" fill="none" xmlns="http://www.w3.org/2000/svg">
<path d="M29.2034 21.8741L26.8848 12.0034C26.8048 11.6623 26.5962 11.3726 26.2975 11.1875C25.9988 11.0025 25.6468 10.9447 25.3063 11.0248L23.1537 11.531C22.8133 11.6099 22.5235 11.8179 22.3378 12.1168C22.1517 12.4162 22.0934 12.7688 22.1736 13.1097L22.3451 13.8398L22.1162 13.9222C21.4449 14.1661 20.7805 14.127 20.1416 13.8061L18.5804 13.0213C20.6316 10.8282 21.4229 7.58217 21.4229 4.79938V3.53545C21.4229 3.33401 21.2942 3.15506 21.1031 3.09102L15.1488 1.09461C15.0522 1.06221 14.9475 1.06221 14.8508 1.09461L8.89653 3.09102C8.70552 3.15506 8.57679 3.33401 8.57679 3.53545V4.79938C8.57679 7.6062 9.38192 10.8836 11.4719 13.0769H7.83282C7.9765 12.3809 7.5398 11.6918 6.84757 11.5315L4.69343 11.0249C4.35276 10.9448 4.00079 11.0025 3.7022 11.1876C3.40349 11.3727 3.19489 11.6624 3.11491 12.0035L0.796359 21.8739C0.716202 22.2144 0.774269 22.5665 0.959835 22.8655C1.14511 23.1639 1.4345 23.3723 1.77476 23.4523L3.92767 23.959C4.02816 23.9826 4.12864 23.9939 4.22773 23.9938C4.67866 23.9938 5.09796 23.7594 5.3372 23.3837L10.3301 28.3617C10.6969 28.7285 11.1858 28.9304 11.7069 28.9304H11.7083C12.2302 28.93 12.7195 28.7273 13.0858 28.36C13.3421 28.1037 13.5176 27.7875 13.6003 27.4426L14.0892 27.9303C14.4758 28.316 14.9518 28.5194 15.4433 28.5194C15.6012 28.5194 15.7608 28.4984 15.9195 28.4556C16.6096 28.2696 17.175 27.7066 17.3659 27.0183L17.4045 27.0568C17.8216 27.4725 18.295 27.6474 18.7511 27.6474C19.2799 27.6474 19.7854 27.4122 20.1525 27.044C20.5413 26.6539 20.7802 26.1091 20.7485 25.5467C20.7821 25.5485 20.8157 25.5497 20.8494 25.5497C21.0074 25.5497 21.167 25.5287 21.3257 25.486C22.0222 25.2982 22.5922 24.7266 22.7778 24.0296C22.8158 23.8869 22.8352 23.7436 22.8386 23.6014C22.9984 23.6366 23.1615 23.655 23.3262 23.655C23.6507 23.655 23.9806 23.586 24.2989 23.445L24.6159 23.3053C24.8442 23.7269 25.2894 23.994 25.7704 23.994C25.8695 23.994 25.9702 23.9827 26.0707 23.9591L28.2249 23.4525C28.5652 23.3724 28.8546 23.1639 29.0398 22.8655C29.2254 22.5666 29.2835 22.2144 29.2034 21.8741ZM9.51429 3.8726L14.9998 2.0334L20.4854 3.8726V4.79932C20.4854 8.28319 19.1723 12.542 15.4863 14.0469L14.9998 14.2465L14.5126 14.0466C10.8274 12.5426 9.51429 8.28354 9.51429 4.79926V3.8726ZM4.142 23.0464L1.98944 22.5398C1.89253 22.517 1.80974 22.457 1.7563 22.371C1.70304 22.2852 1.68622 22.185 1.7089 22.0885L4.02751 12.2178V12.2175C4.05036 12.1203 4.11013 12.0375 4.19597 11.9844C4.25661 11.9468 4.32464 11.9275 4.39355 11.9275C4.42196 11.9275 4.4505 11.9308 4.47874 11.9374L6.63446 12.4443C6.83169 12.49 6.95925 12.6972 6.91337 12.8953L4.59482 22.7658C4.54724 22.9679 4.34398 23.0936 4.142 23.0464V23.0464ZM21.8719 23.7884C21.7725 24.1617 21.455 24.4802 21.0818 24.5807C20.8521 24.6426 20.5052 24.6437 20.1574 24.2967L16.6446 20.7939C16.4613 20.6111 16.1645 20.6115 15.9817 20.7948C15.7989 20.9782 15.7993 21.2749 15.9826 21.4578L19.4954 24.9605C20.0535 25.5173 19.7537 26.116 19.4886 26.382C19.2233 26.6481 18.6253 26.9497 18.0664 26.3928L14.3029 22.6392C14.1196 22.4564 13.8228 22.4567 13.6399 22.6401C13.4571 22.8233 13.4575 23.1202 13.6408 23.303L16.1784 25.8338C16.1784 25.8338 16.1787 25.8342 16.1789 25.8344C16.5269 26.1812 16.527 26.5281 16.4658 26.758C16.3664 27.1314 16.0488 27.4498 15.6757 27.5503C15.4459 27.6123 15.099 27.6133 14.7514 27.2665L11.9627 24.4845C11.7795 24.3016 11.4827 24.302 11.2999 24.4853C11.117 24.6686 11.1174 24.9654 11.3007 25.1482L12.4224 26.2672L12.4219 26.2677C12.6121 26.4574 12.717 26.7112 12.7172 26.9824C12.7174 27.2534 12.613 27.5072 12.4226 27.6975C12.2329 27.8878 11.9791 27.9927 11.7079 27.9928H11.7071C11.4365 27.9928 11.1829 27.8884 10.9928 27.6982L5.65056 22.3721L7.6138 14.0143H12.252L9.40296 17.2119C9.10823 17.5435 8.98917 17.9667 9.06775 18.4035C9.14591 18.8383 9.40413 19.1928 9.79653 19.4026C11.0772 20.0802 12.6297 19.998 13.8478 19.1877L15.3094 18.2161C15.8794 17.8372 16.6161 17.9101 17.1007 18.3934L20.9489 22.2304C20.953 22.2348 20.9567 22.2395 20.961 22.2438L21.4832 22.7632L21.5891 22.8688C21.9331 23.2143 21.9332 23.5593 21.8722 23.7884H21.8719ZM23.92 22.5874C23.3709 22.8306 22.7661 22.7187 22.3415 22.2954L17.7624 17.7297C16.9584 16.9277 15.7362 16.8066 14.7902 17.4354L13.3284 18.407C12.3968 19.0268 11.2114 19.0907 10.2365 18.5749C10.0983 18.501 10.0177 18.3907 9.99019 18.2377C9.96247 18.0835 9.9995 17.9517 10.103 17.8352L13.1505 14.4148C13.4671 14.6016 13.8022 14.7693 14.1576 14.9143L14.8219 15.1867C14.879 15.2101 14.9394 15.2217 14.9998 15.2217C15.0602 15.2217 15.1206 15.2101 15.1776 15.1867L15.8413 14.9145C16.6003 14.6046 17.2689 14.1936 17.8551 13.7059L19.7206 14.6437C20.2204 14.8947 20.7314 15.0203 21.249 15.0203C21.6413 15.0203 22.0374 14.9481 22.4349 14.8037L22.5608 14.7583L24.3548 22.3957L23.9199 22.5873L23.92 22.5874ZM28.2434 22.3709C28.1899 22.457 28.1072 22.5169 28.0103 22.5397L25.856 23.0463C25.658 23.0927 25.4516 22.9643 25.4049 22.7659L23.0863 12.895C23.0636 12.7984 23.0805 12.6977 23.1341 12.6115C23.1873 12.5258 23.2694 12.4664 23.3668 12.4439L25.521 11.9373C25.5492 11.9306 25.5778 11.9274 25.6061 11.9274C25.675 11.9274 25.7431 11.9467 25.8038 11.9843C25.8895 12.0374 25.9493 12.1202 25.9721 12.2174L28.2908 22.0885C28.3135 22.1848 28.2966 22.2851 28.2434 22.3709V22.3709ZM14.8224 13.2885C14.8793 13.3118 14.9396 13.3234 14.9998 13.3234C15.0601 13.3234 15.1205 13.3117 15.1774 13.2884C17.3472 12.4005 19.6657 9.70397 19.6657 4.79926C19.6657 4.59782 19.5369 4.41887 19.3458 4.35483L15.1488 2.94805C15.0521 2.91565 14.9475 2.91565 14.8508 2.94805L10.6538 4.35483C10.4627 4.41887 10.334 4.59782 10.334 4.79926C10.334 9.70497 12.6525 12.4011 14.8224 13.2885H14.8224ZM14.9998 3.8869L18.7243 5.13524C18.6285 9.22631 16.7865 11.5178 14.9998 12.3435C13.2131 11.5184 11.3712 9.22707 11.2754 5.13524L14.9998 3.8869ZM13.5271 8.65649C13.3406 8.47696 13.3349 8.18024 13.5144 7.99368C13.694 7.80717 13.9907 7.80149 14.1772 7.98096L14.6241 8.41098L15.801 7.1194C15.9754 6.92803 16.2718 6.91426 16.4633 7.08864C16.6546 7.26301 16.6684 7.5595 16.494 7.75086L14.9925 9.39846C14.9073 9.49198 14.7878 9.54706 14.6614 9.55122C14.6563 9.55139 14.6511 9.55145 14.646 9.55145C14.5251 9.55145 14.4084 9.50463 14.321 9.42043L13.5271 8.65649Z" fill="white"/>
</svg>
