<svg width="44" height="44" viewBox="0 0 44 44" fill="none" xmlns="http://www.w3.org/2000/svg">
<path d="M26.1001 25.1C28.3001 23.8 29.8001 21.4 29.8001 18.6C29.8001 14.4 26.4001 11 22.2001 11C18.0001 11 14.6001 14.4 14.6001 18.6C14.6001 21.4 16.1001 23.8 18.3001 25.1C14.3001 26.4 11.2001 29.5 10.4001 33.4C10.2001 34.6 10.7001 35.8 11.8001 36.4C14.6001 37.9 19.1001 38 22.1001 38C25.1001 38 29.7001 37.9 32.4001 36.4C33.5001 35.8 34.1001 34.6 33.8001 33.4C33.2001 29.5 30.2001 26.4 26.1001 25.1ZM16.6001 18.6C16.6001 15.5 19.1001 13 22.2001 13C25.3001 13 27.8001 15.5 27.8001 18.6C27.8001 21.7 25.3001 24.2 22.2001 24.2C19.1001 24.2 16.6001 21.7 16.6001 18.6ZM31.6001 34.7C29.1001 36 24.3001 36 22.2001 36C20.1001 36 15.3001 36 12.8001 34.7C12.5001 34.5 12.3001 34.2 12.4001 33.8C13.2001 29.6 17.4001 26.5 22.2001 26.5C27.0001 26.5 31.2001 29.6 32.0001 33.8C32.1001 34.1 31.9001 34.5 31.6001 34.7Z" fill="white"/>
<path d="M42 28.4C41.2 24.5 38.2 21.4 34.1 20.1C36.3 18.8 37.8 16.4 37.8 13.6C37.8 9.4 34.4 6 30.2 6C27.8 6 25.7 7.1 24.3 8.8C24.1 9 24 9.2 24 9.5C24 10.1 24.4 10.5 25 10.5C25.3 10.5 25.5 10.4 25.7 10.2L26 9.9C27 8.8 28.5 8.1 30.1 8.1C33.2 8.1 35.7 10.6 35.7 13.7C35.7 16.2 34 18.4 31.7 19.1C31.7 19.1 31.6 19.1 31.4 19.1C30.7 19.2 30.2 19.7 30.2 20.4C30.2 21.1 30.7 21.6 31.4 21.7C35.7 22.2 39.1 25.1 39.9 28.9C40 29.2 39.8 29.6 39.5 29.8C38.5 30.3 37.1 30.7 35.7 30.8C35.2 30.8 34.8 31.3 34.8 31.8C34.8 32.4 35.2 32.8 35.8 32.8H35.9H36.2C37.8 32.6 39.3 32.2 40.5 31.6C41.6 30.9 42.2 29.6 42 28.4Z" fill="white"/>
<path d="M8.20018 30.7C6.80018 30.5 5.40018 30.2 4.40018 29.7C4.10018 29.5 3.90018 29.2 4.00018 28.8C4.80018 25 8.20018 22.1 12.5002 21.6C13.2002 21.5 13.7002 21 13.7002 20.3C13.7002 19.6 13.2002 19.1 12.5002 19C12.3002 19 12.2002 19 12.2002 19C9.90018 18.3 8.20018 16.2 8.20018 13.6C8.20018 10.5 10.7002 8 13.8002 8C15.4002 8 16.9002 8.7 17.9002 9.8L18.2002 10.1C18.4002 10.3 18.6002 10.4 18.9002 10.4C19.5002 10.4 19.9002 10 19.9002 9.4C19.9002 9.1 19.8002 8.9 19.6002 8.7C18.3002 7.1 16.1002 6 13.8002 6C9.60018 6 6.20018 9.4 6.20018 13.6C6.20018 16.4 7.70018 18.8 9.90018 20.1C5.90018 21.4 2.80018 24.5 2.00018 28.4C1.80018 29.6 2.30018 30.8 3.40018 31.4C4.60018 32 6.10018 32.4 7.70018 32.6H8.00018H8.10018C8.70018 32.6 9.10018 32.2 9.10018 31.6C9.10018 31.2 8.70018 30.7 8.20018 30.7Z" fill="white"/>
</svg>
