<svg width="33" height="33" viewBox="0 0 33 33" fill="none" xmlns="http://www.w3.org/2000/svg">
<g clip-path="url(#clip0_512_2355)">
<path d="M31.5091 10.7656L30.415 10.9994L31.2049 14.7056L32.148 13.7631L31.5091 10.7656Z" fill="#C7C7C5"/>
<path d="M11.1869 32.7212L0 21.5343L21.255 0.279297L31.3232 1.39798L32.4419 11.4662L11.1869 32.7212Z" fill="#FFB531"/>
<path d="M32.4415 11.4662L31.3228 1.39806L28.7235 1.10938C25.8233 15.4201 10.7904 22.271 3.2666 24.8014L11.1864 32.7213L32.4415 11.4662Z" fill="#FFA912"/>
<path d="M29.086 4.75345C29.086 5.37124 28.5851 5.87214 27.9673 5.87214C27.3495 5.87214 26.8486 5.37124 26.8486 4.75345C26.8486 4.13566 27.3495 3.63477 27.9673 3.63477C28.5851 3.63477 29.086 4.13566 29.086 4.75345Z" fill="#E8770C"/>
<path d="M3.52051 21.4736L7.15596 17.8379L7.94691 18.6291L4.31145 22.2646L3.52051 21.4736Z" fill="#F98500"/>
<path d="M5.25391 23.208L8.88964 19.5723L9.68058 20.3635L6.04513 23.9989L5.25391 23.208Z" fill="#F98500"/>
<path d="M6.9873 24.9401L10.623 21.3047L11.414 22.0956L7.77852 25.7314L6.9873 24.9401Z" fill="#F98500"/>
<path d="M8.72168 26.6745L12.3574 23.0391L13.1484 23.83L9.5129 27.4657L8.72168 26.6745Z" fill="#F98500"/>
<path d="M10.4561 28.4089L14.0918 24.7734L14.8827 25.5644L11.2473 29.1998L10.4561 28.4089Z" fill="#F98500"/>
<path d="M14.543 10.3473L20.1364 4.75391L27.9672 12.5847L22.3738 18.1781L14.543 10.3473Z" fill="#FFCB73"/>
<path d="M30.9758 30.6952L25.7298 25.4492L24.0518 27.1272L29.2978 32.3733C29.7613 32.8368 30.5126 32.8368 30.9758 32.3733C31.4393 31.9098 31.4393 31.1587 30.9758 30.6952Z" fill="#348FD9"/>
<path d="M27.6405 27.3599L25.7298 25.4492L24.0518 27.1272L26.0425 29.118C26.6554 28.6103 27.1934 28.0182 27.6405 27.3599Z" fill="#2D7DBF"/>
<path d="M27.9668 21.5347C27.9668 26.1684 24.2104 29.9248 19.5767 29.9248C14.943 29.9248 11.1865 26.1684 11.1865 21.5347C11.1865 16.901 14.943 13.1445 19.5767 13.1445C24.2104 13.1445 27.9668 16.901 27.9668 21.5347Z" fill="#348FD9"/>
<path d="M25.7294 21.5336C25.7294 24.9317 22.9747 27.6864 19.5766 27.6864C16.1785 27.6864 13.4238 24.9317 13.4238 21.5336C13.4238 18.1355 16.1785 15.3809 19.5766 15.3809C22.9747 15.3809 25.7294 18.1355 25.7294 21.5336Z" fill="#5AC6D4"/>
<path d="M24.6111 21.5341C24.6111 24.3141 22.3574 26.5682 19.5771 26.5682C16.7967 26.5682 14.543 24.3141 14.543 21.5341C14.543 18.7538 16.7967 16.5 19.5771 16.5C22.3574 16.5 24.6111 18.7538 24.6111 21.5341Z" fill="#60D1E0"/>
<path d="M20.1366 20.974H19.0179C18.709 20.974 18.4585 20.7235 18.4585 20.4147V19.8553C18.4585 19.5464 18.709 19.296 19.0179 19.296H20.1366C20.4455 19.296 20.6959 19.5464 20.6959 19.8553H21.8146C21.8146 18.9286 21.0632 18.1773 20.1366 18.1773V17.0586H19.0179V18.1773C18.0912 18.1773 17.3398 18.9286 17.3398 19.8553V20.4147C17.3398 21.3413 18.0912 22.0927 19.0179 22.0927H20.1366C20.4455 22.0927 20.6959 22.3431 20.6959 22.652V23.2114C20.6959 23.5203 20.4455 23.7707 20.1366 23.7707H19.0179C18.709 23.7707 18.4585 23.5203 18.4585 23.2114H17.3398C17.3398 24.1381 18.0912 24.8894 19.0179 24.8894V26.0081H20.1366V24.8894C21.0632 24.8894 21.8146 24.1381 21.8146 23.2114V22.652C21.8146 21.7253 21.0632 20.974 20.1366 20.974Z" fill="#F35244"/>
<path d="M13.4242 12.5848H9.50883L10.0682 15.3816L6.15277 12.5848H2.23737C1.00179 12.5848 0 11.583 0 10.3475V2.51667C0 1.28082 1.00179 0.279297 2.23737 0.279297H13.4242C14.6598 0.279297 15.6616 1.28082 15.6616 2.51667V10.3475C15.6616 11.583 14.6598 12.5848 13.4242 12.5848Z" fill="#60D1E0"/>
<path d="M14.5163 0.574219C11.0674 6.59289 4.52571 10.0781 0.543945 11.7936C0.964818 12.2931 1.58425 12.5821 2.23754 12.584H6.15294L10.0683 15.3807L9.509 12.584H13.4244C14.66 12.584 15.6618 11.5822 15.6618 10.3466V2.51581C15.6599 1.70875 15.2215 0.966141 14.5163 0.574219Z" fill="#5AC6D4"/>
<path d="M13.9833 10.9058H2.23708C1.92818 10.9058 1.67773 10.6553 1.67773 10.3464V2.51562H2.79642V9.78708H13.9833V10.9058Z" fill="#3FB7C7"/>
<path d="M10.6275 8.66959C10.4618 8.66959 10.3042 8.59613 10.1979 8.46885L7.88054 5.68771L6.05885 8.42051C5.95862 8.571 5.79202 8.66359 5.61149 8.66959C5.43068 8.67069 5.25971 8.58793 5.14828 8.44591L3.91543 6.8053L2.68477 8.44591L1.79004 7.77459L3.46807 5.53722C3.57813 5.40339 3.74228 5.32583 3.91543 5.32583C4.08859 5.32583 4.25273 5.40339 4.3628 5.53722L5.5667 7.1426L7.36544 4.44366C7.46322 4.297 7.62463 4.20496 7.80079 4.1954C7.97695 4.18584 8.14738 4.26013 8.26045 4.39559L10.5347 7.12512L12.9354 2.80469L13.9131 3.34737L11.1164 8.38146C11.0268 8.54259 10.8638 8.64938 10.6803 8.66686C10.6628 8.66877 10.645 8.66959 10.6275 8.66959Z" fill="#F35244"/>
<path d="M32.1484 13.7624L31.2053 14.7049L31.8676 17.8138C31.9212 18.091 31.819 18.3756 31.6008 18.5553C31.3828 18.7348 31.0838 18.7806 30.8219 18.6749C30.5599 18.569 30.377 18.3284 30.345 18.0476L28.4146 4.94319C28.3884 4.74299 28.2559 4.57257 28.0686 4.49719C27.8809 4.42208 27.6674 4.45376 27.5101 4.58022C27.3525 4.70667 27.2754 4.90823 27.3082 5.1076L29.2353 18.1962C29.3197 18.8844 29.7745 19.4711 30.4198 19.7245C31.0652 19.978 31.7977 19.8578 32.3281 19.411C32.8582 18.9642 33.1013 18.2628 32.9612 17.5838L32.1484 13.7624Z" fill="#D6D6D4"/>
</g>
<defs>
<clipPath id="clip0_512_2355">
<rect width="33" height="33" fill="white"/>
</clipPath>
</defs>
</svg>
