<svg width="37" height="37" viewBox="0 0 37 37" fill="none" xmlns="http://www.w3.org/2000/svg">
<g clip-path="url(#clip0_548_2776)">
<path d="M36.4732 9.71623C36.4732 9.71623 36.4732 9.71623 36.4731 9.71623L36.4719 9.715L34.0836 9.37426C33.748 9.32645 33.5146 9.01557 33.5624 8.6799C33.5853 8.51858 33.6715 8.37308 33.8018 8.27531L35.7321 6.82763C36.0033 6.62419 36.0583 6.2394 35.8548 5.96811L33.6447 3.02119C33.4412 2.7499 33.0564 2.69496 32.7851 2.8984L30.8555 4.34608C30.5854 4.55106 30.2003 4.49826 29.9953 4.22812C29.8958 4.09697 29.8531 3.93128 29.8769 3.76836L30.2182 1.38012C30.2664 1.04445 30.0333 0.73341 29.6977 0.685215C29.6975 0.685215 29.6972 0.685139 29.697 0.685139L26.0526 0.164516C25.717 0.116321 25.4059 0.349312 25.3577 0.684985C25.3577 0.685062 25.3577 0.685062 25.3577 0.685139L25.0163 3.07337C24.9685 3.40905 24.6576 3.64242 24.3219 3.59461C24.1606 3.57167 24.0151 3.48548 23.9174 3.35517L22.4703 1.42494C22.2668 1.15365 21.8821 1.09871 21.6108 1.30215L19.7659 2.68659C18.9312 2.59788 18.0895 2.59788 17.2549 2.68659C11.7888 3.31135 7.5023 7.6705 6.96947 13.1463C6.9529 13.3201 6.94676 13.4926 6.93816 13.6651H6.75398C6.46267 13.6656 6.21179 13.8709 6.15354 14.1563L5.72931 16.1737L4.02992 15.0017C3.78603 14.8334 3.45665 14.8634 3.24714 15.0729L1.40532 16.9147C1.19611 17.1241 1.16619 17.4531 1.3341 17.6969L2.50059 19.3932L0.48256 19.8174C0.2003 19.8793 -0.000612539 20.1295 1.40319e-06 20.4185V22.8742C-0.000152082 23.1646 0.203293 23.4154 0.487472 23.4753L2.5055 23.8995L1.33901 25.5958C1.1711 25.8397 1.20103 26.1686 1.41023 26.378L3.25205 28.2198C3.46156 28.4293 3.79094 28.4594 4.03483 28.2911L5.73115 27.1215L6.15539 29.1395C6.21363 29.4249 6.46451 29.6301 6.75582 29.6307H9.21159C9.50199 29.6308 9.75278 29.4274 9.81264 29.1432L10.2369 27.1252L11.9332 28.2917C12.177 28.4596 12.5059 28.4297 12.7154 28.2205L13.6688 27.2639V29.0137C13.6716 29.8871 14.1395 30.6928 14.8967 31.1281V34.5391C14.8967 35.8954 15.9962 36.9949 17.3525 36.9949H19.8082C21.1645 36.9949 22.264 35.8954 22.264 34.5391V31.1281C23.0212 30.6928 23.4891 29.8871 23.4919 29.0137V26.5837C23.5085 25.5612 24.0434 24.6173 24.9119 24.0776C25.4214 23.747 25.9046 23.3775 26.3572 22.9725L25.5382 22.0577C25.1333 22.4205 24.7008 22.7512 24.2446 23.0468C23.0255 23.8119 22.2793 25.1444 22.264 26.5837V29.0137C22.264 29.6918 21.7143 30.2416 21.0361 30.2416H16.1246C15.4464 30.2416 14.8967 29.6918 14.8967 29.0137V26.5327C14.8825 25.1207 14.148 23.8139 12.9493 23.0676C8.08324 20.01 6.61715 13.5868 9.67474 8.72072C11.5718 5.70158 14.8827 3.86398 18.4484 3.85124C18.4392 3.87311 18.4312 3.89544 18.4244 3.91816C18.4016 4.07932 18.4438 4.24301 18.5417 4.37309L19.9887 6.30271C20.1413 6.50017 20.156 6.77138 20.0256 6.98419C19.9 7.1983 19.6573 7.3151 19.4116 7.27949L17.0234 6.93814C16.6877 6.89002 16.3767 7.12309 16.3285 7.45869C16.3285 7.45892 16.3284 7.45915 16.3284 7.45938L15.8072 11.1056C15.7591 11.4412 15.9921 11.7523 16.3277 11.8005C16.328 11.8005 16.3282 11.8006 16.3284 11.8006L18.7166 12.1419C19.0523 12.1897 19.2857 12.5006 19.2379 12.8363C19.2149 12.9976 19.1288 13.1431 18.9984 13.2409L17.0688 14.6879C16.7975 14.8914 16.7426 15.2762 16.946 15.5475L19.1562 18.4944C19.3597 18.7657 19.7445 18.8206 20.0158 18.6172L21.946 17.1701C22.2175 16.967 22.6023 17.0225 22.8053 17.2941C22.9025 17.424 22.9443 17.5872 22.9215 17.7478L22.5808 20.1361C22.5326 20.4717 22.7656 20.7828 23.1013 20.831C23.1013 20.831 23.1013 20.831 23.1014 20.831L26.7482 21.3523C26.7769 21.356 26.8059 21.3578 26.8348 21.3578C27.1405 21.3582 27.3998 21.1336 27.4432 20.831L27.784 18.4428C27.8318 18.1071 28.1427 17.8738 28.4783 17.9216C28.6396 17.9445 28.7851 18.0307 28.8829 18.161L30.3306 20.0906C30.534 20.3619 30.9188 20.4169 31.1901 20.2134L34.137 18.0032C34.4083 17.7998 34.4633 17.415 34.2598 17.1437L32.8128 15.2141C32.6609 15.0163 32.6462 14.7456 32.7759 14.5326C32.8988 14.3157 33.1438 14.1981 33.3899 14.2379L35.7781 14.5787C36.1137 14.6268 36.4249 14.3938 36.4731 14.0582C36.4731 14.0581 36.4731 14.0581 36.4731 14.058L36.9937 10.4112C37.0419 10.0755 36.8089 9.76442 36.4732 9.71623ZM16.1246 31.4694H21.0361V32.6973H16.1246V31.4694ZM16.1246 33.9252H21.0361V34.5391C21.0361 35.2173 20.4864 35.767 19.8082 35.767H17.3525C16.6743 35.767 16.1246 35.2173 16.1246 34.5391V33.9252ZM11.237 23.3378C11.5722 23.6119 11.9225 23.8671 12.2862 24.1021C12.8663 24.4687 13.303 25.0233 13.5233 25.6732L12.2064 26.9877L10.9312 26.1085C10.3729 25.7237 9.60828 25.8645 9.22341 26.4228C9.13117 26.5567 9.06639 26.7076 9.03294 26.8667L8.71123 28.3997H7.25189L6.93018 26.8692C6.79051 26.2056 6.13935 25.7808 5.47575 25.9205C5.31666 25.9539 5.16579 26.0187 5.03187 26.1109L3.7561 26.9877L2.6375 25.8715L3.51605 24.597C3.90122 24.0388 3.76094 23.2742 3.20279 22.889C3.06879 22.7965 2.91776 22.7316 2.75844 22.698L1.22789 22.3757V20.917L2.75844 20.5947C3.42181 20.454 3.84558 19.8022 3.70491 19.1388C3.67153 18.9814 3.6076 18.8321 3.51666 18.6994L2.6375 17.4212L3.7561 16.3051L5.03249 17.1842C5.5911 17.5686 6.35569 17.4274 6.74009 16.8688C6.83218 16.735 6.8968 16.5843 6.93018 16.4254L7.03762 15.9146C7.13601 16.622 7.29893 17.3188 7.52448 17.9965C5.50438 18.2373 4.062 20.0702 4.30282 22.0903C4.54364 24.1104 6.37656 25.5528 8.39666 25.312C9.61273 25.1669 10.6772 24.4271 11.237 23.3378ZM10.2835 22.4727C9.82507 23.747 8.42045 24.4084 7.14614 23.95C5.87182 23.4916 5.21045 22.0869 5.66884 20.8126C6.01955 19.8378 6.94515 19.1884 7.98117 19.1906C7.98916 19.1906 7.99652 19.1906 8.0045 19.1906C8.5691 20.408 9.34014 21.5184 10.2835 22.4727ZM35.341 13.2746L33.5605 13.0205C32.5535 12.8767 31.6206 13.5765 31.4768 14.5834C31.4078 15.067 31.5336 15.5582 31.8268 15.949L32.9055 17.3874L30.9409 18.8609L29.8615 17.423C29.2513 16.6092 28.0968 16.4441 27.2831 17.0544C26.8923 17.3474 26.6339 17.7837 26.5647 18.2672L26.316 20.0501L23.8854 19.7026L24.1396 17.9222C24.2838 16.9152 23.5844 15.982 22.5774 15.8379C22.0936 15.7686 21.6021 15.8945 21.2111 16.1878L19.7726 17.2665L18.2992 15.3019L19.737 14.2226C20.5509 13.6123 20.716 12.4579 20.1057 11.6441C19.8127 11.2533 19.3764 10.9949 18.8928 10.9257L17.1124 10.6715L17.4599 8.24093L19.2403 8.4951C20.2473 8.6393 21.1805 7.93986 21.3246 6.93292C21.3939 6.44906 21.268 5.9576 20.9747 5.56659L19.8923 4.1269L21.857 2.65344L22.9363 4.0919C23.5465 4.90576 24.701 5.07084 25.5148 4.46058C25.9055 4.16757 26.1639 3.73129 26.2331 3.24773L26.4873 1.4673L28.9179 1.81418L28.6637 3.59461C28.5199 4.60163 29.2197 5.53452 30.2267 5.67833C30.7102 5.7474 31.2015 5.62154 31.5922 5.32838L33.0307 4.24969L34.5042 6.2143L33.0657 7.29361C32.2519 7.90387 32.0868 9.05831 32.697 9.8721C32.99 10.2629 33.4263 10.5213 33.9099 10.5905L35.6903 10.8447L35.341 13.2746Z" fill="white"/>
<path d="M26.3993 5.8457C23.6868 5.8457 21.4878 8.04469 21.4878 10.7572C21.4878 13.4698 23.6868 15.6688 26.3993 15.6688C29.1119 15.6688 31.3109 13.4698 31.3109 10.7572C31.3078 8.04592 29.1107 5.8487 26.3993 5.8457ZM26.3993 14.4409C24.3649 14.4409 22.7157 12.7917 22.7157 10.7572C22.7157 8.72279 24.3649 7.07359 26.3993 7.07359C28.4338 7.07359 30.083 8.72279 30.083 10.7572C30.0806 12.7907 28.4328 14.4385 26.3993 14.4409Z" fill="white"/>
<path d="M19.1942 27.1719H17.9663V29.0137H19.1942V27.1719Z" fill="white"/>
<path d="M15.895 21.1419C12.105 19.6614 10.2329 15.3888 11.7135 11.5988C12.2872 10.1303 13.3169 8.88452 14.6511 8.04465L13.9948 7.00586C9.97842 9.53615 8.77363 14.8433 11.3039 18.8597C12.2838 20.4152 13.7367 21.6155 15.4493 22.2844C16.9651 22.8652 17.966 24.3203 17.9664 25.9435H19.1943C19.1962 23.8138 17.8838 21.9037 15.895 21.1419Z" fill="white"/>
<path d="M34.5427 22.873H30.2451V24.1009H34.5427V22.873Z" fill="white"/>
<path d="M30.0243 26.0859L29.2383 27.0293L32.9222 30.0985L33.7082 29.1551L30.0243 26.0859Z" fill="white"/>
<path d="M27.7894 27.7852H26.5615V32.0828H27.7894V27.7852Z" fill="white"/>
<path d="M5.53815 9.38366L0.626953 10.6113L0.924566 11.8019L5.83576 10.5742L5.53815 9.38366Z" fill="white"/>
<path d="M2.36026 3.34512L1.64697 4.34375L5.94423 7.41314L6.65752 6.41451L2.36026 3.34512Z" fill="white"/>
<path d="M8.0968 0.00444674L6.90723 0.308594L8.1629 5.21975L9.35247 4.91561L8.0968 0.00444674Z" fill="white"/>
</g>
<defs>
<clipPath id="clip0_548_2776">
<rect width="37" height="37" fill="white"/>
</clipPath>
</defs>
</svg>
