<svg width="32" height="32" viewBox="0 0 32 32" fill="none" xmlns="http://www.w3.org/2000/svg">
<g clip-path="url(#clip0_512_2320)">
<path d="M25.1426 0.941406L27.2769 7.09059L25.1426 12.7645C21.884 12.7639 19.2339 10.1127 19.2339 6.85266C19.2339 3.59328 21.884 0.942031 25.1426 0.941406Z" fill="#8AE62E"/>
<path d="M31.0519 6.85266C31.0519 10.1127 28.4012 12.7645 25.1432 12.7645H25.1426V0.941406H25.1432C28.4011 0.941406 31.0519 3.59328 31.0519 6.85266Z" fill="#53B324"/>
<path d="M25.143 1.875L25.7487 0.94125L25.143 0C21.3658 0.000625 18.2935 3.07437 18.2935 6.8525C18.2935 10.6313 21.3659 13.705 25.143 13.7056L25.9421 12.7102L25.143 11.8306C22.3991 11.83 20.1676 9.5975 20.1676 6.8525C20.1676 4.10812 22.3991 1.87563 25.143 1.875Z" fill="#BBFF33"/>
<path d="M25.1425 3.82812L25.9416 6.97294L25.1425 9.87625C24.6246 9.87563 24.2061 9.45625 24.2061 8.93875V7.78938H23.0572C22.5399 7.78938 22.1201 7.37 22.1201 6.85188C22.1201 6.33438 22.5399 5.91438 23.0572 5.91438H24.2061V4.76563C24.2061 4.2475 24.6246 3.82875 25.1425 3.82812Z" fill="#E6F2F2"/>
<path d="M16.0069 14.8438L17.4604 18.0726L16.0069 20.6388H4.7124L8.7244 14.8438H16.0069Z" fill="#E6F2F2"/>
<path d="M24.0033 20.6388H16.0068V14.8438H19.3872L24.0033 20.6388Z" fill="#B9D9D9"/>
<path d="M16.0067 13.875L17.0088 14.7305L16.0067 15.75H14.5455V20.5931C14.5455 21.1106 14.1257 21.5306 13.6084 21.5306C13.0912 21.5306 12.6714 21.1106 12.6714 20.5931V15.75H8.94425L5.50888 21.2731C5.33081 21.5581 5.02531 21.715 4.71238 21.715C4.54306 21.715 4.37188 21.6694 4.21756 21.5731C3.77838 21.3 3.64406 20.7219 3.91769 20.2819L7.62856 14.3169C7.79912 14.0419 8.10025 13.875 8.42381 13.875H16.0067Z" fill="#E62E6B"/>
<path d="M24.6243 21.5306C24.2083 21.8388 23.6216 21.7519 23.313 21.3362L19.1723 15.75H16.0068V13.875H19.644C19.9408 13.875 20.22 14.0156 20.3968 14.2537L24.8186 20.2187C25.1266 20.635 25.0398 21.2219 24.6243 21.5306Z" fill="#B32453"/>
<path d="M0.964772 19.8398H16.007L19.0926 24.7241L16.007 28.3611H0.937272C0.432522 28.3711 -0.0110405 27.9248 0.000209456 27.4205L0.0277095 20.7742C0.029522 20.2573 0.448709 19.8398 0.964772 19.8398Z" fill="#FF6666"/>
<path d="M31.9998 23.8255V27.5836C31.9236 28.0248 31.5394 28.3611 31.0765 28.3611H16.0068V19.8398H24.0658C24.1533 19.8386 28.3408 20.183 28.4327 20.188C30.3624 20.3873 31.8436 21.9236 31.9998 23.8255Z" fill="#E62E6B"/>
<path d="M16.0068 23.1641L16.6398 24.1016L16.0068 25.0391H14.9678C14.4499 25.0391 14.0308 24.6197 14.0308 24.1016C14.0308 23.5841 14.4499 23.1641 14.9678 23.1641H16.0068Z" fill="#E62E6B"/>
<path d="M6.96299 31.0278C8.43383 31.0278 9.62618 29.835 9.62618 28.3635C9.62618 26.8921 8.43383 25.6992 6.96299 25.6992C5.49215 25.6992 4.2998 26.8921 4.2998 28.3635C4.2998 29.835 5.49215 31.0278 6.96299 31.0278Z" fill="#E6F2F2"/>
<path d="M6.96277 31.9991C4.95809 31.9991 3.32715 30.3675 3.32715 28.3619C3.32715 26.3562 4.95809 24.7246 6.96277 24.7246C8.96746 24.7246 10.5984 26.3562 10.5984 28.3619C10.5984 30.3675 8.96746 31.9991 6.96277 31.9991ZM6.96277 26.5996C5.99146 26.5996 5.20127 27.3901 5.20127 28.3619C5.20127 29.3336 5.99146 30.1241 6.96277 30.1241C7.93409 30.1241 8.72427 29.3336 8.72427 28.3619C8.72427 27.3901 7.93402 26.5996 6.96277 26.5996Z" fill="#4D628C"/>
<path d="M25.003 31.0278C26.4739 31.0278 27.6662 29.835 27.6662 28.3635C27.6662 26.8921 26.4739 25.6992 25.003 25.6992C23.5322 25.6992 22.3398 26.8921 22.3398 28.3635C22.3398 29.835 23.5322 31.0278 25.003 31.0278Z" fill="#B9D9D9"/>
<path d="M25.0278 31.9991C23.023 31.9991 21.3921 30.3675 21.3921 28.3619C21.3921 26.3562 23.023 24.7246 25.0278 24.7246C27.0325 24.7246 28.6635 26.3562 28.6635 28.3619C28.6635 30.3675 27.0325 31.9991 25.0278 31.9991ZM25.0278 26.5996C24.0565 26.5996 23.2663 27.3901 23.2663 28.3619C23.2663 29.3336 24.0565 30.1241 25.0278 30.1241C25.9991 30.1241 26.7893 29.3336 26.7893 28.3619C26.7893 27.3901 25.9991 26.5996 25.0278 26.5996Z" fill="#283D66"/>
<path d="M18.011 24.1016C18.011 24.6197 17.5918 25.0391 17.0739 25.0391H16.0068V23.1641H17.0739C17.5918 23.1641 18.011 23.5841 18.011 24.1016Z" fill="#B32453"/>
<path d="M7.95115 0L9.13815 3.0625L7.95115 6.14125C6.25627 6.14125 4.88184 4.76688 4.88184 3.07063C4.8819 1.375 6.25627 0 7.95115 0Z" fill="#FFCCBD"/>
<path d="M7.95095 6.14069L9.82513 9.31194L7.95095 11.9994H3.56101C3.00001 11.9994 2.56707 11.5094 2.63013 10.9519C2.93001 8.28819 5.15032 6.12694 7.95095 6.14069Z" fill="#9580FF"/>
<path d="M11.0205 3.07063C11.0205 4.76688 9.64611 6.14125 7.95117 6.14125V0C9.64605 0 11.0205 1.375 11.0205 3.07063Z" fill="#FFA68C"/>
<path d="M12.3411 11.9994H7.95117V6.14069C10.7518 6.12694 12.9721 8.28819 13.272 10.9519C13.335 11.5094 12.9021 11.9994 12.3411 11.9994Z" fill="#884DFF"/>
<path d="M28.1656 6.85188C28.1656 7.37 27.7464 7.78938 27.2285 7.78938H26.0803V8.93875C26.0803 9.45625 25.6605 9.87625 25.1432 9.87625H25.1426V3.82812H25.1432C25.6605 3.82812 26.0803 4.2475 26.0803 4.76563V5.91438H27.2285C27.7464 5.91438 28.1656 6.33438 28.1656 6.85188Z" fill="#B9D9D9"/>
<path d="M31.9927 6.8525C31.9927 10.6313 28.9196 13.7056 25.1432 13.7056H25.1426V11.8306H25.1432C27.8864 11.8306 30.1185 9.5975 30.1185 6.8525C30.1185 4.10812 27.8864 1.875 25.1432 1.875H25.1426V0H25.1432C28.9197 0 31.9927 3.07437 31.9927 6.8525Z" fill="#8AE62E"/>
</g>
<defs>
<clipPath id="clip0_512_2320">
<rect width="32" height="32" fill="white"/>
</clipPath>
</defs>
</svg>
