<svg width="46" height="46" viewBox="0 0 46 46" fill="none" xmlns="http://www.w3.org/2000/svg">
<path d="M24.0755 6.38285C25.0045 4.64529 27.0162 3.93087 29.1919 4.00523C30.9888 4.06666 30.8611 4.82032 31.7182 5.33601C32.5457 5.83392 33.1347 5.51833 33.7286 6.21512C35.2887 8.04561 35.9668 10.3191 34.9601 12.2021C33.6454 14.6613 30.143 15.3522 27.1373 13.7452C24.1316 12.1382 22.7608 8.84206 24.0755 6.38285Z" fill="#DF8A57"/>
<path d="M35.4597 19.1194C35.4597 23.4879 33.0828 27.3007 29.5517 29.3348C5.64569 23.1645 21.7623 7.49348 21.7623 7.49348C22.386 7.39137 23.0261 7.33847 23.678 7.33847C25.0505 7.33847 26.531 7.25797 27.5935 8.00462C28.3632 8.5456 28.6628 9.10139 29.3691 9.53578C30.1291 10.0044 31.1007 9.96345 31.945 10.7257C34.2056 12.7658 35.4597 15.8342 35.4597 19.1194Z" fill="#EAAA83"/>
<path d="M29.5518 29.3355C27.8224 30.3316 25.8166 30.9017 23.6781 30.9017C17.1711 30.9017 11.8965 25.6271 11.8965 19.12C11.8965 13.2657 16.1667 8.4091 21.7624 7.49414C19.8907 10.8747 17.0295 19.611 29.5518 29.3355Z" fill="#DF8A57"/>
<path d="M33.1163 41.0014H30.9607L23.7831 39.2585L22.3182 39.6243L22.1505 39.666C21.6632 39.0894 21.2601 38.2675 21.1327 37.0969C21.0947 36.7459 21.0813 36.3637 21.0977 35.9472C21.1535 34.5316 21.5559 32.7217 22.5097 30.4081C22.591 30.3985 22.8467 30.3742 23.1087 30.3604C23.3315 30.3478 23.5566 30.3418 23.7831 30.3418C24.2935 30.3418 24.7949 30.3731 25.2874 30.4342C25.6659 30.4812 26.0392 30.5452 26.4066 30.6265L27.7806 31.6361H29.232C29.2849 31.6629 29.3378 31.6905 29.3907 31.7188C32.2281 33.2187 34.3092 35.8229 34.9664 38.9069C35.1982 39.9917 34.3003 41.0014 33.1163 41.0014Z" fill="#FFCBBE"/>
<path d="M23.1387 39.4195L22.3183 39.6244L22.1506 39.6661L16.6048 41.0013H14.4492C13.2652 41.0013 12.3674 39.9917 12.5991 38.9069C13.2563 35.8229 15.3374 33.2188 18.1748 31.7188C18.2277 31.6905 18.2806 31.6629 18.3335 31.6361H19.785L21.1589 30.6264C21.4935 30.5527 21.8333 30.493 22.1783 30.4469C22.3468 30.425 22.5036 30.4079 22.603 30.3984C22.3792 31.2379 22.1702 32.453 22.1522 32.6703C22.1412 32.6812 22.068 33.3715 22.059 33.4944C21.9597 34.8521 21.9719 36.2309 22.3437 37.5522C22.3437 37.5545 22.3444 37.5567 22.3452 37.559H22.3459C22.3459 37.559 22.3452 37.559 22.3459 37.5597C22.5746 38.4067 23.038 39.3188 23.1387 39.4195Z" fill="#FFBBAE"/>
<path d="M30.9608 40.9993H24.535C23.2042 40.8265 22.5835 40.2528 22.3183 39.6224C21.9204 38.6724 22.3325 37.592 22.3458 37.5577C22.3451 37.557 22.3458 37.557 22.3458 37.557L23.1088 30.3585C23.3316 30.3458 23.5566 30.3398 23.7831 30.3398C24.2935 30.3398 24.795 30.3711 25.2875 30.4323C25.666 30.4792 26.0393 30.5433 26.4067 30.6245L27.7806 31.6341H29.2321C29.285 31.6609 29.3379 31.6885 29.3908 31.7169V34.5192C29.3908 35.1197 29.6888 35.6749 30.1747 36.04C31.7528 37.2291 32.1149 39.3951 30.9608 40.9993Z" fill="#80E0B7"/>
<path d="M24.5343 40.9994H21.1613L20.6657 40.7572L19.9617 40.9994H16.6042C15.45 39.3952 15.8122 37.2291 17.3903 36.0399C17.8761 35.6749 18.1742 35.1197 18.1742 34.5192V31.7169C18.2271 31.6885 18.28 31.661 18.3329 31.6341H19.7843L21.1583 30.6245C21.4928 30.5507 21.8326 30.4911 22.1776 30.4449C22.3144 30.4272 22.5908 30.3965 22.603 30.3965C22.4839 30.7538 22.1889 32.2935 22.1515 32.6683C22.1406 32.6792 22.0675 33.3678 22.0584 33.4924C21.9592 34.8483 21.9717 36.2306 22.343 37.5503C22.343 37.5525 22.3438 37.5548 22.3445 37.557H22.3453C22.3453 37.557 22.3445 37.557 22.3453 37.5577C22.7137 38.9222 23.4305 40.1169 24.5343 40.9994Z" fill="#36D49B"/>
<path d="M21.1618 41.0008H19.9622C19.9879 40.8406 20.311 40.2408 20.2714 40.0836C20.2066 39.8928 20.2066 39.8928 19.7468 39.8533C18.9471 39.7844 18.2792 39.7065 17.8997 39.0553C17.4235 38.2409 17.7395 36.9943 17.7775 36.8543C17.858 36.557 18.1642 36.3804 18.4622 36.4609C18.7602 36.5414 18.9369 36.8476 18.8564 37.1456C18.7526 37.5385 18.6366 38.515 19.0299 38.6172C19.9983 38.862 20.9323 38.5512 21.3301 39.7267C21.4769 40.1603 21.3302 40.5992 21.1618 41.0008Z" fill="#77899B"/>
<path d="M27.0447 33.7082C27.0447 35.8772 25.2862 37.6349 23.1173 37.6349C22.6197 37.6349 22.3907 37.5589 22.3453 37.5589C22.2839 37.4975 21.5845 36.9462 21.098 35.9472C20.4856 34.691 20.2412 32.7716 22.1784 30.4469C22.4979 30.4055 22.7991 30.3768 23.109 30.3604C23.3318 30.3478 23.5569 30.3418 23.7833 30.3418C24.2937 30.3418 24.7952 30.3731 25.2877 30.4342C26.3406 31.1346 27.0447 32.3328 27.0447 33.7082Z" fill="#FFCBBE"/>
<path d="M22.6035 30.3965C22.0579 32.0333 21.729 35.707 22.3457 37.5569H22.3449L22.3442 37.5562C21.9105 37.4698 21.5022 37.3118 21.1327 37.095C19.9696 36.414 19.1895 35.1518 19.1895 33.7063C19.1895 32.9455 19.4055 32.2354 19.7803 31.6341H19.7848L21.1588 30.6245C21.4933 30.5507 21.8331 30.4911 22.1781 30.4449C22.3129 30.4275 22.5921 30.3965 22.6035 30.3965Z" fill="#FFBBAE"/>
<path d="M35.0039 22.2911V22.3038C35.0039 28.6022 29.9805 33.7084 23.7834 33.7084C23.0569 33.7084 22.3468 33.6384 21.6591 33.5042C21.6591 33.5042 21.6583 33.5042 21.6575 33.5034C21.5241 33.4357 10.8266 27.9278 16.3464 19.2794C20.0355 18.5894 23.1597 17.4099 25.0858 16.5679C26.2505 16.0583 27.5991 16.3362 28.476 17.2832C29.5885 18.4851 31.3998 20.0133 33.9116 20.7897C34.5524 20.9871 35.0031 21.5952 35.0039 22.2911Z" fill="#FFDDCF"/>
<path d="M21.6587 33.5021C16.4773 32.4932 12.5625 27.8617 12.5625 22.3017C12.5625 21.8762 12.5848 21.4559 12.6296 21.0424C12.7101 20.3011 13.2696 19.7184 13.9812 19.6357C14.7904 19.5426 15.5802 19.4204 16.3462 19.2773C15.4542 21.76 14.5005 27.5726 21.6587 33.5021Z" fill="#FFCBBE"/>
<path d="M18.116 25.2922C19.324 25.2922 20.3032 24.5124 20.3032 23.5504C20.3032 22.5884 19.324 21.8086 18.116 21.8086C16.908 21.8086 15.9287 22.5884 15.9287 23.5504C15.9287 24.5124 16.908 25.2922 18.116 25.2922Z" fill="#FFA1AC"/>
<path d="M29.9714 25.2922C31.1794 25.2922 32.1587 24.5124 32.1587 23.5504C32.1587 22.5884 31.1794 21.8086 29.9714 21.8086C28.7635 21.8086 27.7842 22.5884 27.7842 23.5504C27.7842 24.5124 28.7635 25.2922 29.9714 25.2922Z" fill="#FFA1AC"/>
<path d="M19.3909 22.4317C19.0822 22.4317 18.832 22.1815 18.832 21.8729V20.9788C18.832 20.6701 19.0822 20.4199 19.3909 20.4199C19.6995 20.4199 19.9497 20.6701 19.9497 20.9788V21.8729C19.9497 22.1815 19.6994 22.4317 19.3909 22.4317Z" fill="#334151"/>
<path d="M28.6965 22.4317C28.3879 22.4317 28.1377 22.1815 28.1377 21.8729V20.9788C28.1377 20.6701 28.3879 20.4199 28.6965 20.4199C29.0052 20.4199 29.2554 20.6701 29.2554 20.9788V21.8729C29.2554 22.1815 29.0052 22.4317 28.6965 22.4317Z" fill="#334151"/>
<path d="M24.0434 22.9637C23.4118 22.9637 22.8111 22.6902 22.3953 22.2132C22.1926 21.9805 22.2169 21.6274 22.4495 21.4247C22.6822 21.2219 23.0352 21.2461 23.238 21.4788C23.4413 21.7121 23.7349 21.846 24.0434 21.846C24.3519 21.846 24.6456 21.7121 24.8489 21.4788C25.0517 21.2461 25.4046 21.222 25.6374 21.4247C25.8701 21.6274 25.8943 21.9805 25.6915 22.2132C25.2759 22.6902 24.6751 22.9637 24.0434 22.9637Z" fill="#334151"/>
<path d="M7.88988 21.7969L12.0533 27.2605C12.0533 27.2605 11.7137 28.3457 12.472 29.7137C13.2302 31.0817 14.3335 31.3744 14.3335 31.3744L16.7568 37.7938C16.7568 37.7938 11.3983 37.1929 8.4709 31.9116C5.54348 26.6302 7.88988 21.7969 7.88988 21.7969Z" fill="#FD5C6F"/>
<path d="M13.7113 26.6777L13.4945 26.7969C11.5706 27.8535 9.14898 27.1538 8.08501 25.2344C7.02097 23.315 7.71768 20.9024 9.64154 19.8458L9.85834 19.7266L12.8656 22.9902L13.7113 26.6777Z" fill="#FF8A98"/>
<path d="M14.7515 24.2665L12.4611 20.1341C12.0295 19.3557 11.0473 19.072 10.2674 19.5005L9.8584 19.7253L13.7114 26.6765L14.1203 26.4518C14.9003 26.0232 15.1829 25.0449 14.7515 24.2665Z" fill="#FD5C6F"/>
<path d="M19.565 37.2402L19.349 37.3594C17.4251 38.4159 15.0035 37.7163 13.9395 35.7969C12.8755 33.8775 13.5722 31.4648 15.496 30.4083L15.7121 30.2891L18.9824 33.192L19.565 37.2402Z" fill="#FF8A98"/>
<path d="M20.606 34.829L18.3155 30.6966C17.8841 29.9182 16.902 29.6345 16.1218 30.063L15.7129 30.2878L19.5659 37.239L19.9748 37.0143C20.7549 36.5857 21.0375 35.6074 20.606 34.829Z" fill="#FD5C6F"/>
</svg>
