<svg width="41" height="47" viewBox="0 0 41 47" fill="none" xmlns="http://www.w3.org/2000/svg">
<path d="M14.1991 0.978516C16.6248 0.978516 18.8264 1.94815 20.4226 3.50898C22.0187 5.06981 23.0103 7.22274 23.0103 9.59477V17.6243H20.1652V9.59477C20.1652 7.99139 19.494 6.53196 18.4107 5.47541C17.3303 4.41614 15.8379 3.75976 14.1982 3.75976C12.5586 3.75976 11.0661 4.41614 9.98292 5.47541C8.8997 6.53196 8.22847 7.99139 8.22847 9.59477V17.6243H5.38525V9.59477C5.38525 7.22274 6.37682 5.06981 7.97294 3.50898C9.57 1.94815 11.7744 0.978516 14.1991 0.978516Z" fill="#FFDF32"/>
<path fill-rule="evenodd" clip-rule="evenodd" d="M2.81472 14.1973H25.578C26.5891 14.1973 27.4165 15.0294 27.4165 16.0461V30.9526C27.4165 31.9693 26.5891 32.8014 25.578 32.8014H2.81472C1.80365 32.8014 0.979004 31.9693 0.979004 30.9526V16.0461C0.979004 15.0294 1.80365 14.1973 2.81472 14.1973Z" fill="#2B4F86"/>
<path fill-rule="evenodd" clip-rule="evenodd" d="M32.0675 30.8431C36.2484 30.8431 39.6561 27.4355 39.6561 23.2546C39.6561 19.0737 36.2484 15.666 32.0675 15.666C27.8867 15.666 24.479 19.0737 24.479 23.2546C24.479 27.4345 27.8867 30.8431 32.0675 30.8431Z" fill="#70DA40"/>
<path fill-rule="evenodd" clip-rule="evenodd" d="M6.58739 29.5537C7.30178 29.1933 8.1211 29.3587 8.53167 30.0815L10.6338 33.7695V31.8811V29.2238V21.516C10.6338 20.722 11.2752 20.0723 12.0589 20.0723C12.8427 20.0723 13.4841 20.722 13.4841 21.516V25.2872C13.4841 24.4932 14.1227 23.8434 14.9074 23.8434C15.6911 23.8434 16.3325 24.4932 16.3325 25.2872V27.0591C16.3325 26.2651 16.9739 25.6153 17.7577 25.6153C18.5414 25.6153 19.181 26.2651 19.181 27.0591V28.3383C19.181 27.5443 19.8224 26.8945 20.6061 26.8945C21.3898 26.8945 22.0312 27.5443 22.0312 28.3383V37.6783C22.0312 38.3891 21.9108 38.9955 21.6453 39.6526L20.5103 42.445V44.5514H10.6338V42.445V40.9319C10.6338 39.9798 10.4185 39.1655 9.94951 38.3401L6.06368 31.5253C5.67318 30.8385 5.90858 29.9521 6.58739 29.5537Z" fill="#FBBD80"/>
<path fill-rule="evenodd" clip-rule="evenodd" d="M9.21052 42.1035H22.1228C22.3405 42.1035 22.5208 42.3001 22.5208 42.5396V46.0736C22.5208 46.3122 22.3414 46.5098 22.1228 46.5098H9.21052C8.99282 46.5098 8.8125 46.3132 8.8125 46.0736V42.5396C8.8125 42.3001 8.99189 42.1035 9.21052 42.1035Z" fill="#4596E6"/>
<path fill-rule="evenodd" clip-rule="evenodd" d="M9.2659 42.1035H10.7708C10.5197 42.1035 10.3174 42.3001 10.3174 42.5396V46.0736C10.3174 46.3122 10.5186 46.5098 10.7708 46.5098H9.2659C9.01791 46.5098 8.8125 46.3132 8.8125 46.0736V42.5396C8.8125 42.3001 9.01685 42.1035 9.2659 42.1035Z" fill="#3E87CF"/>
<path fill-rule="evenodd" clip-rule="evenodd" d="M6.61228 29.4081C7.0117 29.2161 7.447 29.176 7.82565 29.2934C7.72461 29.3207 7.62074 29.3608 7.52254 29.4081C6.82001 29.8004 6.5764 30.6724 6.98054 31.3505L11.0021 38.0613C11.4865 38.8732 11.7103 39.676 11.7103 40.6135V42.1035H10.8001V40.6135C10.8001 39.676 10.5772 38.8741 10.0919 38.0613L6.07027 31.3505C5.66613 30.6733 5.90975 29.8004 6.61228 29.4081ZM10.8001 32.0404V31.7009V29.0841V21.494C10.8001 20.7121 11.4639 20.0723 12.275 20.0723C12.4336 20.0723 12.5866 20.0968 12.7292 20.1424C12.1409 20.3271 11.7103 20.865 11.7103 21.4949V29.085V31.7018V33.5613L10.8001 32.0404Z" fill="#E2AA73"/>
<path fill-rule="evenodd" clip-rule="evenodd" d="M2.78524 14.1973H3.9165C2.92168 14.1973 2.10756 15.0294 2.10756 16.0461V30.9526C2.10756 31.9693 2.92168 32.8014 3.9165 32.8014H2.78524C1.79041 32.8014 0.979004 31.9693 0.979004 30.9526V16.0461C0.979004 15.0294 1.79041 14.1973 2.78524 14.1973Z" fill="#274779"/>
<path fill-rule="evenodd" clip-rule="evenodd" d="M31.8846 15.666C32.0278 15.666 32.1719 15.6688 32.3123 15.6789C28.4231 15.9041 25.3345 19.2111 25.3345 23.2546C25.3345 27.298 28.4231 30.6023 32.3123 30.8302C32.171 30.8376 32.0278 30.8431 31.8846 30.8431C27.7946 30.8431 24.479 27.4456 24.479 23.2546C24.479 19.0635 27.7946 15.666 31.8846 15.666Z" fill="#65C43A"/>
<path d="M31.8593 14.9853C30.4258 14.9853 29.0767 15.3515 27.8993 15.9941V15.8591C27.8993 14.4428 26.7458 13.2907 25.3269 13.2907H23.4213V9.46848C23.4213 6.94692 22.4341 4.57131 20.6414 2.7795C18.846 0.987696 16.4683 0 13.9492 0C11.4283 0 9.0515 0.987696 7.25792 2.78042C5.46341 4.57406 4.47524 6.94875 4.47524 9.4694V13.2917H2.56961C1.15256 13.2917 0 14.4437 0 15.86V30.6736C0 32.0909 1.15256 33.2448 2.56961 33.2448H6.06862L9.16171 38.6009C9.57222 39.3086 9.75498 39.9888 9.75498 40.8067V41.5769H9.11211C8.49037 41.5769 7.98527 42.0826 7.98527 42.7041V45.8737C7.98527 46.4951 8.49129 47 9.11211 47H21.8132C22.435 47 22.9401 46.4942 22.9401 45.8737V42.7022C22.9401 42.0808 22.4341 41.575 21.8132 41.575H21.535L22.2596 39.8163C22.5681 39.0718 22.7059 38.3797 22.7059 37.5737V33.2439H25.3269C26.7449 33.2439 27.8993 32.0909 27.8993 30.6727V30.5378C29.0767 31.1803 30.4258 31.5466 31.8593 31.5466C36.4282 31.5466 40.1458 27.8326 40.1458 23.2668C40.1458 18.701 36.4282 14.9853 31.8593 14.9853ZM5.94372 9.4694C5.94372 7.34163 6.77852 5.33503 8.29568 3.8186C9.81283 2.30218 11.8204 1.46777 13.9492 1.46777C16.0771 1.46777 18.0865 2.30309 19.6055 3.8186C21.1208 5.33319 21.9547 7.33979 21.9547 9.4694V13.2917H20.6037V9.4694C20.6037 7.70146 19.9094 6.03357 18.6494 4.77417C17.3876 3.51293 15.7189 2.81805 13.9492 2.81805C12.1786 2.81805 10.5099 3.51293 9.25171 4.77417C7.9917 6.03357 7.2974 7.70146 7.2974 9.4694V13.2917H5.94372V9.4694ZM8.76589 13.2917V9.4694C8.76589 8.09341 9.30681 6.79454 10.2904 5.81143C11.2721 4.82833 12.5716 4.28583 13.9492 4.28583C15.3258 4.28583 16.6263 4.82741 17.6108 5.81143C18.5934 6.79362 19.1343 8.0925 19.1343 9.46848V13.2907H8.76589V13.2917ZM21.4725 45.5304H9.45283V43.0428H20.4348H20.4384H20.4412H21.4725V45.5304ZM11.2235 41.575V40.8049C11.2235 39.729 10.9718 38.7946 10.4327 37.8647L7.14128 32.1653C7.13761 32.1579 7.13302 32.1515 7.12934 32.1451L6.52046 31.0904C6.33127 30.7618 6.43872 30.3423 6.75924 30.144C7.07975 29.9925 7.49761 29.9806 7.73547 30.3909L9.15436 32.8436C9.16722 32.8684 9.18099 32.8932 9.1966 32.9171L9.85416 34.0544C10.0204 34.3417 10.3593 34.4821 10.6798 34.3959C11.0003 34.3096 11.2235 34.0195 11.2235 33.6872V21.5062C11.2235 21.1207 11.5375 20.8068 11.9242 20.8068C12.3108 20.8068 12.6249 21.1207 12.6249 21.5062V30.9307C12.6249 31.3364 12.9537 31.6641 13.3587 31.6641C13.7637 31.6641 14.0925 31.3355 14.0925 30.9307V25.256C14.0925 24.8696 14.4075 24.5556 14.795 24.5556C15.1807 24.5556 15.4957 24.8696 15.4957 25.256V31.7118C15.4957 32.1176 15.8245 32.4453 16.2295 32.4453C16.6345 32.4453 16.9633 32.1166 16.9633 31.7118V27.0175C16.9633 26.6311 17.2774 26.3171 17.664 26.3171C18.0516 26.3171 18.3666 26.6311 18.3666 27.0175V33.2778C18.3666 33.6835 18.6954 34.0112 19.1004 34.0112C19.5054 34.0112 19.8341 33.6826 19.8341 33.2778V28.2898C19.8341 27.9024 20.1482 27.5876 20.5349 27.5876C20.9224 27.5876 21.2374 27.9024 21.2374 28.2898V37.5737C21.2374 38.186 21.1373 38.689 20.9022 39.2563L19.9462 41.5759H11.2235V41.575ZM26.4317 30.6727C26.4317 31.2813 25.9367 31.7761 25.3279 31.7761H22.7068V28.2898C22.7068 27.0928 21.7324 26.1198 20.5358 26.1198C20.2428 26.1198 19.9627 26.1785 19.7074 26.2841C19.4053 25.4488 18.6035 24.8494 17.664 24.8494C17.4124 24.8494 17.1699 24.8925 16.9449 24.9714C16.8053 23.9094 15.8943 23.0878 14.795 23.0878C14.5489 23.0878 14.3129 23.1292 14.0925 23.2044V21.5062C14.0925 20.3111 13.1199 19.339 11.9242 19.339C10.7285 19.339 9.75589 20.3111 9.75589 21.5062V30.9509L9.0065 29.6557C8.41599 28.634 7.18628 28.2907 6.08331 28.8405C6.06954 28.847 6.05668 28.8543 6.04291 28.8616C5.02351 29.451 4.66351 30.748 5.2228 31.7761H2.56961C1.96257 31.7761 1.46848 31.2813 1.46848 30.6727V15.8591C1.46848 15.2524 1.96257 14.7585 2.56961 14.7585H25.3279C25.9367 14.7585 26.4317 15.2524 26.4317 15.8591V17.0157C24.6832 18.5358 23.5756 20.7747 23.5756 23.2668C23.5756 25.759 24.6832 27.997 26.4317 29.5161V30.6727ZM31.8593 30.0797C28.1013 30.0797 25.0441 27.0239 25.0441 23.2678C25.0441 19.5097 28.1013 16.453 31.8593 16.453C35.6192 16.453 38.6773 19.5097 38.6773 23.2678C38.6773 27.0239 35.6182 30.0797 31.8593 30.0797ZM35.8405 20.6829C36.127 20.9693 36.127 21.4337 35.8405 21.7201L31.7069 25.8499C31.5636 25.9931 31.3754 26.0647 31.188 26.0647C30.9997 26.0647 30.8124 25.9931 30.6691 25.8499L27.8809 23.0631C27.5944 22.7767 27.5944 22.3122 27.8809 22.0258C28.1675 21.7394 28.6322 21.7394 28.9187 22.0258L31.188 24.294L34.8027 20.6829C35.0893 20.3955 35.554 20.3965 35.8405 20.6829Z" fill="#0F2744"/>
</svg>
