<svg width="97" height="136" viewBox="0 0 97 136" fill="none" xmlns="http://www.w3.org/2000/svg">
<path d="M63.4747 77.7706L47.6867 75.7236C43.327 75.1583 40.251 71.1658 40.8163 66.8061C41.3816 62.4464 45.3741 59.3704 49.7338 59.9356L65.5217 61.9827C69.8814 62.548 72.9574 66.5404 72.3922 70.9002C71.8269 75.2599 67.8344 78.3359 63.4747 77.7706Z" fill="#F0C419" fill-opacity="0.4"/>
<path d="M45.5442 28.7761C41.7104 28.2822 38.7855 25.1053 38.6095 21.2438C38.4334 17.3822 41.0571 13.9524 44.8302 13.1117L60.363 9.63546C63.1614 8.95196 66.1107 9.83369 68.0747 11.941C70.0388 14.0482 70.7111 17.0522 69.8326 19.7956C68.9542 22.539 66.662 24.5938 63.8393 25.1683L48.3064 28.6446C47.401 28.8532 46.4654 28.8978 45.5442 28.7761Z" fill="#F0C419" fill-opacity="0.4"/>
<path d="M47.7706 127.909C46.8497 127.788 45.9571 127.507 45.1333 127.078L31.0006 119.755C27.19 117.686 25.7364 112.948 27.7313 109.098C29.7261 105.248 34.4353 103.702 38.3233 105.622L52.4559 112.945C55.8898 114.72 57.552 118.706 56.397 122.395C55.242 126.083 51.6036 128.409 47.7706 127.909Z" fill="#F0C419" fill-opacity="0.4"/>
</svg>
