<svg width="36" height="33" viewBox="0 0 36 33" fill="none" xmlns="http://www.w3.org/2000/svg">
<path d="M25.5556 1C24.5536 1 23.5928 1.36099 22.8843 2.00354C22.1758 2.6461 21.7778 3.5176 21.7778 4.42631V14.7053C21.7778 15.614 22.1758 16.4855 22.8843 17.128C23.5928 17.7706 24.5536 18.1316 25.5556 18.1316C26.0565 18.1316 26.537 18.3121 26.8912 18.6333C27.2454 18.9546 27.4444 19.3904 27.4444 19.8447V21.5579C27.4444 22.4666 27.0464 23.3381 26.338 23.9806C25.6295 24.6232 24.6686 24.9842 23.6667 24.9842C23.1657 24.9842 22.6853 25.1647 22.3311 25.486C21.9768 25.8072 21.7778 26.243 21.7778 26.6973V30.1237C21.7778 30.578 21.9768 31.0138 22.3311 31.3351C22.6853 31.6563 23.1657 31.8368 23.6667 31.8368C26.6724 31.8368 29.5551 30.7539 31.6805 28.8262C33.8059 26.8985 34.9999 24.284 34.9999 21.5579V4.42631C34.9999 3.5176 34.6019 2.6461 33.8934 2.00354C33.185 1.36099 32.2241 1 31.2222 1H25.5556Z" fill="#CAE4FF" stroke="#3B9DFF" stroke-opacity="0.5" stroke-width="2" stroke-linecap="round" stroke-linejoin="round"/>
<path d="M4.77773 1C3.77581 1 2.81493 1.36099 2.10647 2.00354C1.39801 2.6461 1 3.5176 1 4.42631V14.7053C1 15.614 1.39801 16.4855 2.10647 17.128C2.81493 17.7706 3.77581 18.1316 4.77773 18.1316C5.27869 18.1316 5.75913 18.3121 6.11336 18.6333C6.46759 18.9546 6.6666 19.3904 6.6666 19.8447V21.5579C6.6666 22.4666 6.26859 23.3381 5.56012 23.9806C4.85166 24.6232 3.89078 24.9842 2.88887 24.9842C2.38791 24.9842 1.90747 25.1647 1.55324 25.486C1.199 25.8072 1 26.243 1 26.6973V30.1237C1 30.578 1.199 31.0138 1.55324 31.3351C1.90747 31.6563 2.38791 31.8368 2.88887 31.8368C5.89461 31.8368 8.77726 30.7539 10.9026 28.8262C13.028 26.8985 14.2221 24.284 14.2221 21.5579V4.42631C14.2221 3.5176 13.824 2.6461 13.1156 2.00354C12.4071 1.36099 11.4462 1 10.4443 1H4.77773Z" fill="#CAE4FF" stroke="#3B9DFF" stroke-opacity="0.5" stroke-width="2" stroke-linecap="round" stroke-linejoin="round"/>
</svg>
