<svg width="32" height="32" viewBox="0 0 32 32" fill="none" xmlns="http://www.w3.org/2000/svg">
<g clip-path="url(#clip0_526_2762)">
<path d="M31.497 10.6337L21.3662 0.502862C20.7176 -0.145701 19.6709 -0.146138 19.0278 0.497674L17.7628 1.76267C17.1196 2.40586 17.1218 3.4543 17.7676 4.10074L18.0883 4.42136L7.83551 12.1299C6.25626 10.929 4.13088 10.877 2.50763 11.8968C1.74413 12.3966 1.62513 13.4251 2.24795 14.0479L8.12188 19.9219L1.93495 26.1021C1.82176 26.2153 1.72851 26.3485 1.66188 26.5084L0.116758 30.2379C-0.0830549 30.7107 0.0235076 31.2502 0.383133 31.6165C0.73457 31.9584 1.26132 32.0914 1.7617 31.8829L5.49788 30.3311C5.65107 30.2712 5.79088 30.1779 5.90413 30.058L12.0844 23.8844L17.9517 29.7517C18.2623 30.0624 18.6971 30.1923 19.0772 30.1447C19.5034 30.0914 19.8764 29.8516 20.1028 29.492C21.1484 27.8404 21.0219 25.7026 19.863 24.1708L27.5783 13.9114L27.8991 14.2322C28.5451 14.8782 29.5934 14.8802 30.2369 14.2368L31.5022 12.9718C32.1454 12.3286 32.1431 11.2795 31.497 10.6337ZM4.97845 29.1058L1.41545 30.5842L2.87394 27.0412L9.06088 20.8543L11.1454 22.9388L4.97845 29.1058ZM18.9241 28.8194C18.8574 28.8194 19.4706 29.3795 3.18026 13.0823C3.18026 12.813 5.63682 11.7494 7.37595 13.4885L18.5111 24.6237C20.2739 26.3864 18.9389 28.7523 18.9241 28.8194ZM18.9507 23.1785L8.82113 13.049L19.0372 5.37024L26.6294 12.9625L18.9507 23.1785ZM30.5605 12.03L29.2952 13.295C29.1709 13.4193 28.9671 13.416 28.8409 13.2905L18.7098 3.15899C18.5829 3.03217 18.5806 2.82861 18.7046 2.70436L19.9696 1.43936C20.0971 1.31242 20.3008 1.32124 20.4242 1.44455L30.5554 11.5754C30.6823 11.7025 30.6842 11.9064 30.5605 12.03Z" fill="url(#paint0_linear_526_2762)"/>
</g>
<defs>
<linearGradient id="paint0_linear_526_2762" x1="0.384321" y1="31.6177" x2="26.4326" y2="5.56936" gradientUnits="userSpaceOnUse">
<stop offset="1" stop-color="white"/>
</linearGradient>
<clipPath id="clip0_526_2762">
<rect width="32" height="32" fill="white"/>
</clipPath>
</defs>
</svg>
