<svg width="57" height="124" viewBox="0 0 57 124" fill="none" xmlns="http://www.w3.org/2000/svg">
<path d="M29.6646 69.5928L14.1476 73.1529C9.86277 74.136 5.59223 71.4594 4.60914 67.1745C3.62605 62.8896 6.30268 58.6191 10.5876 57.636L26.1045 54.0759C30.3894 53.0928 34.6599 55.7694 35.643 60.0543C36.6261 64.3392 33.9495 68.6097 29.6646 69.5928Z" fill="#F0C419" fill-opacity="0.4"/>
<path d="M34.6075 121.541C30.8405 122.409 26.9948 120.445 25.4894 116.884C23.984 113.324 25.2541 109.197 28.5008 107.099L41.8614 98.4472C45.5461 96.1614 50.3824 97.2452 52.7392 100.885C55.096 104.524 54.1062 109.381 50.5129 111.808L37.1523 120.459C36.3736 120.966 35.5124 121.332 34.6075 121.541Z" fill="#F0C419" fill-opacity="0.4"/>
<path d="M27.2685 22.6614C26.3633 22.8714 25.4279 22.9173 24.5065 22.7969L8.7108 20.8348C5.84579 20.5352 3.36619 18.7111 2.22726 16.0651C1.08833 13.4192 1.46779 10.3644 3.21946 8.07756C4.97112 5.7907 7.82164 4.62867 10.6729 5.03911L26.4686 7.0012C30.3051 7.47406 33.2473 10.6349 33.4445 14.4954C33.6417 18.3559 31.0369 21.8001 27.2685 22.6614Z" fill="#F0C419" fill-opacity="0.4"/>
</svg>
