<svg width="263" height="237" viewBox="0 0 263 237" fill="none" xmlns="http://www.w3.org/2000/svg">
<path d="M178.421 194.932C138.615 211.192 89.2834 180.152 93.3297 139.047C93.4383 136.967 94.029 134.751 94.4856 132.83C125.089 140.412 160.494 135.632 172.452 115.888C183.123 98.0408 163.05 82.1323 143.257 85.8756C119.742 90.4041 98.7647 103.191 88.7358 122.395C69.7003 116.19 53.829 103.974 50.9239 84.5443C46.1001 51.8148 83.5816 27.7485 117.375 31.1068C120.909 31.6555 121.394 26.9074 117.86 26.3588C73.0644 17.6231 30.4583 55.6781 45.0776 96.4292C50.9039 112.224 66.6956 123.692 85.5971 130.191C78.914 151.279 90.1171 175.562 109.225 191.74C131.412 210.388 159.422 210.752 182.031 200.84C185.675 199.308 181.929 193.694 178.421 194.932ZM127.555 100.005C136.073 96.0849 146.734 92.0776 157.338 93.7235C167.592 95.2104 165.897 107.216 164.099 112.074C161.765 118.108 154.479 121.171 148.077 123.218C134.524 128.035 115.242 128.817 97.6246 125.033C103.899 114.053 115.607 105.91 127.555 100.005Z" fill="url(#paint0_linear_512_2313)"/>
<path d="M199.446 204.847C194.48 197.545 188.799 190.234 182.129 184.073C179.372 181.582 176.228 184.769 178.717 187.387C183.694 192.621 187.504 198.744 191.138 204.607C187.467 205.979 183.528 207.476 179.68 208.588C176.638 209.322 171.366 209.381 169.743 212.202C168.931 213.612 169.818 214.916 171.243 215.968C174.715 218.469 180.358 215.832 183.668 214.972C189.038 213.493 193.782 211.618 198.62 209.357C200.231 208.604 200.51 206.411 199.446 204.847Z" fill="url(#paint1_linear_512_2313)"/>
<defs>
<linearGradient id="paint0_linear_512_2313" x1="154.622" y1="42.9929" x2="89.5687" y2="185.488" gradientUnits="userSpaceOnUse">
<stop stop-color="#3B9DFF"/>
<stop offset="1" stop-color="#235E99"/>
</linearGradient>
<linearGradient id="paint1_linear_512_2313" x1="192.514" y1="194.656" x2="167.757" y2="211.495" gradientUnits="userSpaceOnUse">
<stop stop-color="#3B9DFF"/>
<stop offset="1" stop-color="#235E99"/>
</linearGradient>
</defs>
</svg>
