<svg width="51" height="40" viewBox="0 0 51 40" fill="none" xmlns="http://www.w3.org/2000/svg">
<path d="M8.70309 38.7892H2.76504C1.63464 38.7892 0.718262 37.8537 0.718262 36.6997V2.80825C0.718262 1.65426 1.63464 0.71875 2.76504 0.71875H8.70309L10.7746 3.08412V36.886L8.70309 38.7892Z" fill="#DD8858"/>
<path d="M50.2817 34.779L49.7244 34.0304L50.2817 33.2818V30.0201L49.5038 29.0759L50.2817 28.523V25.2613L49.6672 24.5128L50.2817 23.7642V20.5026L49.7489 19.754L50.2817 19.0054V15.7437L49.6182 14.9951L50.2817 14.2466V10.9849L49.6346 10.2364L50.2817 9.48782V6.22618L49.5038 5.36314L50.2817 4.72905V1.56173C50.2817 1.09613 49.911 0.71875 49.4537 0.71875H44.6449C44.1875 0.71875 43.8169 1.09613 43.8169 1.56173V37.9462C43.8169 38.4118 44.1875 38.7892 44.6449 38.7892H49.4537C49.911 38.7892 50.2817 38.4118 50.2817 37.9462V34.779Z" fill="#60B9FE"/>
<path d="M36.7255 0.71875H25.3857L22.7536 3.74964H16.6433L14.6005 0.71875H9.2463C8.10684 0.71875 7.18311 1.65426 7.18311 2.80825V36.6997C7.18311 37.8537 8.10684 38.7892 9.2463 38.7892H36.7255C37.865 38.7892 38.7887 37.8537 38.7887 36.6997C38.7887 36.23 38.7887 4.07661 38.7887 2.80825C38.7887 1.65426 37.865 0.71875 36.7255 0.71875Z" fill="#E39B74"/>
<path d="M14.3662 0.71885C14.3662 1.62884 14.3662 14.9948 14.3662 18.7674C14.3662 19.166 14.8103 19.3952 15.1259 19.1599L16.2559 18.3178C16.7345 17.9611 17.3846 17.9611 17.8632 18.3178L18.9495 19.1273C19.4281 19.484 20.0781 19.484 20.5567 19.1273L21.6434 18.3176C22.122 17.961 22.7719 17.961 23.2505 18.3176L24.3812 19.16C24.6968 19.3953 25.1409 19.166 25.1409 18.7674C25.1409 14.9953 25.1409 1.62905 25.1409 0.71875L14.3662 0.71885Z" fill="#FFD500"/>
<path d="M15.1199 1.5003V18.2149L15.833 17.6835C16.5688 17.1353 17.5681 17.1353 18.3039 17.6835H18.3038L19.3865 18.4903H19.3866C19.6049 18.653 19.9014 18.653 20.1197 18.4903L21.2028 17.6833H21.2029C21.9386 17.1353 22.9377 17.1353 23.6734 17.6833L24.3871 18.215V1.5003H15.1199ZM25.8592 18.7373C25.8592 19.75 24.7313 20.33 23.9316 19.7341L22.8047 18.8946C22.5864 18.7319 22.2899 18.7319 22.0715 18.8946L22.0714 18.8945L20.9884 19.7015C20.2642 20.2412 19.2847 20.2496 18.5525 19.7268L18.5178 19.7015L17.4351 18.8947C17.2236 18.7371 16.9386 18.7322 16.7225 18.88L16.7018 18.8947L15.5755 19.734C14.7761 20.3298 13.648 19.7503 13.6479 18.7373V0.750248C13.648 0.335951 13.9775 0.00010146 14.3839 9.76759e-05L25.1231 0C25.3183 -1.81689e-06 25.5056 0.0790061 25.6436 0.219673C25.7816 0.360355 25.8592 0.551195 25.8592 0.75015V18.7373Z" fill="black"/>
<path d="M33.0083 25.1426C33.4237 25.1426 33.7604 25.4642 33.7604 25.8609C33.7604 26.2576 33.4237 26.5792 33.0083 26.5792H25.1745C24.7591 26.5792 24.4224 26.2576 24.4224 25.8609C24.4224 25.4642 24.7591 25.1426 25.1745 25.1426H33.0083Z" fill="black"/>
<path d="M33.0083 28.7324C33.4237 28.7324 33.7604 29.054 33.7604 29.4507C33.7604 29.8474 33.4237 30.169 33.0083 30.169H25.1745C24.7591 30.169 24.4224 29.8474 24.4224 29.4507C24.4224 29.054 24.7591 28.7324 25.1745 28.7324H33.0083Z" fill="black"/>
<path d="M33.0083 32.3242C33.4237 32.3242 33.7604 32.6458 33.7604 33.0425C33.7604 33.4392 33.4237 33.7608 33.0083 33.7608H25.1745C24.7591 33.7608 24.4224 33.4392 24.4224 33.0425C24.4224 32.6458 24.7591 32.3242 25.1745 32.3242H33.0083Z" fill="black"/>
<path d="M50.3217 9.33789C50.6962 9.33789 50.9998 9.65949 50.9998 10.0562C50.9998 10.4529 50.6962 10.7745 50.3217 10.7745H47.3681C46.9935 10.7745 46.6899 10.4529 46.6899 10.0562C46.6899 9.65949 46.9935 9.33789 47.3681 9.33789H50.3217Z" fill="black"/>
<path d="M50.3124 23.7051C50.6923 23.7051 51.0002 24.0267 51.0002 24.4234C51.0002 24.8201 50.6923 25.1417 50.3124 25.1417H48.8147C48.4349 25.1417 48.127 24.8201 48.127 24.4234C48.127 24.0267 48.4349 23.7051 48.8147 23.7051H50.3124Z" fill="black"/>
<path d="M50.3124 5.0293C50.6923 5.0293 51.0002 5.35089 51.0002 5.74761C51.0002 6.14432 50.6923 6.46592 50.3124 6.46592H48.8147C48.4349 6.46592 48.127 6.14432 48.127 5.74761C48.127 5.35089 48.4349 5.0293 48.8147 5.0293H50.3124Z" fill="black"/>
<path d="M50.3124 14.3672C50.6923 14.3672 51.0002 14.6888 51.0002 15.0855C51.0002 15.4822 50.6923 15.8038 50.3124 15.8038H48.8147C48.4349 15.8038 48.127 15.4822 48.127 15.0855C48.127 14.6888 48.4349 14.3672 48.8147 14.3672H50.3124Z" fill="black"/>
<path d="M49.5359 1.58913C49.5359 1.53703 49.4946 1.49484 49.4436 1.49482H44.6552C44.6042 1.49482 44.5628 1.53708 44.5628 1.58913V37.9179C44.5628 37.97 44.6041 38.0122 44.6552 38.0122H49.4436C49.4946 38.0122 49.5359 37.97 49.5359 37.9179V1.58913ZM51 37.9179C51 38.7956 50.3033 39.507 49.4436 39.507H44.6552C43.7955 39.507 43.0986 38.7956 43.0986 37.9179V1.58913C43.0986 0.711387 43.7956 0 44.6552 0H49.4436C50.3033 2.06782e-05 51 0.711458 51 1.58913V37.9179Z" fill="black"/>
<path d="M50.3217 28.7324C50.6962 28.7324 50.9998 29.054 50.9998 29.4507C50.9998 29.8474 50.6962 30.169 50.3217 30.169H47.3681C46.9935 30.169 46.6899 29.8474 46.6899 29.4507C46.6899 29.054 46.9935 28.7324 47.3681 28.7324H50.3217Z" fill="black"/>
<path d="M50.3217 18.6777C50.6962 18.6777 50.9998 19.1601 50.9998 19.7552C50.9998 20.3503 50.6962 20.8327 50.3217 20.8327H47.3681C46.9935 20.8327 46.6899 20.3503 46.6899 19.7552C46.6899 19.1601 46.9935 18.6777 47.3681 18.6777H50.3217Z" fill="black"/>
<path d="M50.3124 33.043C50.6923 33.043 51.0002 33.5254 51.0002 34.1204C51.0002 34.7155 50.6923 35.1979 50.3124 35.1979H48.8147C48.4349 35.1979 48.127 34.7155 48.127 34.1204C48.127 33.5254 48.4349 33.043 48.8147 33.043H50.3124Z" fill="black"/>
<path d="M38.0122 18.292V2.83374C38.0122 2.09432 37.4128 1.49484 36.6734 1.49482H2.83374C2.09431 1.49482 1.49482 2.09431 1.49482 2.83374V36.6734C1.49484 37.4128 2.09432 38.0122 2.83374 38.0122H36.6734C37.4128 38.0122 38.0122 37.4128 38.0122 36.6734V21.78C38.0122 21.3672 38.3469 21.0326 38.7596 21.0325C39.1724 21.0325 39.507 21.3672 39.507 21.78V36.6734C39.507 38.2384 38.2384 39.507 36.6734 39.507H2.83374C1.26875 39.507 2.05901e-05 38.2384 0 36.6734V2.83374C0 1.26873 1.26873 0 2.83374 0H36.6734C38.2384 2.05914e-05 39.507 1.26875 39.507 2.83374V18.292C39.507 18.7048 39.1724 19.0394 38.7596 19.0394C38.3469 19.0394 38.0122 18.7048 38.0122 18.292Z" fill="black"/>
</svg>
