<svg width="453" height="403" viewBox="0 0 453 403" fill="none" xmlns="http://www.w3.org/2000/svg">
<path fill-rule="evenodd" clip-rule="evenodd" d="M227.896 10.19L223.66 14.4257L224.237 10.8318L212.685 13.8481L210.182 16.2869L207.808 18.7256L212.044 23.0255L204.727 21.1644L203.508 23.5389L207.166 25.4001L201.711 24.1807L197.411 28.4807H200.492L199.85 30.9194L204.086 29.0583L201.069 33.3582L207.808 30.2776L201.711 34.5134L204.727 36.3745L211.466 30.2776L207.808 34.5134L207.166 37.0163L210.824 33.3582H213.263L212.044 35.7328L215.06 33.9999L215.702 32.7164L218.14 26.6195L216.921 31.497L220.579 30.9194L216.279 34.5134L212.044 37.5939L218.14 43.1132L211.466 38.2357L207.166 38.8133L215.06 47.9265L212.685 48.5683L218.14 47.3489L215.702 49.7877L218.14 51.5847L212.044 49.7877L208.963 51.5847V57.1039L212.044 54.0234L213.263 56.5263L213.905 52.2265L215.702 60.7621L219.36 55.307L216.921 62.6233L208.45 59.5427L212.685 64.4202L206.588 70.5171L209.605 71.7365V68.656L212.044 71.7365L211.466 69.2336L213.905 71.7365L213.263 69.2336L216.921 71.7365L218.14 68.0784L221.157 69.8754L220.002 66.859L223.66 69.2336L221.157 66.2172L226.676 71.0947L228.473 69.2336L231.489 66.859L230.976 62.6233H226.034H222.376L220.579 58.3233L225.457 59.5427L228.473 60.1203L227.254 54.6652L231.489 53.4458L229.115 52.2265L232.131 49.7877L228.473 49.2101L231.489 47.9265L223.018 46.1296L230.334 44.3326L223.018 43.6908L230.334 39.455L227.254 37.5939L232.131 37.0163V33.9999H229.115L232.773 32.7164L229.757 30.2776L232.773 30.9194L233.992 21.1644L228.473 26.0419L230.976 21.1644H226.676L231.489 19.945L233.351 15.7093L232.773 11.987L227.896 10.19ZM194.972 30.9194L192.533 35.7328L195.614 38.2357L190.737 39.455L194.395 42.4714L190.737 41.252V43.6908L194.972 44.3326L193.753 48.5683L202.353 47.9265L195.614 50.4295L200.492 54.0234L197.989 54.6652L199.85 57.1039H205.369L203.508 53.4458L206.588 57.1039V49.7877L207.808 52.8041L212.044 46.7072L209.605 44.3326L207.166 44.9102L205.369 38.2357L204.727 40.6102L194.972 30.9194ZM175.462 47.3489V51.5847L178.543 52.8041L176.104 56.5263L179.185 55.307L184.64 58.9009L186.437 60.1203L184.64 54.0234L184.062 52.2265L175.462 47.3489ZM165.13 50.4295L159.674 54.0234L166.991 53.4458L165.13 50.4295ZM188.298 52.2265L188.875 58.9009L192.533 60.1203L194.395 55.8846L188.298 52.2265ZM158.391 56.5263L157.236 60.1203L162.113 61.9815L164.488 57.6815L158.391 56.5263ZM145.042 58.3233L141.961 60.7621L132.848 67.5008L137.726 66.2172L138.367 68.656L138.945 69.8754L146.197 63.1367V68.0784L152.294 60.7621L149.919 58.9009L145.042 58.3233ZM196.833 61.4039L191.892 62.6233L197.411 63.7785L196.833 61.4039ZM202.353 62.6233L204.727 64.9978V62.6233H202.353ZM140.549 64.3561L140.164 65.6396L139.587 66.2172L140.164 64.9978L140.549 64.3561ZM151.139 67.5008L148.7 68.656L151.139 70.5171L145.684 71.0947L149.919 72.3141L143.181 73.5976L148.7 74.1753L141.384 75.9722L145.684 79.6946L150.561 76.614L149.278 80.208L156.658 79.6946L147.481 82.7109L151.781 86.3049L162.113 82.0691L168.852 83.2885L171.226 76.614L168.852 74.1753L167.568 77.8334L165.13 76.614L164.488 67.5008L160.894 70.5171L162.113 78.411L157.236 77.1916L151.139 67.5008ZM190.737 68.0784L194.395 74.1753L199.272 72.9559L202.93 84.5079L208.45 88.166L211.466 84.5079L214.482 88.166L224.879 85.7273L224.237 82.7109L229.115 85.1497L232.773 81.4274L233.992 80.208H232.131L231.489 79.6946V77.8334L232.131 75.9722L230.976 75.3305L226.034 74.1753L215.702 79.6946L210.182 77.8334V80.208L207.166 75.3305L204.086 77.1916L206.588 74.7529L202.93 73.5976L208.45 72.9559L202.93 71.7365L204.086 69.8754L198.63 72.9559L197.989 68.0784H190.737ZM144.464 69.2336L138.945 72.3141H141.961L144.464 69.2336ZM187.078 70.5171L185.859 72.9559L184.062 72.3141L181.559 71.7365L183.42 76.614L184.062 77.1916H183.42L179.762 72.3141L181.559 77.8334L176.682 79.0528H183.42H184.64L183.42 79.6946L181.559 81.4274L183.42 85.1497L188.298 84.5079L190.159 81.4274L187.078 70.5171ZM121.874 77.8334V83.9303L108.461 96.1241L111.541 97.2793L112.696 105.815L121.296 105.237L123.671 101.002L124.89 100.36L141.961 91.8242L138.367 84.5079L134.067 85.7273L132.271 83.2885L130.409 79.0528L121.874 77.8334ZM196.833 79.6946L191.892 85.1497L199.85 87.5243L196.833 79.6946ZM243.106 90.0272L235.854 90.6048H233.351L237.265 96.2524L237.586 97.2793L240.089 98.4987L248.561 94.9047L243.106 90.0272ZM231.489 91.2466L223.66 96.7017L227.896 98.4987L222.376 99.1404L227.896 101.002L222.376 100.36L228.473 107.676L224.879 105.815L223.018 108.318L228.473 111.334L229.115 117.431L227.896 114.928L213.905 118.009L216.921 122.886L220.579 124.747L224.879 121.667L227.254 125.903H228.473H229.757L230.334 125.71L240.667 124.747L239.448 124.106L235.854 121.667L240.089 124.106L243.683 125.389L241.309 123.528L240.089 122.309H246.186H246.764H249.78L249.203 121.667L246.186 118.65L246.764 115.57L252.283 121.025L254.144 122.886L255.299 119.806L255.877 123.528L258.958 122.309L261.974 125.389L260.177 130.844L263.258 127.122L268.713 130.203L269.932 128.406L280.265 138.096L279.045 143.616L282.703 142.974L279.045 144.193L276.029 150.29L282.126 155.168L274.168 160.045L268.071 159.468V169.8L282.126 166.142L280.265 161.906L285.784 165.5V161.906L291.239 168.003L297.336 168.581L294.255 171.02L297.336 172.817L324.162 174.1L305.294 163.703L311.968 164.987L308.952 161.906L325.382 166.142L318.643 157.029L324.162 160.623L319.862 154.526L315.049 153.948L316.268 151.51L312.546 149.071L311.327 152.151L308.31 149.071L309.53 152.151L302.855 144.835L300.994 148.429L297.978 142.974L302.213 141.819L296.758 138.096L300.994 136.299L305.872 139.316V136.299L306.449 140.599L309.53 135.08L308.952 141.819L319.285 145.413L314.407 136.877L319.285 138.096L315.049 134.502L319.285 133.861L314.407 132.641L318.643 130.203L315.049 128.983L318.065 127.122L313.765 125.389L313.188 129.625L311.327 127.122L309.53 130.203L308.952 124.747V129.625L308.31 126.544L305.294 130.203L306.449 126.544L303.433 127.122L306.449 125.903L302.213 123.528L300.994 125.903V126.544L297.336 124.106L298.555 127.122L296.758 123.528V126.544L295.475 123.528L294.897 125.389L292.458 122.886L290.02 124.747L292.458 121.025L282.703 121.667L287.645 119.806L285.142 117.431L283.281 119.806L285.142 116.789H281.548L289.378 115.57L286.362 113.773L277.826 116.789L285.142 111.912L283.923 109.473L280.265 108.318L279.045 111.912L277.826 116.212L278.468 111.912L279.045 109.473L275.451 112.554L278.468 106.457L274.168 105.815L272.371 110.115L272.948 105.237L271.729 114.351L270.574 109.473L268.713 111.334L269.932 104.595L266.274 110.692L267.493 103.376L261.974 102.221L260.755 108.318L258.958 102.221L257.161 108.318L256.519 104.018H254.658L256.519 100.36L251.064 104.018L252.283 97.2792H244.967L243.106 100.36L248.561 101.579L243.106 102.221L247.406 105.815L239.448 101.001V101.579L238.228 107.098L237.586 99.1403L231.489 91.2466ZM58.8511 92.5301L2.82383 161.265L6.22525 163.703L9.88339 165.565L7.70135 180.646L15.2743 178.336L20.3444 180.197L20.1518 192.968L19.7668 213.826L25.0294 221.656L23.81 224.801L25.0294 223.389L23.5533 225.442L22.2055 228.844L20.4085 229.742L20.1518 230.127L21.9488 231.989L17.0713 233.208L15.2743 235.583L19.5742 238.663L15.8519 239.818L17.0713 246.557L22.5906 242.899L20.2802 246.364L23.1682 248.418L20.1518 246.557L20.2802 246.364L19.5742 245.915L21.9488 255.734L17.0713 258.109L20.1518 256.89L19.5742 259.97L25.6711 258.109L17.7131 263.628V267.286L20.7936 266.067L16.4937 267.864L20.7936 269.725H15.8519L21.9488 271.586H17.0713L23.8099 275.18H21.307L22.5906 277.041L27.4039 275.822L21.9488 277.683L24.3875 280.7L26.8263 278.838L25.0293 280.7L27.4039 281.919L31.1262 278.261L27.4039 283.138H32.3456L28.0457 286.155V286.796L29.9068 289.877L32.3456 288.016L33.5008 287.374V288.593L34.1426 291.61L31.1262 292.893H36.0037L33.5008 298.99L33.5649 299.054L51.984 305.087L116.226 320.169L173.986 325.688L203.572 325.56L204.342 322.351L205.176 323.635L207.166 319.656L204.085 320.297L207.808 316.639L211.466 323.378L206.588 322.736L211.466 323.955L206.588 325.817L208.514 328.769L217.114 330.052L215.702 329.475V325.752L220.451 330.502L233.158 332.363L238.1 332.812L242.528 328.191L244.967 328.833L246.186 323.955V328.191L248.047 326.394L247.406 322.736L258.958 323.378L263.835 329.988L269.932 329.475L273.59 341.027L276.671 342.246L277.056 342.824H299.197L305.872 348.921L308.31 351.359L307.091 355.018L306.449 355.595H300.994L294.897 350.782L298.555 356.237L297.978 368.431L293.87 372.538L293.549 375.939L293.1 376.966L294.897 378.763L291.688 380.368L291.432 381.395L291.881 382.999L299.775 376.325L310.171 373.886L307.669 373.308L310.749 371.447L316.846 367.596L315.691 364.965L311.327 365.992L314.407 359.895L327.243 356.237L328.398 353.156L323.52 355.018L333.853 347.701L331.478 352.579L331.992 353.606L336.228 345.776L336.484 345.262L338.538 341.54L339.244 341.219L343.031 335.572L328.398 340.385L342.453 335.572L355.224 317.859V318.5L339.501 341.091L362.733 330.502L364.017 320.939L365.172 306.948L368.124 308.489L370.563 305.665L374.927 306.948L379.227 319.078L382.115 319.142L384.489 321.966L384.618 322.094L389.367 321.517L398.48 308.103L396.619 314.778L405.796 309.9L402.716 315.42L399.699 313.559L392.961 325.111L395.464 331.849L400.919 332.491L403.358 319.655L407.593 319.014L406.438 316.639L417.99 305.665L419.145 303.226L416.193 302.456L418.375 299.696L416.129 300.787L417.99 293.471L414.91 286.796L413.113 298.99L416.001 302.392L411.893 301.429L404.577 306.884L394.822 305.665L391.164 299.568L388.147 300.787L388.725 292.893L384.489 297.129L382.628 294.69L377.173 296.487L385.067 292.251L388.725 286.155L384.489 281.277L375.954 284.358L366.84 294.113L355.866 317.281L360.102 305.665L358.241 301.429L368.573 286.155L369.857 278.838L370.434 275.822L402.716 258.751L403.358 258.109L404.577 246.557L411.893 239.818L414.268 230.705L410.032 229.486L412.535 227.689L407.593 229.486L411.251 227.111L408.171 226.469L407.593 221.014L402.074 219.795L400.341 225.25L398.48 220.372H392.383L388.147 231.347L385.645 235.582L387.506 230.705L391.741 221.014L387.506 225.892L394.244 215.495L389.944 216.137V214.275L386.286 217.934L384.489 215.495L383.848 217.934L383.27 214.917L382.628 221.014V216.137L380.767 217.934L380.189 215.495L379.548 216.714L377.751 221.014L375.954 213.698L375.312 216.137L374.67 213.698L368.573 215.495L369.215 212.414L366.199 213.698L367.996 212.414H364.338L366.84 210.04L361.963 210.617L366.199 209.398L364.979 205.098L358.241 204.585L360.744 201.504L355.866 200.862V198.488L352.785 202.082L353.363 195.985L350.347 200.22L351.566 194.765L348.55 192.391L344.892 194.765L347.266 191.749L338.153 187.513V185.01H335.714V191.749L339.372 193.546L336.934 195.985L339.95 197.204L337.575 200.862L339.95 205.098L336.356 200.862L333.853 210.617L330.259 206.317L329.617 212.414L327.82 205.098L319.862 208.82L320.504 205.74L322.365 207.601L321.723 202.082L319.862 203.301L317.423 197.204L311.968 199.065L317.423 196.627L313.765 187.513L313.188 190.53H305.294L303.433 186.294L300.994 187.513L291.881 181.416L289.378 186.294L276.029 185.652L274.168 189.31L279.045 194.765L277.826 202.723L280.906 200.862L284.564 208.179L282.126 222.169L291.239 225.892L297.978 240.46L295.475 252.012L286.361 260.612L291.239 264.206L299.197 281.277L296.758 286.155L299.197 291.61L295.475 288.016L294.255 293.471H293.1L288.8 292.893L288.223 289.235L276.029 279.416L271.729 258.751L255.877 261.189L224.237 245.338L213.905 249.637L215.702 245.338L210.824 232.566H205.947V236.224L201.711 230.127L202.353 216.137L208.963 204.585L206.588 202.723L214.482 196.627L212.044 194.124H216.279L219.36 190.53L213.905 186.294L210.824 187.513L212.044 185.652L204.727 184.433V181.416L218.782 188.027L220.579 180.775L228.473 180.197L232.131 170.442L215.06 164.987L219.36 164.345L229.757 169.223L233.992 160.623L230.334 157.606L241.95 159.468L235.212 153.371L240.089 152.793L243.106 157.029L248.561 145.413L241.309 138.096L245.544 135.08L241.95 133.861L243.683 130.203L236.431 128.983L238.87 126.544L228.473 127.122L233.351 136.877L230.334 137.519L229.757 150.29L226.676 152.793L221.157 136.877L216.921 134.502L215.06 144.193L210.182 133.861L213.263 132.641L204.727 131.422L205.369 128.406L205.947 126.544H208.963L198.63 111.334L192.533 121.667L194.972 122.886L193.753 128.983V130.203L203.508 134.502L200.491 135.08L199.272 139.958L202.353 137.519L203.508 141.819L196.833 146.696L197.411 154.526L193.175 152.151L194.972 144.193L192.533 147.274L193.753 144.193L190.159 142.396L185.281 143.616L187.656 147.916H190.736L190.159 151.51L185.859 146.055L184.64 149.713H180.34H172.446L168.852 144.835L162.755 144.193L159.674 136.877L149.919 141.819L154.155 142.974L160.894 139.958L151.78 146.696L154.155 152.793L153.577 155.81L151.139 153.948L152.294 160.045L148.7 152.793L151.139 150.932L145.042 143.616L137.726 145.413L126.751 141.819L127.393 138.096L132.848 137.519L130.409 132L123.157 130.203L115.777 122.886L111.541 118.009L101.786 119.292L104.225 113.195L104.866 111.912L103.583 113.195L98.7696 118.009L97.4861 110.693L96.9085 104.596L96.2667 108.831H94.4697L82.9177 110.693L89.0145 106.457L90.8115 105.237L87.1534 105.815L77.4625 107.099L73.0984 106.457L74.9596 102.221L68.2851 104.018L67.0016 109.473L59.7495 94.9047L58.8511 92.5301ZM418.375 299.696L418.632 299.568V299.311L418.375 299.696ZM418.632 299.311L421.648 295.332L422.226 294.113L421.007 293.471L418.632 292.893V299.311ZM218.14 93.0436L212.685 99.718L212.044 114.928L221.799 116.212L227.254 114.351H227.896L223.018 108.831L221.157 102.734L223.018 93.0436H218.14ZM143.823 93.6212L130.409 98.4987L126.174 104.018L129.768 105.815L127.393 107.676L137.084 109.473L126.174 110.692L126.751 114.928L138.367 116.789L145.042 121.667L126.174 120.447L126.751 126.544L135.287 132V137.519H149.919L159.033 132L163.268 137.519H174.885L173.665 132.641L170.007 136.299L169.365 130.844L172.446 132.641L176.682 129.625L177.965 132V128.983V127.122L167.568 118.65V102.734L163.91 97.9211L159.674 98.4987L158.391 112.554L154.797 99.718H152.936L154.155 104.596L152.294 102.734L150.561 105.237L147.481 104.596L151.139 101.002L147.481 97.9211L141.384 100.36L143.823 93.6212ZM195.614 93.6212L196.833 111.334L201.069 107.099L198.63 104.018H204.727L208.963 93.6212H195.614ZM165.13 94.9047L163.91 96.7017L168.21 101.579L170.585 96.1241L165.13 94.9047ZM180.34 94.9047L181.559 98.4987L178.543 97.9211L182.778 100.36H183.42L182.778 102.734L182.201 103.376V104.018L176.104 101.002L174.885 104.596L182.201 114.351L184.062 116.789L187.656 116.212L187.078 111.912L187.656 114.351L190.737 113.773V113.195L192.533 104.596L186.437 102.221L190.737 96.1241L182.778 94.9047H180.34ZM70.0822 110.692L65.8465 120.447L74.9597 127.764L75.6015 138.096L72.521 143.616L81.6984 155.809L81.0566 160.045V155.168L72.521 143.616L74.9597 138.738L73.0986 127.122L66.4882 124.747L64.6271 118.65L70.0822 110.692ZM248.047 123.528L246.764 124.747L244.325 125.389L246.764 125.903L248.047 123.528ZM188.298 130.203L184.062 138.738L193.175 142.974L197.411 139.316L188.298 130.203ZM272.371 133.861L268.713 135.08L274.168 135.722L272.371 133.861ZM261.974 134.502L263.835 143.616L268.713 141.177L267.493 135.722L261.974 134.502ZM87.7953 143.616H107.883H108.461L110.963 146.054L106.086 147.916L103.583 148.429L105.444 149.071L110.322 150.932L115.199 149.071L111.541 157.029L104.867 154.526L103.583 158.89L101.144 160.045L95.6891 161.265L101.144 155.809L93.2504 159.468L88.3729 155.168L95.6891 151.51L93.8922 149.713L99.9891 150.29L94.4698 146.696L87.1535 147.274L87.7953 143.616ZM288.8 153.371L296.758 158.89L291.239 160.045L288.8 153.371ZM129.19 154.526H131.629L130.217 158.248L130.409 158.89L130.088 158.633L129.768 159.468L127.971 157.029L130.088 158.633L130.217 158.248L129.19 154.526ZM18.2907 157.029L15.2743 161.906V157.606L18.2907 157.029ZM190.159 160.045L191.892 163.126L188.875 163.703L190.159 160.045ZM239.448 160.045L241.95 163.126H245.544L239.448 160.045ZM123.671 161.265L130.987 166.72L130.409 169.223L123.671 161.265ZM135.864 161.265L141.961 169.8L140.164 172.239L135.864 161.265ZM235.854 162.484L236.431 179.555L233.351 185.01L239.448 182.572L242.528 188.027L249.203 176.539L252.283 180.775L258.958 181.416L261.974 177.694L257.738 175.32L254.144 177.694L252.861 172.239L240.667 165.5L239.448 168.581L235.854 162.484ZM185.281 164.987L180.34 168.003H179.762L173.088 165.5H179.762L185.281 164.987ZM133.49 173.458L140.164 174.1L134.709 175.897L133.49 173.458ZM330.259 174.1L327.82 175.32L330.259 176.539V174.1ZM27.4039 174.678L25.0294 183.791H21.9488L26.2487 178.336L27.4039 174.678ZM131.629 175.32L134.067 177.694L129.19 176.539L131.629 175.32ZM103.583 175.897L105.444 180.775L101.144 176.539L103.583 175.897ZM144.464 176.539L149.278 181.994L138.945 179.555L144.464 176.539ZM191.378 177.117L185.281 180.775L179.185 178.913L176.104 178.336L179.185 177.694L191.378 177.117ZM272.948 178.336L269.354 178.913L272.371 181.416L272.948 178.336ZM187.078 183.791H191.378L189.517 186.294L187.078 183.791ZM109.68 185.652L119.435 195.407L132.271 188.669L140.164 191.107H133.49L136.506 192.391H131.629L135.287 192.968L129.768 193.546L115.199 203.943H109.102V203.301L98.7697 196.627L89.0147 193.546H96.9085L98.7697 196.627L106.086 200.221L109.102 195.407H113.338L109.68 185.652ZM133.49 191.107H129.19L127.393 193.546L133.49 191.107ZM256.519 186.872L252.283 188.669L248.561 192.968L250.422 195.985L256.519 186.872ZM176.104 187.513L173.665 195.985L169.365 192.391L176.104 187.513ZM267.493 189.31V195.985L269.932 192.391L267.493 189.31ZM208.963 190.53L213.263 191.749V192.391L209.605 192.968L208.963 190.53ZM188.875 193.546L190.737 198.488L185.859 196.627L188.875 193.546ZM139.587 195.985L134.709 203.943L133.49 200.862L139.587 195.985ZM177.323 195.985L178.543 199.643L179.185 201.504H178.543L176.104 200.221L177.323 195.985ZM297.978 196.627L299.775 199.643H292.458L297.978 196.627ZM170.007 197.846H172.446L169.365 200.862L170.007 197.846ZM156.016 201.504L157.236 204.585L151.781 207.601L156.016 201.504ZM298.555 208.179L304.075 209.398L297.336 210.04L298.555 208.179ZM160.894 211.837L157.813 217.292V216.714V213.056L160.894 211.837ZM184.062 213.056L179.762 218.511L181.559 220.372L179.185 219.153L179.762 225.25L177.323 222.811H176.682L177.323 219.795L177.965 217.484L178.543 215.495L184.062 213.056ZM166.991 214.275L167.568 221.592L165.13 218.511L166.991 214.275ZM156.016 216.714L157.813 221.014H154.155L156.016 216.714ZM357.663 219.795L358.882 222.169L355.866 221.592L357.663 219.795ZM131.629 220.372L148.058 225.892L132.271 225.25L123.157 230.127L121.874 227.689L131.629 220.372ZM352.144 223.389L353.363 225.892H350.347L352.144 223.389ZM305.872 226.469L304.075 229.486L305.872 230.127L300.994 232.566L305.872 226.469ZM51.7915 227.111L53.0751 234.363L61.5465 237.444L53.6527 235.005L54.2945 243.541L51.7915 227.111ZM2.50294 230.705L0 241.102L3.72233 253.296L1.86117 244.696L4.87754 243.541L1.86117 240.46L9.17742 234.363L3.08054 237.444L6.09691 234.363L2.50294 230.705ZM361.963 231.989L367.996 236.224L371.654 235.005L367.418 239.241L363.76 238.085L362.027 242.706L362.091 243.027L364.979 244.696L363.118 245.338L362.091 243.027L361.963 242.899L362.027 242.706L361.321 241.102L353.363 238.085L354.647 241.102L350.347 234.363L361.321 241.102L363.118 238.663L362.541 238.085L366.199 236.224L361.963 231.989ZM162.755 234.363L160.252 241.102H157.236L159.033 235.583L162.755 234.363ZM415.552 235.005L413.113 247.199L415.552 253.873L417.348 258.751L415.552 260.612L419.145 262.986L415.552 263.628L414.268 271.586L419.145 267.864L416.129 277.041L419.145 278.838L422.226 274.603L430.762 272.164L433.842 264.848L434.42 270.303L440.517 263.628L437.436 273.961L441.158 270.945L442.314 259.97L446.036 262.409L446.614 268.506L447.769 263.628L450.272 268.506L452.71 266.709L450.849 257.531L448.411 255.734L447.769 259.97L446.036 253.296L446.614 261.189L442.955 259.393L443.533 256.89L441.158 256.312L444.175 250.793L439.297 256.312L438.078 246.557L433.842 250.279L431.981 247.776L430.762 254.515L428.965 249.637L425.242 253.873L425.884 247.199L422.226 250.279V249.637L421.648 247.776V249.637L421.007 255.093L420.365 250.279L419.145 239.241L416.129 238.085L418.632 236.224L415.552 235.005ZM308.952 237.444L311.968 240.46H307.669L308.952 237.444ZM168.21 238.085L166.349 248.996L159.033 255.734L160.252 249.637L159.674 253.873L163.268 250.793L161.471 244.696L168.21 238.085ZM298.555 238.663L302.213 241.679L298.555 242.321V238.663ZM145.042 240.46L145.684 243.541L140.164 244.696L145.042 240.46ZM283.923 241.679L282.126 249.637L285.142 247.199L285.784 248.996L286.362 243.541L285.784 247.199L283.923 241.679ZM186.437 243.541L185.859 248.996L177.965 252.012L182.778 249.637L186.437 243.541ZM336.356 244.182L337.575 245.915L334.495 248.418V247.776L336.356 244.182ZM130.987 247.199L134.067 251.434L132.848 253.745V253.873L132.72 254.001L129.768 259.392L127.393 253.873L129.768 256.312L132.72 254.001L132.848 253.745L130.987 247.199ZM18.2907 247.776L15.8519 253.296L17.6489 252.654L18.2907 247.776ZM17.6489 252.654L17.0713 256.89L17.7131 252.654H17.6489ZM26.8263 247.776L33.5008 248.996L40.2395 255.093H36.0038L32.9232 248.996L27.4039 251.434L31.1263 248.996L26.8263 247.776ZM368.573 248.418L372.937 250.793L370.434 251.434L368.573 248.418ZM348.55 249.637L349.127 254.515L346.047 255.093L348.55 249.637ZM173.665 257.531V258.109L176.104 262.409L171.868 261.189L173.665 257.531ZM355.866 266.067V266.709L356.444 277.041L349.127 268.506L355.866 266.067ZM354.005 268.506L352.144 271.586L354.647 273.319L354.005 268.506ZM346.047 269.725V272.806L343.672 270.303L346.047 269.725ZM205.947 270.303H210.824L204.727 274.603L205.947 270.303ZM11.6162 271.586L12.1938 275.18H15.8519L11.6162 278.261L15.8519 280.058L16.4937 281.919L19.5742 293.471L25.0294 292.893L21.9488 297.129L31.768 303.804L26.2487 286.155L25.6711 281.919L11.6162 271.586ZM391.742 271.586L382.051 273.961L397.838 274.603V271.586H391.742ZM186.437 274.603L188.298 277.683L196.833 305.087L194.395 312.917V301.429L190.737 303.226L189.517 296.487L186.437 297.707L181.559 289.235L183.42 288.016L184.062 287.374L179.762 284.935L181.559 279.416L187.078 281.277L186.437 274.603ZM174.885 275.822V280.058L175.462 279.416L177.965 278.261L175.462 280.058V283.78L178.543 287.374L174.885 285.513L170.007 283.138L173.665 281.919L174.885 275.822ZM282.126 275.822L277.184 278.838L285.784 280.058L282.126 275.822ZM354.005 277.683L357.663 283.78L359.46 286.155L356.444 284.358L354.647 283.138L354.005 277.683ZM205.369 278.261L208.963 280.058L204.727 280.7L205.369 278.261ZM332.698 279.416L328.976 294.113L327.82 284.935L332.698 279.416ZM169.365 286.155H172.446L174.885 287.374L177.323 288.593L176.104 301.429L174.885 291.61V289.877L169.365 288.593V286.155ZM350.924 288.016L355.866 291.61L352.144 289.877L349.127 294.113L350.924 288.016ZM312.546 289.877L310.171 293.471L308.31 290.39L312.546 289.877ZM321.146 291.032H321.724L324.162 291.61L322.879 295.332L321.146 291.032ZM408.813 296.487L397.838 302.007L395.464 297.129V302.007L405.796 303.226L408.813 296.487ZM309.53 297.129L311.327 300.21L311.968 300.787L308.31 303.804L308.952 300.787L309.53 297.129ZM179.762 299.568L181.495 304.381L177.323 302.007L179.762 299.568ZM134.067 301.429L135.864 303.804L126.174 305.665L132.271 304.445L134.067 301.429ZM330.259 306.307L334.495 309.323L328.976 308.681L328.398 312.403V308.681L330.259 306.307ZM226.034 308.103L224.879 312.917L220.579 314.2L215.702 309.9L221.799 312.403L226.034 308.103ZM244.967 310.542L247.406 312.917L248.047 313.559L245.544 319.014L241.309 315.997L243.106 313.559L244.967 310.542ZM321.724 319.655L324.162 325.752L320.504 323.378L321.724 319.655ZM305.294 337.304L307.669 338.588L303.433 339.166L300.352 339.807L303.433 337.946L305.294 337.304ZM293.742 344.685L283.281 347.059L293.1 348.279L293.742 344.685Z" fill="#C1E6FB"/>
<path d="M67.9683 134.181H118.201V200.559H67.9683V134.181Z" fill="#C1E6FB"/>
<path d="M86.8062 150.327H149.597V216.706H86.8062V150.327Z" fill="#C1E6FB"/>
<path d="M87.7031 158.4H194.447V312.686H87.7031V158.4Z" fill="#C1E6FB"/>
<path d="M28.5005 204.147H135.245V265.144H28.5005V204.147Z" fill="#C1E6FB"/>
<path d="M133.451 263.351H238.401V314.48H133.451V263.351Z" fill="#C1E6FB"/>
<path d="M230.327 267.835H257.236V318.965H230.327V267.835Z" fill="#C1E6FB"/>
<path d="M303.882 263.351H355.909V331.523H303.882V263.351Z" fill="#C1E6FB"/>
<path d="M299.397 219.397H361.291V287.57H299.397V219.397Z" fill="#C1E6FB"/>
<path d="M312.852 222.983H374.745V257.967H312.852V222.983Z" fill="#C1E6FB"/>
<path d="M289.529 189.797H302.984V224.781H289.529V189.797Z" fill="#C1E6FB"/>
<path d="M61.6904 110.858H85.909V145.842H61.6904V110.858Z" fill="#C1E6FB"/>
<path d="M21.3247 161.091H45.5433V196.075H21.3247V161.091Z" fill="#C1E6FB"/>
<path d="M10.561 153.018H34.7796V168.266H10.561V153.018Z" fill="#C1E6FB"/>
<path d="M297.604 324.347H321.823V339.595H297.604V324.347Z" fill="#C1E6FB"/>
<path d="M311.866 206.005C311.198 207.607 308.411 206.293 307.143 207.48C306.692 208.06 306.409 208.754 306.326 209.484C305.982 210.663 305.274 211.703 304.304 212.456C303.334 213.209 302.151 213.637 300.923 213.677C300.165 213.578 299.394 213.665 298.677 213.931C297.525 214.576 297.525 216.234 297.767 217.49L299.218 227.431C299.248 227.767 299.326 228.096 299.449 228.41C299.706 228.86 300.094 229.22 300.561 229.445C301.028 229.669 301.552 229.746 302.063 229.666C303.085 229.485 304.068 229.126 304.966 228.606C312.154 225.15 321.669 224.931 327.314 230.576C327.819 231.149 328.387 231.663 329.007 232.108C330.977 233.26 333.684 232.361 335.17 230.61C336.518 228.731 337.406 226.561 337.762 224.275C338.487 221.188 339.075 217.536 336.944 215.186C336.348 214.604 335.704 214.072 335.02 213.597C332.334 211.498 330.418 208.57 329.571 205.268C329.426 204.39 329.138 203.542 328.719 202.757C328.495 202.364 328.148 202.057 327.731 201.882C327.315 201.707 326.852 201.674 326.415 201.789C324.365 202.561 325.908 206.57 323.915 207.549C322.533 208.194 321.243 206.616 320.033 205.683C319.432 205.262 318.75 204.97 318.031 204.825C317.311 204.681 316.569 204.686 315.852 204.842C315.135 204.998 314.458 205.3 313.863 205.731C313.268 206.161 312.769 206.709 312.396 207.342" fill="#C1E6FB"/>
<path d="M290.94 308.939C342.66 257.219 342.66 173.365 290.94 121.645C239.221 69.9255 155.367 69.9255 103.647 121.645C51.9271 173.365 51.9271 257.219 103.647 308.939C155.366 360.658 239.221 360.658 290.94 308.939Z" stroke="#542B63" stroke-width="6" stroke-linecap="round" stroke-linejoin="round" stroke-dasharray="3 12"/>
<path d="M195.165 375.061L123.262 332.728V249.145L195.165 291.478V375.061Z" fill="#E2BD7E"/>
<path d="M195.165 376.409C194.926 376.41 194.691 376.347 194.485 376.225L122.582 333.891C122.381 333.773 122.214 333.605 122.097 333.403C121.98 333.201 121.917 332.973 121.914 332.739V249.144C121.915 248.907 121.979 248.673 122.099 248.468C122.219 248.263 122.392 248.093 122.599 247.976C122.806 247.859 123.04 247.799 123.278 247.802C123.516 247.805 123.749 247.87 123.953 247.992L195.844 290.326C196.047 290.442 196.215 290.61 196.332 290.812C196.449 291.015 196.512 291.244 196.513 291.478V375.061C196.509 375.296 196.445 375.525 196.326 375.727C196.207 375.929 196.037 376.097 195.833 376.213C195.631 376.335 195.401 376.402 195.165 376.409ZM124.61 331.956L193.817 372.7V292.249L124.61 251.494V331.956Z" fill="#542B63"/>
<g style="mix-blend-mode:multiply">
<path d="M196.086 369.671C181.927 356.438 169.321 341.637 158.511 325.552C150.382 313.23 143.307 300.244 137.361 286.732C132.258 275.409 127.386 263.118 126.268 249.975C126.248 249.759 126.177 249.552 126.061 249.37C125.945 249.187 125.787 249.035 125.6 248.926L123.953 247.982C123.749 247.86 123.516 247.794 123.278 247.791C123.04 247.788 122.806 247.848 122.599 247.965C122.392 248.082 122.219 248.252 122.099 248.457C121.979 248.662 121.915 248.896 121.914 249.134V332.717C121.917 332.95 121.98 333.179 122.097 333.381C122.214 333.582 122.381 333.751 122.582 333.869L194.485 376.202C194.691 376.324 194.926 376.388 195.165 376.387C195.399 376.387 195.629 376.327 195.833 376.214C196.037 376.098 196.207 375.93 196.326 375.728C196.445 375.526 196.509 375.296 196.513 375.062V370.662C196.514 370.476 196.477 370.292 196.404 370.121C196.33 369.951 196.222 369.797 196.086 369.671Z" fill="#D2D2D2"/>
</g>
<path d="M195.166 375.061L267.069 332.728V249.145L195.166 291.478V375.061Z" fill="#FDD28B"/>
<path d="M195.165 376.408C194.987 376.41 194.811 376.376 194.647 376.309C194.483 376.242 194.334 376.143 194.208 376.017C194.083 375.892 193.984 375.742 193.916 375.578C193.849 375.414 193.815 375.238 193.817 375.061V291.477C193.818 291.244 193.88 291.014 193.997 290.812C194.115 290.61 194.283 290.442 194.485 290.325L266.388 247.992C266.593 247.874 266.825 247.812 267.062 247.812C267.299 247.812 267.531 247.874 267.736 247.992C267.938 248.11 268.107 248.278 268.226 248.48C268.345 248.681 268.41 248.91 268.415 249.144V332.728C268.412 332.961 268.349 333.189 268.232 333.391C268.115 333.593 267.948 333.761 267.747 333.879L195.844 376.213C195.641 376.34 195.405 376.408 195.165 376.408ZM196.524 292.249V372.699L265.731 331.956V251.494L196.524 292.249Z" fill="#542B63"/>
<g style="mix-blend-mode:multiply">
<path d="M266.791 333.431C266.753 333.156 266.632 332.898 266.445 332.693C266.258 332.487 266.013 332.343 265.743 332.279C260.413 331.144 255.149 329.721 249.973 328.017C223.963 319.366 206.442 307.869 196.409 292.871L196.259 292.63C196.103 292.382 195.871 292.191 195.597 292.088C195.323 291.984 195.023 291.972 194.741 292.054C194.46 292.136 194.213 292.307 194.038 292.542C193.863 292.777 193.769 293.062 193.771 293.355V375.015C193.77 375.192 193.803 375.368 193.871 375.533C193.938 375.697 194.037 375.846 194.162 375.971C194.288 376.097 194.437 376.196 194.601 376.263C194.765 376.331 194.941 376.364 195.119 376.363C195.358 376.366 195.594 376.302 195.798 376.178L266.146 334.709C266.36 334.575 266.534 334.385 266.647 334.16C266.761 333.935 266.811 333.682 266.791 333.431Z" fill="#D2D2D2"/>
</g>
<path d="M123.262 249.144L195.165 291.478L267.068 249.144L195.165 206.903L123.262 249.144Z" fill="#FDD28B"/>
<path d="M195.165 292.826C194.926 292.828 194.691 292.764 194.485 292.642L122.582 250.309C122.381 250.19 122.214 250.022 122.097 249.82C121.98 249.618 121.917 249.39 121.914 249.157C121.915 248.923 121.977 248.694 122.094 248.492C122.212 248.289 122.38 248.122 122.582 248.005L194.485 205.764C194.69 205.64 194.925 205.574 195.165 205.574C195.404 205.574 195.639 205.64 195.844 205.764L267.748 248.005C267.95 248.122 268.118 248.289 268.235 248.492C268.353 248.694 268.415 248.923 268.416 249.157C268.412 249.39 268.349 249.618 268.232 249.82C268.115 250.022 267.948 250.19 267.748 250.309L195.844 292.642C195.64 292.766 195.404 292.829 195.165 292.826ZM125.923 249.145L195.165 289.912L264.407 249.145L195.165 208.459L125.923 249.145Z" fill="#542B63"/>
<path d="M156.161 268.509V292.077L167.899 298.966V275.42L156.161 268.509Z" fill="#90D4F6"/>
<path d="M167.899 300.314C167.66 300.315 167.425 300.252 167.22 300.13L155.482 293.218C155.279 293.101 155.111 292.933 154.994 292.731C154.877 292.529 154.814 292.3 154.813 292.066V268.509C154.813 268.274 154.876 268.043 154.996 267.84C155.115 267.638 155.287 267.471 155.493 267.357C155.698 267.239 155.93 267.177 156.167 267.177C156.404 267.177 156.636 267.239 156.841 267.357L168.59 274.269C168.79 274.388 168.955 274.557 169.07 274.758C169.185 274.96 169.246 275.188 169.247 275.421V298.966C169.244 299.201 169.179 299.43 169.06 299.632C168.941 299.834 168.771 300.002 168.567 300.118C168.365 300.24 168.135 300.307 167.899 300.314ZM157.532 291.306L166.575 296.616V276.193L157.532 270.871V291.306Z" fill="#542B63"/>
<path d="M254.765 253.937C254.033 253.94 253.314 253.736 252.692 253.35L235.689 243.144C234.84 242.56 234.247 241.673 234.029 240.666C233.812 239.659 233.987 238.606 234.519 237.724C235.052 236.842 235.901 236.196 236.893 235.919C237.886 235.641 238.947 235.754 239.859 236.232L256.839 246.45C257.598 246.905 258.187 247.598 258.515 248.421C258.843 249.243 258.891 250.151 258.653 251.004C258.415 251.857 257.903 252.609 257.197 253.143C256.49 253.677 255.628 253.964 254.742 253.96L254.765 253.937Z" fill="white"/>
<path d="M211.499 228.399C210.778 228.398 210.069 228.203 209.449 227.835L193.495 218.412C192.98 218.174 192.522 217.832 192.148 217.406C191.775 216.98 191.495 216.48 191.327 215.939C191.159 215.398 191.107 214.827 191.174 214.265C191.24 213.702 191.424 213.16 191.714 212.673C192.004 212.186 192.393 211.766 192.855 211.439C193.318 211.112 193.844 210.886 194.4 210.775C194.955 210.664 195.528 210.672 196.08 210.797C196.633 210.922 197.153 211.161 197.607 211.5L213.561 220.923C214.324 221.375 214.917 222.064 215.249 222.886C215.581 223.708 215.634 224.616 215.4 225.471C215.166 226.325 214.657 227.08 213.952 227.617C213.248 228.154 212.386 228.445 211.499 228.445V228.399Z" fill="white"/>
<path d="M167.899 275.42L234.999 231.255L223.249 224.355L156.161 268.509L167.899 275.42Z" fill="#90D4F6"/>
<path d="M167.899 276.768C167.66 276.769 167.425 276.706 167.22 276.584L155.482 269.672C155.279 269.555 155.111 269.387 154.994 269.185C154.877 268.983 154.814 268.754 154.814 268.52C154.812 268.293 154.866 268.068 154.973 267.867C155.08 267.666 155.235 267.494 155.424 267.368L222.512 223.215C222.724 223.082 222.97 223.012 223.22 223.012C223.471 223.012 223.716 223.082 223.929 223.215L235.69 230.127C235.887 230.248 236.051 230.417 236.165 230.619C236.28 230.82 236.342 231.047 236.347 231.278C236.351 231.505 236.298 231.729 236.194 231.931C236.089 232.132 235.936 232.304 235.748 232.43L168.648 276.549C168.426 276.694 168.165 276.77 167.899 276.768ZM158.684 268.451L167.899 273.842L232.488 231.325L223.272 225.945L158.684 268.451Z" fill="#542B63"/>
<path d="M260.617 287.782C259.545 287.782 258.517 287.356 257.758 286.597C257 285.839 256.574 284.811 256.574 283.738V261.368C256.651 260.351 257.109 259.401 257.857 258.708C258.604 258.015 259.586 257.63 260.606 257.63C261.625 257.63 262.607 258.015 263.355 258.708C264.103 259.401 264.561 260.351 264.638 261.368V283.738C264.638 284.807 264.215 285.832 263.462 286.589C262.708 287.347 261.686 287.776 260.617 287.782Z" fill="white"/>
<path d="M232.384 302.721L229.17 299.219L225.944 295.706L222.719 303.355L219.494 311.015L223.56 308.4V334.077L228.317 331.012V305.336L232.384 302.721Z" fill="#542B63"/>
<path d="M250.503 291.075L247.289 287.561L244.064 284.06L240.839 291.708L237.613 299.369L241.68 296.754V322.419L246.437 319.366V293.69L250.503 291.075Z" fill="#542B63"/>
<path d="M252.288 320.921L217.719 343.142V339.502L252.288 317.281V320.921Z" fill="#542B63"/>
<path d="M64.8593 174.731C58.7079 174.731 52.6946 176.556 47.58 179.973C42.4653 183.391 38.4789 188.248 36.1248 193.931C33.7708 199.614 33.1549 205.868 34.355 211.901C35.555 217.934 38.5172 223.476 42.8669 227.826C47.2166 232.175 52.7584 235.138 58.7916 236.338C64.8248 237.538 71.0783 236.922 76.7614 234.568C82.4446 232.214 87.302 228.227 90.7196 223.113C94.1371 217.998 95.9612 211.985 95.9612 205.833C95.9612 197.585 92.6844 189.674 86.8516 183.841C81.0189 178.008 73.108 174.731 64.8593 174.731ZM64.8593 228.872C60.3027 228.872 55.8484 227.521 52.0598 224.989C48.2711 222.458 45.3182 218.86 43.5745 214.65C41.8308 210.44 41.3745 205.808 42.2635 201.339C43.1524 196.87 45.3466 192.765 48.5686 189.543C51.7906 186.321 55.8957 184.127 60.3647 183.238C64.8337 182.349 69.466 182.805 73.6757 184.549C77.8854 186.292 81.4835 189.245 84.015 193.034C86.5465 196.823 87.8977 201.277 87.8977 205.833C87.9007 208.861 87.3071 211.859 86.1506 214.657C84.9942 217.455 83.2977 219.997 81.1581 222.139C79.0184 224.281 76.4777 225.98 73.681 227.139C70.8844 228.298 67.8867 228.895 64.8593 228.895V228.872Z" fill="#A1DAF8"/>
<path d="M64.8595 238.431C58.4175 238.427 52.1214 236.512 46.7673 232.93C41.4132 229.347 37.2414 224.258 34.7793 218.305C32.3172 212.352 31.6754 205.803 32.9349 199.485C34.1945 193.168 37.2989 187.365 41.8557 182.812C46.4125 178.258 52.2171 175.158 58.5357 173.903C64.8542 172.647 71.4031 173.294 77.3543 175.76C83.3055 178.227 88.3919 182.402 91.9704 187.759C95.5489 193.115 97.4589 199.413 97.4589 205.855C97.4467 214.495 94.0075 222.777 87.8959 228.884C81.7843 234.992 73.4996 238.425 64.8595 238.431ZM64.8595 176.227C58.9906 176.227 53.2536 177.968 48.3738 181.228C43.494 184.489 39.6907 189.123 37.4447 194.545C35.1988 199.967 34.6112 205.934 35.7561 211.69C36.9011 217.446 39.7272 222.733 43.8772 226.883C48.0271 231.033 53.3144 233.859 59.0705 235.004C64.8266 236.149 70.7929 235.561 76.2151 233.316C81.6372 231.07 86.2716 227.266 89.5321 222.387C92.7927 217.507 94.533 211.77 94.533 205.901C94.5361 198.026 91.4122 190.472 85.848 184.899C80.2838 179.326 72.7346 176.19 64.8595 176.181V176.227ZM64.8595 230.368C60.0156 230.361 55.2823 228.918 51.2579 226.222C47.2334 223.527 44.0984 219.698 42.2489 215.221C40.3994 210.744 39.9185 205.82 40.8668 201.069C41.8152 196.319 44.1503 191.957 47.5771 188.533C51.0039 185.109 55.3686 182.778 60.1197 181.835C64.8708 180.891 69.7951 181.376 74.2703 183.23C78.7456 185.084 82.5709 188.222 85.263 192.249C87.9551 196.276 89.3932 201.011 89.3955 205.855C89.3863 212.355 86.7969 218.586 82.1961 223.178C77.5954 227.77 71.3598 230.348 64.8595 230.345V230.368ZM64.8595 184.291C60.59 184.291 56.4164 185.557 52.8664 187.929C49.3164 190.301 46.5496 193.672 44.9157 197.617C43.2818 201.561 42.8543 205.902 43.6873 210.089C44.5202 214.277 46.5762 218.123 49.5952 221.142C52.6142 224.161 56.4606 226.217 60.6481 227.05C64.8356 227.883 69.176 227.455 73.1205 225.822C77.065 224.188 80.4365 221.421 82.8085 217.871C85.1805 214.321 86.4465 210.147 86.4465 205.878C86.4465 200.15 84.1729 194.657 80.1252 190.605C76.0776 186.553 70.5869 184.274 64.8595 184.268V184.291Z" fill="#542B63"/>
<g style="mix-blend-mode:multiply">
<path d="M85.6518 229.977C85.6087 229.718 85.4974 229.475 85.3294 229.272C85.1615 229.07 84.9428 228.916 84.6957 228.826C81.6971 227.78 78.7755 226.525 75.9527 225.07C75.7477 224.965 75.5206 224.91 75.2903 224.91C75.0599 224.91 74.8329 224.965 74.6279 225.07C71.6017 226.605 68.2527 227.395 64.8596 227.374C60.9234 227.375 57.0621 226.298 53.6937 224.262C50.3253 222.225 47.5783 219.306 45.7499 215.82C43.9216 212.334 43.0817 208.415 43.3212 204.486C43.5606 200.557 44.8704 196.769 47.1085 193.531C47.2413 193.338 47.3253 193.115 47.3534 192.882C47.3815 192.65 47.3528 192.414 47.2698 192.194C46.1554 189.252 45.296 186.219 44.701 183.129C44.6572 182.864 44.5416 182.617 44.3669 182.414C44.1922 182.211 43.9651 182.06 43.7103 181.977C43.46 181.895 43.192 181.884 42.9359 181.945C42.6798 182.006 42.4455 182.137 42.2589 182.322C36.2179 188.126 32.6456 196.034 32.2847 204.403C31.9237 212.772 34.8018 220.959 40.3207 227.261C45.8395 233.563 53.5747 237.496 61.9184 238.242C70.262 238.988 78.5723 236.49 85.122 231.268C85.3115 231.114 85.4594 230.916 85.552 230.69C85.6446 230.465 85.679 230.22 85.6518 229.977Z" fill="#D2D2D2"/>
</g>
<g style="mix-blend-mode:multiply">
<mask id="mask0_700_928" style="mask-type:luminance" maskUnits="userSpaceOnUse" x="41" y="182" width="47" height="47">
<path d="M87.6114 209.584C89.6632 197.027 81.1469 185.184 68.5896 183.132C56.0324 181.08 44.1894 189.596 42.1375 202.154C40.0857 214.711 48.602 226.554 61.1593 228.606C73.7166 230.658 85.5596 222.141 87.6114 209.584Z" fill="white"/>
</mask>
<g mask="url(#mask0_700_928)">
<path d="M87.898 183.128L87.1377 182.817H87.898V183.128Z" fill="#F1F7FB"/>
<path d="M87.8985 183.785L85.5371 182.817H87.1383L87.8985 183.128V183.785Z" fill="#EFF6FB"/>
<path d="M87.8982 184.453L83.9355 182.817H85.5367L87.8982 183.785V184.453Z" fill="#EEF6FB"/>
<path d="M87.8983 185.11L82.3345 182.817H83.9356L87.8983 184.453V185.11Z" fill="#EDF5FA"/>
<path d="M87.8979 185.766L80.7329 182.817H82.3341L87.8979 185.11V185.766Z" fill="#ECF5FA"/>
<path d="M87.8983 186.434L79.1206 182.817H80.7333L87.8983 185.766V186.434Z" fill="#EBF4FA"/>
<path d="M87.8984 187.091L77.5195 182.817H79.1207L87.8984 186.434V187.091Z" fill="#EAF4FA"/>
<path d="M87.8985 187.748L75.9185 182.817H77.5196L87.8985 187.091V187.748Z" fill="#E9F3F9"/>
<path d="M87.8981 188.416L74.3169 182.817H75.9181L87.8981 187.748V188.416Z" fill="#E8F2F9"/>
<path d="M87.8982 189.072L72.7158 182.817H74.317L87.8982 188.416V189.072Z" fill="#E7F2F9"/>
<path d="M87.8981 189.729L71.103 182.817H72.7157L87.8981 189.072V189.729Z" fill="#E6F1F8"/>
<path d="M87.8982 190.397L69.502 182.817H71.1031L87.8982 189.729V190.397Z" fill="#E5F1F8"/>
<path d="M87.8983 191.054L67.9009 182.817H69.5021L87.8983 190.397V191.054Z" fill="#E4F0F8"/>
<path d="M87.8979 191.71L66.2993 182.817H67.9005L87.8979 191.054V191.71Z" fill="#E3EFF8"/>
<path d="M87.898 192.378L64.6982 182.817H66.2994L87.898 191.71V192.378Z" fill="#E2EFF7"/>
<path d="M87.8984 193.035L63.0859 182.817H64.6986L87.8984 192.378V193.035Z" fill="#E1EEF7"/>
<path d="M87.898 193.692L61.4844 182.817H63.0855L87.898 193.035V193.692Z" fill="#E0EEF7"/>
<path d="M87.8985 194.36L59.8838 182.817H61.485L87.8985 193.692V194.36Z" fill="#DFEDF6"/>
<path d="M87.8982 195.016L58.2822 182.817H59.8834L87.8982 194.36V195.016Z" fill="#DEEDF6"/>
<path d="M87.8983 195.673L56.6812 182.817H58.2823L87.8983 195.016V195.673Z" fill="#DCECF6"/>
<path d="M87.8979 196.341L55.0796 182.817H56.6808L87.8979 195.673V196.341Z" fill="#DBEBF5"/>
<path d="M87.8983 196.998L53.4673 182.817H55.08L87.8983 196.341V196.998Z" fill="#DAEBF5"/>
<path d="M87.8988 197.654L51.8667 182.817H53.4679L87.8988 196.998V197.654Z" fill="#D9EAF5"/>
<path d="M87.898 198.322L50.2646 182.817H51.8658L87.898 197.654V198.322Z" fill="#D8EAF4"/>
<path d="M87.8981 198.979L48.6636 182.817H50.2647L87.8981 198.322V198.979Z" fill="#D7E9F4"/>
<path d="M87.8982 199.647L47.0625 182.817H48.6637L87.8982 198.979V199.647Z" fill="#D6E8F4"/>
<path d="M87.8988 200.304L45.4619 182.817H47.0631L87.8988 199.647V200.304Z" fill="#D5E8F3"/>
<path d="M87.898 200.96L43.9521 182.852L43.9752 182.817H45.4612L87.898 200.304V200.96Z" fill="#D4E7F3"/>
<path d="M87.8984 201.629L43.7222 183.417L43.9526 182.853L87.8984 200.961V201.629Z" fill="#D3E7F3"/>
<path d="M87.8983 202.284L43.4917 183.979L43.7221 183.415L87.8983 201.627V202.284Z" fill="#D2E6F2"/>
<path d="M87.8982 202.941L43.2612 184.545L43.4916 183.98L87.8982 202.285V202.941Z" fill="#D1E5F2"/>
<path d="M87.8982 203.609L43.0308 185.109L43.2611 184.545L87.8982 202.941V203.609Z" fill="#D0E5F2"/>
<path d="M87.8979 204.266L42.7886 185.674L43.0305 185.109L87.8979 203.609V204.266Z" fill="#CFE4F1"/>
<path d="M87.8983 204.923L42.5586 186.239L42.789 185.675L87.8983 204.267V204.923Z" fill="#CEE4F1"/>
<path d="M87.8982 205.591L42.3281 186.803L42.5585 186.238L87.8982 204.922V205.591Z" fill="#CDE3F1"/>
<path d="M87.8986 206.247L42.0981 187.379L42.3285 186.803L87.8986 205.591V206.247Z" fill="#CCE2F0"/>
<path d="M87.898 206.904L41.8672 187.943L42.0976 187.379L87.898 206.247V206.904Z" fill="#CBE2F0"/>
<path d="M87.8982 207.572L41.8213 188.577V188.036L41.8674 187.943L87.8982 206.904V207.572Z" fill="#C9E1F0"/>
<path d="M87.8982 208.229L41.8213 189.245V188.577L87.8982 207.572V208.229Z" fill="#C8E1EF"/>
<path d="M87.8982 208.885L41.8213 189.902V189.245L87.8982 208.229V208.885Z" fill="#C7E0EF"/>
<path d="M87.8982 209.554L41.8213 190.57V189.902L87.8982 208.886V209.554Z" fill="#C6DFEF"/>
<path d="M87.8982 210.21L41.8213 191.226V190.569L87.8982 209.553V210.21Z" fill="#C5DFEE"/>
<path d="M87.8982 210.867L41.8213 191.883V191.227L87.8982 210.21V210.867Z" fill="#C4DEEE"/>
<path d="M87.8982 211.535L41.8213 192.551V191.883L87.8982 210.866V211.535Z" fill="#C3DEEE"/>
<path d="M87.8982 212.191L41.8213 193.207V192.551L87.8982 211.534V212.191Z" fill="#C2DDED"/>
<path d="M87.8982 212.847L41.8213 193.864V193.207L87.8982 212.191V212.847Z" fill="#C1DDED"/>
<path d="M87.8982 213.516L41.8213 194.532V193.864L87.8982 212.848V213.516Z" fill="#C0DCED"/>
<path d="M87.8982 214.172L41.8213 195.188V194.531L87.8982 213.515V214.172Z" fill="#BFDCEC"/>
<path d="M87.8982 214.84L41.8213 195.845V195.188L87.8982 214.172V214.84Z" fill="#BEDBEC"/>
<path d="M87.8982 215.497L41.8213 196.513V195.845L87.8982 214.84V215.497Z" fill="#BDDAEC"/>
<path d="M87.8982 216.153L41.8213 197.169V196.513L87.8982 215.496V216.153Z" fill="#BCDAEB"/>
<path d="M87.8982 216.822L41.8213 197.827V197.17L87.8982 216.154V216.822Z" fill="#BBD9EB"/>
<path d="M87.8982 217.479L41.8213 198.495V197.827L87.8982 216.822V217.479Z" fill="#BAD9EB"/>
<path d="M87.8982 218.135L41.8213 199.152V198.495L87.8982 217.479V218.135Z" fill="#B9D8EA"/>
<path d="M87.8982 218.802L41.8213 199.807V199.15L87.8982 218.134V218.802Z" fill="#B8D8EA"/>
<path d="M87.8982 219.46L41.8213 200.477V199.809L87.8982 218.804V219.46Z" fill="#B7D7EA"/>
<path d="M87.8982 220.116L41.8213 201.132V200.476L87.8982 219.459V220.116Z" fill="#B6D6E9"/>
<path d="M87.8982 220.785L41.8213 201.789V201.133L87.8982 220.116V220.785Z" fill="#B4D6E9"/>
<path d="M87.8982 221.441L41.8213 202.457V201.789L87.8982 220.784V221.441Z" fill="#B3D5E9"/>
<path d="M87.8982 222.097L41.8213 203.114V202.457L87.8982 221.441V222.097Z" fill="#B2D5E8"/>
<path d="M87.8982 222.766L41.8213 203.771V203.114L87.8982 222.098V222.766Z" fill="#B1D4E8"/>
<path d="M87.8982 223.422L41.8213 204.439V203.771L87.8982 222.766V223.422Z" fill="#B0D4E8"/>
<path d="M87.8982 223.675L87.76 224.02L41.8213 205.094V204.438L87.8982 223.421V223.675Z" fill="#AFD3E7"/>
<path d="M87.76 224.021L87.5296 224.585L41.8213 205.751V205.095L87.76 224.021Z" fill="#AED2E7"/>
<path d="M87.5296 224.586L87.2877 225.15L41.8213 206.42V205.752L87.5296 224.586Z" fill="#ADD2E7"/>
<path d="M87.2877 225.15L87.0573 225.715L41.8213 207.077V206.42L87.2877 225.15Z" fill="#ACD1E6"/>
<path d="M87.0573 225.714L86.8269 226.279L41.8213 207.744V207.076L87.0573 225.714Z" fill="#AAD1E6"/>
<path d="M86.8269 226.279L86.5965 226.843L41.8213 208.401V207.744L86.8269 226.279Z" fill="#A9D0E6"/>
<path d="M86.5965 226.844L86.3662 227.408L41.8213 209.058V208.401L86.5965 226.844Z" fill="#A8CFE5"/>
<path d="M86.3662 227.408L86.1358 227.972L41.8213 209.726V209.058L86.3662 227.408Z" fill="#A7CFE5"/>
<path d="M86.1358 227.973L85.8939 228.537L41.8213 210.383V209.727L86.1358 227.973Z" fill="#A6CEE5"/>
<path d="M85.8939 228.536L85.7556 228.893H85.1451L41.8213 211.038V210.382L85.8939 228.536Z" fill="#A5CEE4"/>
<path d="M83.5439 228.894L41.8213 211.707V211.039L85.1451 228.894H83.5439Z" fill="#A4CDE4"/>
<path d="M81.9428 228.895L41.8213 212.365V211.708L83.5439 228.895H81.9428Z" fill="#A3CDE4"/>
<path d="M80.3301 228.894L41.8213 213.021V212.364L81.9428 228.894H80.3301Z" fill="#A1CCE3"/>
<path d="M78.7289 228.894L41.8213 213.689V213.021L80.3301 228.894H78.7289Z" fill="#A0CBE3"/>
<path d="M77.1277 228.894L41.8213 214.345V213.688L78.7289 228.894H77.1277Z" fill="#9FCBE3"/>
<path d="M75.5266 228.894L41.8213 215.002V214.346L77.1277 228.894H75.5266Z" fill="#9ECAE2"/>
<path d="M73.9254 228.894L41.8213 215.67V215.002L75.5265 228.894H73.9254Z" fill="#9DCAE2"/>
<path d="M72.3242 228.894L41.8213 216.327V215.67L73.9254 228.894H72.3242Z" fill="#9CC9E2"/>
<path d="M70.7115 228.894L41.8213 216.983V216.326L72.3242 228.894H70.7115Z" fill="#9AC8E1"/>
<path d="M69.1103 228.894L41.8213 217.652V216.983L70.7115 228.894H69.1103Z" fill="#99C8E1"/>
<path d="M67.5092 228.894L41.8213 218.308V217.651L69.1103 228.894H67.5092Z" fill="#98C7E1"/>
<path d="M65.908 228.894L41.8213 218.964V218.308L67.5092 228.894H65.908Z" fill="#97C7E0"/>
<path d="M64.3068 228.894L41.8213 219.633V218.965L65.908 228.894H64.3068Z" fill="#96C6E0"/>
<path d="M62.7057 228.894L41.8213 220.289V219.633L64.3068 228.894H62.7057Z" fill="#95C6E0"/>
<path d="M61.093 228.895L41.8213 220.947V220.29L62.7057 228.895H61.093Z" fill="#93C5DF"/>
<path d="M59.4918 228.894L41.8213 221.613V220.945L61.093 228.894H59.4918Z" fill="#92C4DF"/>
<path d="M57.8906 228.894L41.8213 222.271V221.614L59.4918 228.894H57.8906Z" fill="#91C4DE"/>
<path d="M56.2894 228.894L41.8213 222.927V222.271L57.8906 228.894H56.2894Z" fill="#90C3DE"/>
<path d="M54.6883 228.895L41.8213 223.596V222.928L56.2894 228.895H54.6883Z" fill="#8FC3DE"/>
<path d="M53.0871 228.895L41.8213 224.252V223.596L54.6883 228.895H53.0871Z" fill="#8EC2DD"/>
<path d="M51.4744 228.894L41.8213 224.909V224.252L53.0871 228.894H51.4744Z" fill="#8DC2DD"/>
<path d="M49.8732 228.894L41.8213 225.576V224.908L51.4744 228.894H49.8732Z" fill="#8BC1DD"/>
<path d="M48.2721 228.894L41.8213 226.233V225.576L49.8732 228.894H48.2721Z" fill="#8AC0DC"/>
<path d="M46.6709 228.894L41.8213 226.89V226.233L48.2721 228.894H46.6709Z" fill="#89C0DC"/>
<path d="M45.0697 228.894L41.8213 227.558V226.89L46.6709 228.894H45.0697Z" fill="#88BFDC"/>
<path d="M43.4685 228.894L41.8213 228.214V227.558L45.0697 228.894H43.4685Z" fill="#87BFDB"/>
<path d="M41.8558 228.894L41.8213 228.883V228.215L43.4685 228.894H41.8558Z" fill="#86BEDB"/>
<path d="M41.8213 228.883L41.8558 228.894H41.8213V228.883Z" fill="#84BEDB"/>
</g>
</g>
<path d="M67.0482 236.877H62.6133V251.979H67.0482V236.877Z" fill="#542B63"/>
<path d="M56.5775 247.612C56.5239 247.994 56.4931 248.379 56.4854 248.764V282.17C56.4854 284.391 57.3677 286.521 58.9382 288.092C60.5087 289.662 62.6388 290.544 64.8598 290.544C67.0809 290.544 69.211 289.662 70.7815 288.092C72.352 286.521 73.2343 284.391 73.2343 282.17V248.764C73.2321 248.379 73.2013 247.993 73.1422 247.612H56.5775Z" fill="#F0827F"/>
<path d="M64.8596 292.031C62.2535 292.025 59.756 290.986 57.9143 289.142C56.0726 287.298 55.0367 284.8 55.0337 282.193V248.788C55.0372 248.329 55.0719 247.871 55.1374 247.417C55.1873 247.071 55.3605 246.755 55.625 246.526C55.8895 246.297 56.2277 246.172 56.5773 246.173H73.1419C73.4928 246.172 73.8325 246.297 74.0989 246.525C74.3654 246.753 74.5408 247.07 74.5933 247.417C74.6588 247.871 74.6935 248.329 74.697 248.788V282.193C74.694 284.802 73.6565 287.302 71.8123 289.146C69.9681 290.99 67.4677 292.028 64.8596 292.031ZM57.9481 249.064V282.193C57.9481 284.027 58.6762 285.785 59.9724 287.081C61.2686 288.377 63.0265 289.105 64.8596 289.105C66.6927 289.105 68.4506 288.377 69.7468 287.081C71.043 285.785 71.7711 284.027 71.7711 282.193V249.064H57.9481Z" fill="#542B63"/>
<g style="mix-blend-mode:multiply">
<path d="M74.098 283.08C65.2074 273.262 59.8693 260.744 58.9387 247.532C58.9209 247.16 58.7597 246.81 58.4891 246.554C58.2185 246.299 57.8595 246.158 57.4873 246.161H56.5773C56.2277 246.16 55.8895 246.286 55.625 246.514C55.3605 246.743 55.1873 247.059 55.1374 247.405C55.0719 247.859 55.0372 248.317 55.0337 248.776V282.182C55.0497 284.585 55.9455 286.898 57.5519 288.685C59.1583 290.472 61.3638 291.609 63.7514 291.88C66.1389 292.151 68.543 291.537 70.509 290.156C72.475 288.774 73.8665 286.72 74.4206 284.382C74.4745 284.155 74.4733 283.918 74.4172 283.692C74.3611 283.466 74.2517 283.256 74.098 283.08Z" fill="#D2D2D2"/>
</g>
<path d="M82.5765 202.469C82.0727 202.472 81.5804 202.319 81.1676 202.03C80.7549 201.741 80.4422 201.331 80.2726 200.856C75.8723 188.427 61.7497 189.36 61.646 189.36C61.0271 189.37 60.4279 189.143 59.9707 188.725C59.5135 188.308 59.2328 187.732 59.1857 187.115C59.1387 186.497 59.329 185.886 59.7177 185.404C60.1064 184.922 60.6642 184.607 61.2774 184.522C67.4633 184.05 80.3417 186.527 84.8688 199.232C85.0831 199.839 85.0482 200.505 84.7718 201.086C84.4954 201.667 84.0001 202.115 83.3943 202.331C83.1314 202.422 82.8549 202.469 82.5765 202.469Z" fill="white"/>
<path d="M316.831 240.644C347.795 240.644 372.895 215.543 372.895 184.58C372.895 153.616 347.795 128.516 316.831 128.516C285.868 128.516 260.767 153.616 260.767 184.58C260.767 215.543 285.868 240.644 316.831 240.644Z" fill="#A1DAF8"/>
<path d="M316.831 242.095C305.456 242.095 294.336 238.721 284.878 232.401C275.419 226.082 268.047 217.099 263.694 206.589C259.341 196.08 258.202 184.515 260.421 173.358C262.64 162.201 268.118 151.953 276.162 143.909C284.206 135.866 294.454 130.388 305.611 128.169C316.768 125.949 328.332 127.088 338.842 131.442C349.351 135.795 358.334 143.167 364.654 152.625C370.974 162.083 374.347 173.204 374.347 184.579C374.326 199.827 368.259 214.443 357.478 225.225C346.696 236.007 332.079 242.073 316.831 242.095ZM316.831 129.966C306.03 129.964 295.47 133.165 286.487 139.165C277.505 145.164 270.503 153.693 266.368 163.672C262.232 173.651 261.149 184.632 263.255 195.226C265.361 205.821 270.562 215.553 278.199 223.192C285.836 230.831 295.567 236.033 306.161 238.141C316.755 240.25 327.737 239.169 337.717 235.036C347.696 230.902 356.226 223.903 362.228 214.921C368.229 205.94 371.433 195.381 371.433 184.579C371.414 170.102 365.656 156.224 355.421 145.986C345.185 135.749 331.308 129.988 316.831 129.966Z" fill="#542B63"/>
<path d="M316.831 226.636C340.058 226.636 358.888 207.806 358.888 184.579C358.888 161.352 340.058 142.522 316.831 142.522C293.604 142.522 274.774 161.352 274.774 184.579C274.774 207.806 293.604 226.636 316.831 226.636Z" fill="white"/>
<path d="M316.831 228.088C308.226 228.088 299.814 225.536 292.659 220.755C285.504 215.974 279.928 209.179 276.635 201.229C273.342 193.279 272.48 184.531 274.159 176.091C275.838 167.652 279.981 159.899 286.066 153.815C292.151 147.73 299.903 143.586 308.343 141.907C316.783 140.229 325.531 141.09 333.481 144.383C341.431 147.676 348.226 153.253 353.007 160.408C357.787 167.562 360.339 175.974 360.339 184.579C360.324 196.114 355.735 207.171 347.579 215.328C339.423 223.484 328.365 228.072 316.831 228.088ZM316.831 143.997C308.799 143.995 300.948 146.374 294.269 150.835C287.59 155.295 282.383 161.636 279.308 169.056C276.233 176.475 275.427 184.64 276.993 192.517C278.558 200.395 282.425 207.631 288.103 213.311C293.781 218.991 301.016 222.859 308.893 224.427C316.77 225.994 324.935 225.191 332.356 222.118C339.776 219.045 346.118 213.841 350.581 207.163C355.043 200.485 357.425 192.634 357.425 184.602C357.419 173.835 353.141 163.51 345.53 155.893C337.92 148.276 327.598 143.989 316.831 143.974V143.997Z" fill="#542B63"/>
<path d="M316.831 154.007C316.64 154.009 316.45 153.972 316.272 153.9C316.095 153.828 315.933 153.721 315.797 153.586C315.661 153.451 315.553 153.291 315.48 153.114C315.406 152.937 315.368 152.748 315.368 152.556V142.523C315.401 142.159 315.568 141.82 315.838 141.573C316.107 141.326 316.46 141.189 316.825 141.189C317.191 141.189 317.543 141.326 317.813 141.573C318.083 141.82 318.25 142.159 318.283 142.523V152.556C318.283 152.941 318.13 153.31 317.857 153.582C317.585 153.854 317.216 154.007 316.831 154.007Z" fill="#542B63"/>
<path d="M316.831 228.088C316.64 228.09 316.45 228.054 316.272 227.981C316.095 227.909 315.933 227.802 315.797 227.667C315.661 227.532 315.553 227.372 315.48 227.195C315.406 227.018 315.368 226.829 315.368 226.637V216.604C315.401 216.24 315.568 215.901 315.838 215.654C316.107 215.407 316.46 215.271 316.825 215.271C317.191 215.271 317.543 215.407 317.813 215.654C318.083 215.901 318.25 216.24 318.283 216.604V226.637C318.283 227.022 318.13 227.391 317.857 227.663C317.585 227.936 317.216 228.088 316.831 228.088Z" fill="#542B63"/>
<path d="M358.946 186.03H348.912C348.71 186.048 348.506 186.024 348.314 185.959C348.122 185.894 347.945 185.79 347.795 185.653C347.645 185.516 347.526 185.349 347.444 185.163C347.362 184.977 347.32 184.776 347.32 184.573C347.32 184.37 347.362 184.169 347.444 183.984C347.526 183.798 347.645 183.631 347.795 183.494C347.945 183.357 348.122 183.253 348.314 183.187C348.506 183.122 348.71 183.098 348.912 183.116H358.946C359.31 183.149 359.649 183.316 359.895 183.586C360.142 183.855 360.279 184.208 360.279 184.573C360.279 184.939 360.142 185.291 359.895 185.561C359.649 185.831 359.31 185.998 358.946 186.03Z" fill="#542B63"/>
<path d="M284.808 186.03H274.774C274.572 186.048 274.368 186.024 274.176 185.959C273.984 185.894 273.807 185.79 273.657 185.653C273.507 185.516 273.388 185.349 273.306 185.163C273.224 184.977 273.182 184.776 273.182 184.573C273.182 184.37 273.224 184.169 273.306 183.984C273.388 183.798 273.507 183.631 273.657 183.494C273.807 183.357 273.984 183.253 274.176 183.187C274.368 183.122 274.572 183.098 274.774 183.116H284.808C285.172 183.149 285.51 183.316 285.757 183.586C286.004 183.855 286.141 184.208 286.141 184.573C286.141 184.939 286.004 185.291 285.757 185.561C285.51 185.831 285.172 185.998 284.808 186.03Z" fill="#542B63"/>
<path d="M294.185 162.866C293.927 162.867 293.679 162.768 293.493 162.589L286.375 155.528C286.285 155.437 286.213 155.33 286.165 155.211C286.116 155.093 286.092 154.966 286.092 154.838C286.093 154.711 286.119 154.584 286.168 154.466C286.217 154.348 286.29 154.241 286.38 154.151C286.471 154.061 286.579 153.99 286.697 153.942C286.815 153.893 286.942 153.869 287.07 153.869C287.198 153.87 287.324 153.895 287.442 153.945C287.56 153.994 287.667 154.066 287.757 154.157L294.841 161.253C294.975 161.388 295.065 161.56 295.102 161.746C295.139 161.933 295.119 162.126 295.047 162.302C294.974 162.477 294.852 162.628 294.694 162.734C294.537 162.841 294.352 162.898 294.162 162.9L294.185 162.866Z" fill="#542B63"/>
<path d="M346.562 215.29C346.435 215.291 346.309 215.266 346.192 215.217C346.075 215.167 345.97 215.094 345.882 215.002L338.786 207.907C338.605 207.725 338.502 207.478 338.502 207.221C338.502 206.964 338.605 206.718 338.786 206.536C338.968 206.354 339.215 206.252 339.472 206.252C339.729 206.252 339.975 206.354 340.157 206.536L347.253 213.632C347.386 213.769 347.475 213.942 347.51 214.13C347.546 214.318 347.526 214.512 347.452 214.688C347.379 214.864 347.255 215.015 347.097 215.122C346.939 215.229 346.753 215.288 346.562 215.29Z" fill="#542B63"/>
<path d="M339.478 162.866C339.287 162.866 339.1 162.81 338.941 162.705C338.781 162.599 338.657 162.449 338.583 162.273C338.509 162.096 338.489 161.902 338.525 161.715C338.562 161.527 338.653 161.355 338.787 161.219L345.883 154.123C345.973 154.033 346.079 153.961 346.197 153.913C346.315 153.864 346.441 153.839 346.568 153.839C346.695 153.839 346.821 153.864 346.939 153.913C347.056 153.961 347.163 154.033 347.253 154.123C347.343 154.213 347.415 154.32 347.463 154.437C347.512 154.555 347.537 154.681 347.537 154.808C347.537 154.935 347.512 155.061 347.463 155.179C347.415 155.297 347.343 155.404 347.253 155.494L340.157 162.589C339.976 162.767 339.732 162.867 339.478 162.866Z" fill="#542B63"/>
<path d="M287.089 215.29C286.829 215.29 286.581 215.186 286.397 215.002C286.221 214.818 286.122 214.573 286.122 214.317C286.122 214.062 286.221 213.816 286.397 213.632L293.493 206.536C293.675 206.354 293.922 206.252 294.179 206.252C294.436 206.252 294.682 206.354 294.864 206.536C295.046 206.718 295.148 206.964 295.148 207.221C295.148 207.478 295.046 207.725 294.864 207.907L287.78 215.002C287.69 215.095 287.582 215.167 287.464 215.217C287.345 215.266 287.217 215.291 287.089 215.29Z" fill="#542B63"/>
<path d="M317.638 186.031C317.446 186.032 317.257 185.996 317.08 185.924C316.903 185.851 316.743 185.744 316.608 185.609C316.473 185.474 316.366 185.314 316.293 185.137C316.221 184.96 316.185 184.771 316.186 184.58V166.322C316.186 165.937 316.339 165.567 316.611 165.295C316.883 165.023 317.253 164.87 317.638 164.87C318.022 164.87 318.392 165.023 318.664 165.295C318.936 165.567 319.089 165.937 319.089 166.322V184.591C319.089 184.781 319.051 184.969 318.978 185.145C318.905 185.32 318.798 185.479 318.663 185.613C318.528 185.747 318.368 185.853 318.192 185.925C318.016 185.996 317.828 186.032 317.638 186.031Z" fill="#542B63"/>
<path d="M335.907 186.031H317.637C317.273 185.998 316.935 185.831 316.688 185.561C316.441 185.291 316.304 184.939 316.304 184.573C316.304 184.208 316.441 183.856 316.688 183.586C316.935 183.316 317.273 183.149 317.637 183.116H335.907C336.271 183.149 336.61 183.316 336.857 183.586C337.103 183.856 337.24 184.208 337.24 184.573C337.24 184.939 337.103 185.291 336.857 185.561C336.61 185.831 336.271 185.998 335.907 186.031Z" fill="#542B63"/>
<path d="M317.638 187.736C319.381 187.736 320.794 186.323 320.794 184.58C320.794 182.837 319.381 181.424 317.638 181.424C315.895 181.424 314.481 182.837 314.481 184.58C314.481 186.323 315.895 187.736 317.638 187.736Z" fill="#A1DAF8"/>
<path d="M317.638 189.187C316.727 189.187 315.836 188.917 315.078 188.411C314.32 187.904 313.73 187.185 313.381 186.343C313.032 185.501 312.941 184.574 313.119 183.68C313.297 182.787 313.735 181.966 314.38 181.321C315.024 180.677 315.845 180.238 316.739 180.06C317.633 179.882 318.559 179.974 319.401 180.322C320.243 180.671 320.963 181.262 321.469 182.019C321.975 182.777 322.246 183.668 322.246 184.579C322.246 185.801 321.76 186.973 320.896 187.838C320.032 188.702 318.86 189.187 317.638 189.187ZM317.638 182.875C317.403 182.855 317.167 182.885 316.944 182.961C316.721 183.038 316.516 183.16 316.343 183.32C316.17 183.479 316.031 183.673 315.937 183.889C315.842 184.105 315.793 184.338 315.793 184.574C315.793 184.809 315.842 185.042 315.937 185.258C316.031 185.474 316.17 185.668 316.343 185.828C316.516 185.987 316.721 186.109 316.944 186.186C317.167 186.262 317.403 186.292 317.638 186.273C318.064 186.238 318.462 186.043 318.752 185.729C319.042 185.414 319.203 185.002 319.203 184.574C319.203 184.146 319.042 183.733 318.752 183.419C318.462 183.104 318.064 182.91 317.638 182.875Z" fill="#542B63"/>
<path d="M317.638 160.688L320.045 164.11L322.464 167.531H317.638H312.811L315.23 164.11L317.638 160.688Z" fill="#542B63"/>
<path d="M340.204 184.579L336.783 186.987L333.361 189.406V184.579V179.753L336.783 182.172L340.204 184.579Z" fill="#542B63"/>
<g style="mix-blend-mode:multiply">
<path d="M353.877 225.922C340.032 218.862 327.992 208.718 318.686 196.272C310.064 184.411 303.7 171.064 299.909 156.899C297.691 149.087 296.643 140.989 296.799 132.87C296.804 132.628 296.748 132.388 296.637 132.172C296.527 131.957 296.364 131.772 296.164 131.635C295.964 131.498 295.733 131.413 295.492 131.387C295.251 131.361 295.008 131.396 294.783 131.488C287.109 134.674 280.217 139.486 274.581 145.592C268.944 151.698 264.698 158.952 262.134 166.856C259.57 174.76 258.748 183.125 259.727 191.377C260.705 199.629 263.46 207.57 267.801 214.655C272.143 221.741 277.968 227.801 284.876 232.419C291.784 237.037 299.61 240.104 307.817 241.408C316.023 242.712 324.415 242.222 332.414 239.972C340.413 237.722 347.83 233.766 354.154 228.376C354.334 228.219 354.474 228.021 354.56 227.798C354.647 227.575 354.677 227.334 354.649 227.097C354.628 226.853 354.547 226.617 354.412 226.412C354.277 226.207 354.093 226.038 353.877 225.922Z" fill="#D2D2D2"/>
</g>
<path d="M363.484 164.848C362.94 164.847 362.407 164.694 361.945 164.407C361.483 164.12 361.111 163.71 360.869 163.223C350.064 141.337 326.553 137.351 326.311 137.305C325.933 137.246 325.57 137.113 325.243 136.914C324.916 136.715 324.632 136.453 324.406 136.144C324.181 135.835 324.018 135.484 323.928 135.112C323.838 134.74 323.822 134.354 323.881 133.976C323.94 133.598 324.072 133.235 324.272 132.908C324.471 132.581 324.733 132.297 325.042 132.071C325.351 131.846 325.701 131.683 326.073 131.593C326.445 131.503 326.831 131.487 327.21 131.546C328.292 131.707 353.9 135.934 366.075 160.632C366.247 160.975 366.348 161.348 366.374 161.731C366.4 162.113 366.35 162.497 366.227 162.86C366.104 163.223 365.91 163.558 365.657 163.846C365.403 164.134 365.095 164.369 364.751 164.537C364.359 164.738 363.925 164.845 363.484 164.848Z" fill="white"/>
<path d="M333.338 118.137C318.119 114.322 302.052 115.844 287.82 122.451C273.588 129.057 262.055 140.347 255.146 154.434L251.563 153.524L253.061 157.429L254.57 161.334L257.738 158.616L260.917 155.886L258.026 155.16C264.776 141.67 275.976 130.924 289.733 124.736C303.49 118.548 318.962 117.299 333.534 121.199C348.105 125.099 360.884 133.909 369.712 146.141C378.54 158.373 382.874 173.277 381.984 188.336L384.852 189.061C385.903 173.084 381.326 157.243 371.916 144.288C362.506 131.332 348.857 122.08 333.338 118.137Z" fill="#542B63"/>
<path d="M300.071 252.059C315.344 255.653 331.388 253.896 345.522 247.082C359.655 240.268 371.022 228.809 377.722 214.621L381.316 215.473L379.749 211.592L378.194 207.71L375.061 210.474L371.927 213.25L374.819 213.941C368.259 227.513 357.219 238.407 343.561 244.784C329.903 251.162 314.463 252.634 299.846 248.951C285.229 245.269 272.33 236.657 263.324 224.569C254.318 212.481 249.758 197.657 250.411 182.598L247.543 181.918C246.726 197.904 251.533 213.671 261.128 226.483C270.723 239.296 284.501 248.344 300.071 252.059Z" fill="#542B63"/>
<path d="M213.319 94.8105C213.319 89.2649 212.227 83.7735 210.105 78.65C207.983 73.5265 204.872 68.8712 200.951 64.9498C197.029 61.0284 192.374 57.9178 187.25 55.7956C182.127 53.6734 176.636 52.5811 171.09 52.5811C170.687 52.5811 170.284 52.5811 169.938 52.5811H168.729C157.529 52.5811 146.787 57.0302 138.868 64.9498C130.948 72.8694 126.499 83.6106 126.499 94.8105C126.499 105.742 129.16 123.701 169.696 179.523H170.18C210.659 123.701 213.319 105.742 213.319 94.8105Z" fill="#F0827F"/>
<path d="M170.122 180.974H169.639C169.413 180.973 169.19 180.918 168.99 180.814C168.79 180.71 168.617 180.559 168.487 180.375C130.243 127.743 124.979 108.149 124.979 94.8098C125.003 83.2304 129.614 72.1324 137.803 63.9456C145.992 55.7588 157.092 51.1502 168.671 51.1289H169.569H170.191H171.09C182.669 51.1502 193.769 55.7588 201.958 63.9456C210.147 72.1324 214.758 83.2304 214.782 94.8098C214.782 108.149 209.518 127.743 171.297 180.375C171.165 180.562 170.988 180.715 170.784 180.819C170.579 180.924 170.352 180.977 170.122 180.974ZM168.671 54.0433C157.862 54.0555 147.498 58.354 139.854 65.9963C132.21 73.6385 127.908 84.0005 127.893 94.8098C127.893 107.55 133.007 126.384 169.88 177.368C206.742 126.384 211.868 107.55 211.868 94.8098C211.853 84.0005 207.551 73.6385 199.907 65.9963C192.263 58.354 181.899 54.0555 171.09 54.0433H168.671Z" fill="#542B63"/>
<path d="M197.017 100.562C200.595 85.5676 191.34 70.5123 176.346 66.9347C161.352 63.3571 146.297 72.6119 142.72 87.6059C139.142 102.6 148.397 117.655 163.391 121.233C178.385 124.81 193.44 115.556 197.017 100.562Z" fill="white"/>
<path d="M169.88 123.459C164.07 123.461 158.39 121.74 153.558 118.514C148.726 115.288 144.959 110.701 142.734 105.334C140.509 99.9667 139.926 94.0602 141.058 88.3615C142.19 82.6627 144.986 77.4277 149.094 73.3185C153.202 69.2093 158.436 66.4105 164.134 65.2762C169.832 64.1419 175.739 64.7229 181.107 66.9458C186.475 69.1687 191.063 72.9337 194.292 77.7644C197.52 82.5952 199.243 88.2749 199.243 94.085C199.237 101.872 196.141 109.338 190.637 114.845C185.132 120.352 177.667 123.45 169.88 123.459ZM169.88 67.6368C164.64 67.6368 159.518 69.1907 155.161 72.1019C150.804 75.0131 147.408 79.151 145.403 83.9922C143.397 88.8333 142.873 94.1604 143.895 99.2998C144.917 104.439 147.441 109.16 151.146 112.865C154.851 116.571 159.572 119.094 164.711 120.116C169.851 121.138 175.178 120.614 180.019 118.609C184.86 116.603 188.998 113.207 191.909 108.85C194.821 104.494 196.374 99.3711 196.374 94.1311C196.374 87.1044 193.583 80.3654 188.614 75.3968C183.646 70.4282 176.907 67.6368 169.88 67.6368Z" fill="#542B63"/>
<g style="mix-blend-mode:multiply">
<path d="M190.385 150.46C184.9 145.407 180.087 139.669 176.066 133.388C162.243 111.963 156.841 82.9342 161.091 53.7675C161.122 53.5393 161.098 53.3071 161.023 53.0898C160.947 52.8724 160.82 52.6761 160.654 52.5167C160.488 52.3573 160.287 52.2394 160.066 52.1725C159.846 52.1056 159.613 52.0916 159.386 52.1318C149.659 54.2838 140.952 59.6817 134.699 67.438C128.446 75.1944 125.018 84.8475 124.979 94.8105C124.979 108.15 130.243 127.744 168.464 180.375C168.594 180.56 168.767 180.71 168.967 180.815C169.167 180.919 169.39 180.974 169.616 180.974H170.099C170.325 180.974 170.548 180.919 170.748 180.815C170.948 180.71 171.121 180.56 171.251 180.375C178.635 170.204 185.132 160.793 190.581 152.326C190.77 152.041 190.853 151.698 190.818 151.358C190.782 151.017 190.629 150.7 190.385 150.46Z" fill="#D2D2D2"/>
</g>
<path d="M208.343 96.516C208.024 96.51 207.709 96.4411 207.416 96.3134C207.123 96.1857 206.859 96.0016 206.637 95.7716C206.416 95.5416 206.242 95.2703 206.126 94.973C206.009 94.6758 205.952 94.3585 205.958 94.0393C206.396 70.1369 185.005 62.7301 184.763 62.6494C184.446 62.5605 184.151 62.4082 183.895 62.2019C183.639 61.9956 183.428 61.7394 183.273 61.449C183.119 61.1585 183.026 60.8398 182.998 60.5121C182.971 60.1844 183.01 59.8546 183.114 59.5426C183.218 59.2306 183.384 58.9428 183.602 58.6968C183.82 58.4508 184.086 58.2516 184.383 58.1113C184.681 57.971 185.003 57.8925 185.332 57.8805C185.661 57.8686 185.988 57.9234 186.295 58.0417C186.548 58.1224 211.326 66.6812 210.762 94.1315C210.753 94.767 210.494 95.3735 210.041 95.8197C209.588 96.2659 208.978 96.516 208.343 96.516Z" fill="white"/>
</svg>
