<svg width="70" height="70" viewBox="0 0 70 70" fill="none" xmlns="http://www.w3.org/2000/svg">
<path fill-rule="evenodd" clip-rule="evenodd" d="M20.7034 51.2548C20.6164 51.4779 20.6848 51.732 20.8725 51.8809C21.06 52.0301 21.3229 52.0395 21.5206 51.9042L27.6497 47.7126C27.8232 47.5938 27.9131 47.3859 27.8809 47.178C27.8486 46.9699 27.6997 46.7992 27.4981 46.7386L23.4759 45.5329C23.2035 45.4511 22.9138 45.5924 22.8102 45.8575L20.7034 51.2548Z" fill="#01A3F4"/>
<path fill-rule="evenodd" clip-rule="evenodd" d="M29.9846 28.8803L32.4249 41.683C32.4741 41.9407 32.6993 42.1271 32.9615 42.1271H62.6093C64.53 42.1271 66.0893 40.5677 66.0893 38.6468V7.82604C66.0893 5.9051 64.53 4.3457 62.6093 4.3457H24.1053C22.1844 4.3457 20.625 5.9051 20.625 7.82604V33.784C20.625 33.983 20.733 34.1662 20.9071 34.2622C21.0812 34.3584 21.2938 34.3524 21.4621 34.2462L29.9846 28.8803Z" fill="#FEB452"/>
<path fill-rule="evenodd" clip-rule="evenodd" d="M52.9802 4.3457H33.7344V10.9354C33.7344 12.7895 35.2374 14.2925 37.0912 14.2925H49.6231C51.4771 14.2925 52.9799 12.7895 52.9802 10.9354V4.3457Z" fill="#FFE7C8"/>
<path fill-rule="evenodd" clip-rule="evenodd" d="M10.513 43.1233C10.6711 42.2799 29.5897 47.6893 32.5701 49.3999C33.0667 49.6849 33.7129 49.4306 34.1382 49.047C34.5634 48.6635 34.7574 48.0859 34.6502 47.5236C33.6731 42.3976 30.9077 27.8892 30.9077 27.8892C30.8739 27.712 30.7546 27.5628 30.5889 27.4907C30.4235 27.4186 30.2329 27.433 30.08 27.5293C30.08 27.5293 15.6202 36.634 10.0401 40.1476C9.48506 40.4971 9.19196 41.1436 9.29473 41.7914C9.39776 42.439 9.87701 42.9631 10.513 43.1233Z" fill="#A0D6FA"/>
<path fill-rule="evenodd" clip-rule="evenodd" d="M17.2196 44.0216C17.0903 44.1879 17.068 44.4136 17.1624 44.6018L20.7243 51.6986C20.821 51.8913 21.0224 52.0092 21.2379 51.999C21.4534 51.9891 21.6427 51.853 21.7213 51.6522L30.8798 28.1901C30.9786 27.9374 30.8766 27.6506 30.6407 27.5166C30.4047 27.3826 30.1064 27.4421 29.9399 27.6563L17.2196 44.0216Z" fill="#00B8F8"/>
<path fill-rule="evenodd" clip-rule="evenodd" d="M52.9802 4.89181C52.9802 4.59031 52.7356 4.3457 52.4338 4.3457H34.2805C33.9787 4.3457 33.7344 4.59031 33.7344 4.89181V10.9354C33.7344 12.7895 35.2374 14.2925 37.0912 14.2925H49.6231C51.4771 14.2925 52.9799 12.7895 52.9802 10.9354V4.89181ZM51.8877 5.43817V10.9354C51.8877 12.1862 50.8736 13.2 49.6231 13.2C48.3028 13.2 38.4115 13.2 37.0912 13.2C35.8407 13.2 34.8268 12.1862 34.8266 10.9354V5.43817H51.8877Z" fill="#010D4B"/>
<path fill-rule="evenodd" clip-rule="evenodd" d="M23.1626 46.5795C23.1626 46.5795 29.4448 48.4629 32.5701 49.3999C33.1186 49.5643 33.7129 49.4306 34.1382 49.047C34.5634 48.6635 34.7574 48.0859 34.6502 47.5236C33.6731 42.3976 30.9077 27.8892 30.9077 27.8892C30.8739 27.712 30.7546 27.5628 30.5889 27.4907C30.4235 27.4186 30.2329 27.433 30.08 27.5293C30.08 27.5293 15.6202 36.634 10.0401 40.1476C9.48506 40.4971 9.19196 41.1436 9.29473 41.7914C9.39776 42.439 9.87701 42.9631 10.513 43.1233L17.5175 44.8866C17.8098 44.96 18.1069 44.7826 18.1805 44.4902C18.2539 44.1979 18.0765 43.9009 17.7841 43.8272L10.7797 42.0638C10.5678 42.0103 10.4079 41.8357 10.3736 41.62C10.3392 41.4039 10.437 41.1884 10.6221 41.072L29.9846 28.8805L33.5771 47.7281C33.613 47.9155 33.5483 48.1079 33.4064 48.2359C33.2649 48.3638 33.0667 48.4084 32.8839 48.3536C32.8837 48.3536 23.4762 45.5332 23.4762 45.5332C23.1875 45.4466 22.8829 45.6108 22.7963 45.8994C22.7096 46.1883 22.8737 46.493 23.1626 46.5795Z" fill="#010D4B"/>
<path fill-rule="evenodd" clip-rule="evenodd" d="M17.2196 44.0216C17.0903 44.1879 17.068 44.4136 17.1624 44.6018L20.7243 51.6986C20.821 51.8913 21.0224 52.0092 21.2379 51.999C21.4534 51.9891 21.6427 51.853 21.7213 51.6522L30.8798 28.1901C30.9786 27.9374 30.8766 27.6506 30.6407 27.5166C30.4047 27.3826 30.1064 27.4421 29.9399 27.6563L17.2196 44.0216ZM18.2934 44.4199L28.4953 31.2947L21.1501 50.1114L18.2934 44.4199Z" fill="#010D4B"/>
<path fill-rule="evenodd" clip-rule="evenodd" d="M20.7034 51.2548C20.6164 51.4779 20.6848 51.732 20.8725 51.8809C21.06 52.0301 21.3229 52.0395 21.5206 51.9042L27.6497 47.7126C27.8232 47.5938 27.9131 47.3859 27.8809 47.178C27.8486 46.9699 27.6997 46.7992 27.4981 46.7386L23.4759 45.5329C23.2035 45.4511 22.9138 45.5924 22.8102 45.8575L20.7034 51.2548ZM22.3645 50.0037L23.6447 46.724L26.0889 47.4567L22.3645 50.0037Z" fill="#010D4B"/>
<path fill-rule="evenodd" clip-rule="evenodd" d="M29.9846 28.8803L32.4249 41.683C32.4741 41.9407 32.6993 42.1271 32.9615 42.1271H62.6093C64.53 42.1271 66.0893 40.5677 66.0893 38.6468V7.82604C66.0893 5.9051 64.53 4.3457 62.6093 4.3457H24.1053C22.1844 4.3457 20.625 5.9051 20.625 7.82604V33.784C20.625 33.983 20.733 34.1662 20.9071 34.2622C21.0812 34.3584 21.2938 34.3524 21.4621 34.2462L29.9846 28.8803ZM30.9077 27.889C30.8738 27.7118 30.7546 27.5626 30.5889 27.4905C30.4234 27.4184 30.2328 27.4329 30.08 27.5291L21.7175 32.7948V7.82604C21.7175 6.5081 22.7874 5.43817 24.1053 5.43817H62.6093C63.9272 5.43817 64.9971 6.5081 64.9971 7.82604V38.6468C64.9971 39.9647 63.9272 41.0346 62.6093 41.0346H33.4135L30.9077 27.889Z" fill="#010D4B"/>
<path fill-rule="evenodd" clip-rule="evenodd" d="M60.2427 29.2578H51.6652C51.3637 29.2578 51.1191 29.5024 51.1191 29.8039C51.1191 30.1054 51.3637 30.35 51.6652 30.35H60.2427C60.5442 30.35 60.7891 30.1054 60.7891 29.8039C60.7891 29.5024 60.5442 29.2578 60.2427 29.2578Z" fill="#010D4B"/>
<path fill-rule="evenodd" clip-rule="evenodd" d="M60.2425 34.4531H48.5666C48.2654 34.4531 48.0205 34.6977 48.0205 34.9992C48.0205 35.3007 48.2654 35.5453 48.5666 35.5453H60.2425C60.544 35.5453 60.7888 35.3007 60.7888 34.9992C60.7888 34.6977 60.544 34.4531 60.2425 34.4531Z" fill="#010D4B"/>
<path fill-rule="evenodd" clip-rule="evenodd" d="M30.802 52.1206C30.802 52.1206 30.6235 53.6761 31.0792 55.1755C31.2766 55.8251 31.5794 56.4622 32.0717 56.9561C32.1347 57.0301 32.2458 57.0387 32.3198 56.9755C32.3937 56.9124 32.4023 56.8012 32.3392 56.7275C31.9747 56.2289 31.797 55.6301 31.7118 55.0347C31.5144 53.6572 31.8769 52.3157 31.8769 52.3157C31.9307 52.0192 31.7338 51.7347 31.437 51.6807C31.1405 51.627 30.856 51.8241 30.802 52.1206Z" fill="#010D4B"/>
<path fill-rule="evenodd" clip-rule="evenodd" d="M11.4702 46.0222C11.4702 46.0222 10.778 47.2272 9.66431 48.0616C9.18296 48.4224 8.63397 48.72 8.02363 48.8149C7.92689 48.8225 7.85427 48.9074 7.86187 49.0042C7.86948 49.1009 7.95442 49.1735 8.05116 49.1659C8.74854 49.1646 9.41315 48.9284 10.0122 48.6085C11.3946 47.8705 12.3678 46.6443 12.3678 46.6443C12.5396 46.3966 12.4779 46.056 12.2299 45.8843C11.9822 45.7126 11.6416 45.7745 11.4702 46.0222Z" fill="#010D4B"/>
<path fill-rule="evenodd" clip-rule="evenodd" d="M27.277 51.086C27.277 51.086 27.0912 52.0081 27.4398 52.9501C27.6307 53.4658 27.9492 53.9925 28.5627 54.3553C28.6403 54.4138 28.7507 54.3983 28.8092 54.321C28.8676 54.2434 28.8522 54.133 28.7746 54.0743C28.3593 53.6807 28.1983 53.2146 28.1409 52.7768C28.0428 52.0275 28.3286 51.3818 28.3286 51.3818C28.4104 51.0915 28.241 50.7898 27.9508 50.708C27.6606 50.6264 27.3588 50.7958 27.277 51.086Z" fill="#010D4B"/>
<path fill-rule="evenodd" clip-rule="evenodd" d="M14.6394 47.871C14.6394 47.871 14.3849 48.5296 13.7858 48.9899C13.4358 49.2589 12.9922 49.475 12.4201 49.4595C12.3239 49.4459 12.2348 49.5132 12.2214 49.6092C12.2081 49.7054 12.2752 49.7945 12.3714 49.8079C13.0617 49.9851 13.6592 49.8381 14.1591 49.6081C15.0718 49.1887 15.5922 48.4053 15.5922 48.4053C15.7398 48.1423 15.6459 47.8091 15.383 47.6615C15.12 47.5142 14.787 47.608 14.6394 47.871Z" fill="#010D4B"/>
<path fill-rule="evenodd" clip-rule="evenodd" d="M15.6995 60.6761C16.0548 59.7996 16.2074 58.8844 16.167 58.0106C16.0776 56.081 15.0467 54.3478 13.2052 53.5573C12.3031 53.1732 11.2615 53.2634 10.2846 53.702C9.04377 54.2594 7.90962 55.3721 7.35302 56.6329C6.9422 57.5636 6.83917 58.5711 7.19913 59.5034C7.59606 60.5303 8.56243 61.493 10.3945 62.1125C11.4073 62.4539 12.4064 62.5058 13.3741 62.3411C12.4253 63.3038 11.084 64.066 9.31565 64.4351C7.93636 64.723 6.30958 64.7867 4.41355 64.5122C4.27669 64.4881 4.14587 64.5798 4.12201 64.7167C4.09789 64.8535 4.18965 64.9841 4.32651 65.0082C6.29306 65.4141 8.0019 65.4568 9.46037 65.2274C11.5189 64.9036 13.0854 64.0453 14.1826 62.951C14.5392 62.5954 14.8464 62.2137 15.1055 61.815C15.7858 61.5187 16.4436 61.1286 17.0718 60.6737C20.8646 57.9264 23.5534 52.8445 23.5534 52.8445C23.6195 52.7223 23.5741 52.5692 23.452 52.5031C23.3298 52.4368 23.177 52.4824 23.1106 52.6046C23.1106 52.6046 20.3956 57.4904 16.6528 60.0825C16.3419 60.2978 16.0238 60.4973 15.6995 60.6761ZM14.181 61.3331C14.842 60.3007 15.1343 59.1476 15.0779 58.0641C14.999 56.5453 14.2298 55.1634 12.7831 54.5331C12.1434 54.2518 11.4023 54.3444 10.702 54.648C9.67037 55.095 8.71973 55.9997 8.24336 57.0345C7.92535 57.7245 7.81602 58.4738 8.07269 59.1746C8.38126 60.017 9.19505 60.766 10.6784 61.298C11.8737 61.7282 13.0532 61.6826 14.181 61.3331Z" fill="#010D4B"/>
</svg>
